<ttFont>
          <CharString index="0">
            -107 callgsubr
            endchar
          </CharString>
          <CharString index="1">
            rmoveto
            59 -22 42 -25 45 vhcurveto
            64 -36 -71 31 -74 hhcurveto
            -45 -57 -37 -34 -27 hvcurveto
            -22 -27 -16 -40 -38 vvcurveto
            -54 41 -28 51 52 66 57 56 27 -33 34 -27 -1 vhcurveto
            -25 -40 -41 -19 -7 hvcurveto
            -14 -40 51 -11 -19 33 rrcurveto
            18 -10 51 31 13 hhcurveto
            13 16 -17 -14 -40 -49 -39 -38 -32 -28 14 34 hvcurveto
            -1 72 42 33 58 32 rrcurveto
            6 11 10 -1 14 hhcurveto
            61 57 -29 -51 30 hvcurveto
            22 -38 17 -37 -51 vvcurveto
            -73 -20 -59 -41 -58 vhcurveto
            -53 -36 -88 -38 -65 hhcurveto
            -124 1 -83 79 -34 109 -8 27 -8 23 2 32 rrcurveto
            26 3 21 7 23 vhcurveto
            37 129 24 63 121 63 rrcurveto
            12 24 18 0 27 hhcurveto
            -55 callgsubr
            10 -10 14 16 -10 9 -20 18 -12 25 -23 15 rrcurveto
            25 -39 -48 12 -50 hhcurveto
            -33 -20 -5 -14 -28 hvcurveto
            -37 -19 -37 -18 -31 -28 rrcurveto
            -62 -56 -63 -142 -89 vvcurveto
            -171 117 -150 189 77 105 51 64 43 vhcurveto
            46 65 20 68 82 vvcurveto
            endchar
          </CharString>
          <CharString index="2">
            28 53 19 vstem
            612 -103 rmoveto
            -65 54 -11 33 -28 78 -12 33 -4 30 -12 40 -16 60 rcurveline
            6 21 rlineto
            26 84 -2 92 95 vvcurveto
            30 4 127 -52 -1 vhcurveto
            -42 -10 -104 -33 -57 -3 -61 2 -55 hvcurveto
            2 -49 6 -45 9 -43 -9 -24 -10 -21 -12 -28 rrcurveto
            -41 -19 -59 -90 -51 hhcurveto
            -66 2 -32 68 -5 60 rrcurveto
            -1 17 1 10 16 vvcurveto
            12 66 5 39 17 64 16 56 7 48 1 67 rrcurveto
            40 -30 90 -52 -7 -3 -2 -2 -9 vhcurveto
            -54 -13 -33 -81 -52 vvcurveto
            -29 -5 -59 31 -18 vhcurveto
            -6 10 9 2 10 hhcurveto
            33 2 20 12 39 vvcurveto
            18 -9 17 -8 13 vhcurveto
            1 vlineto
            -7 10 -16 -10 7 -11 rrcurveto
            5 -10 7 -14 -15 vvcurveto
            -21 -13 -4 -18 vhcurveto
            -1 -5 -3 0 -3 hhcurveto
            -21 1 -3 70 12 vvcurveto
            46 25 72 46 11 vhcurveto
            1 5 4 -1 4 hhcurveto
            39 3 -79 -29 hvcurveto
            -2 -62 -13 -44 -16 -53 -19 -66 -10 -39 -12 -69 rrcurveto
            -5 vlineto
            -19 -2 -12 1 -19 vhcurveto
            8 -87 57 -89 94 1 rrcurveto
            77 63 90 84 40 hvcurveto
            12 -38 15 -27 12 -34 20 -58 27 -16 34 -45 13 -18 19 -13 17 -13 10 -9 13 14 -10 8 rrcurveto
            return
          </CharString>
          <CharString index="3">
            -105 callsubr
            -137 622 -84 callsubr
            return
          </CharString>
          <CharString index="4">
            rmoveto
            -105 callgsubr
          </CharString>
          <CharString index="5">
            -19 callgsubr
            41 189 -104 callsubr
            return
          </CharString>
          <CharString index="6">
            rmoveto
            -18 42 -15 47 -9 46 14 41 0 38 -13 36 rrcurveto
            -99 callsubr
            rrcurveto
            return
          </CharString>
          <CharString index="7">
            rmoveto
            1 vlineto
            34 -37 -65 -17 -24 -16 45 25 -68 callgsubr
            6 35 21 -65 callsubr
            -23 -7 -28 -13 12 hvcurveto
            9 -20 -45 callsubr
            4 -13 -2 -15 vhcurveto
            -5 -29 -1 -23 -4 -25 -60 callgsubr
            -51 35 19 35 30 19 vhcurveto
            endchar
          </CharString>
          <CharString index="8">
            -1 hlineto
            10 11 5 17 9 vvcurveto
            1 57 -50 12 -49 -1 rrcurveto
            -125 -3 -19 -137 -76 vvcurveto
            -65 40 -49 71 1 vhcurveto
            37 37 39 32 22 hvcurveto
            13 -34 -2 -32 22 -41 21 -39 13 38 -5 11 return
          </CharString>
          <CharString index="9">
            rmoveto
            1 106 -31 98 -74 76 -13 15 -14 10 -9 13 -10 14 -14 11 -13 18 -2 3 rcurveline
            6 28 3 30 29 vvcurveto
            1 29 -23 80 -34 2 rrcurveto
            -30 -17 -51 -21 hvcurveto
            -1 -66 22 -32 35 -43 -8 -31 -12 -30 -15 -29 rrcurveto
            11 -16 -16 7 -18 hhcurveto
            -18 -15 -8 -3 -17 hvcurveto
            -75 -17 -38 -90 -7 -72 rrcurveto
            -3 -21 -3 -19 -24 vvcurveto
            -27 6 -28 10 -26 vhcurveto
            -15 -23 -12 -24 -14 -25 rrcurveto
            -17 -32 -13 -27 -39 vvcurveto
            -15 5 -9 2 -15 vhcurveto
            -1 1 2 -14 19 4 -2 12 rlinecurve
            -3 15 0 9 13 vvcurveto
            33 18 24 15 28 vhcurveto
            9 18 10 17 11 17 7 -13 8 -12 8 -10 rrcurveto
            -63 48 60 -47 95 hhcurveto
            108 114 139 96 hvcurveto
            -57 -1 rmoveto
            -69 -93 -108 -70 -72 -45 34 54 -41 vhcurveto
            -12 14 -12 18 -10 19 30 44 34 41 31 43 29 40 29 44 25 47 8 -8 rcurveline
            27 -34 32 -54 -46 vvcurveto
            -61 -27 -86 -66 -21 -16 37 18 vhcurveto
            24 -1 17 46 27 hhcurveto
            9 -10 -11 -8 hvcurveto
            -29 43 0 29 vvcurveto
            26 -11 27 -31 -40 -30 -66 -38 2 vhcurveto
            -35 24 -45 39 78 33 100 72 43 -32 72 -45 44 vhcurveto
            1 hlineto
            12 25 12 26 9 27 14 -26 11 -29 22 -21 60 -63 26 -83 1 -94 rrcurveto
            -206 240 rmoveto
            -25 -47 -29 -44 -28 -38 -28 -38 -28 -37 -26 -38 rrcurveto
            -2 8 -1 9 9 vvcurveto
            64 9 133 75 17 vhcurveto
            3 15 14 8 15 hhcurveto
            11 15 -3 -6 13 hvcurveto
            63 209 rmoveto
            -16 -3 -18 -3 -18 vhcurveto
            -1 vlineto
            -20 25 -15 25 44 vvcurveto
            11 1 -2 31 16 hhcurveto
            22 -1 5 -61 -1 -21 rrcurveto
            return
          </CharString>
          <CharString index="10">
            rmoveto
            61 -35 79 -49 28 vhcurveto
            13 -23 -20 0 -22 hhcurveto
            -65 -38 -74 -57 1 hvcurveto
            -35 30 -57 46 vhcurveto
            51 1 23 37 1 47 rrcurveto
            15 -22 0 -16 vvcurveto
            -1 -31 -18 -23 -36 -1 rrcurveto
            -20 -25 34 28 hvcurveto
            45 -1 23 60 50 hhcurveto
            23 14 -1 -9 15 hvcurveto
            41 -22 10 -72 -50 vvcurveto
            -64 1 -54 -73 -67 hhcurveto
            -46 -32 17 23 -30 hvcurveto
            -26 21 -25 23 -27 20 rrcurveto
            15 36 9 38 42 vvcurveto
            61 -6 17 -9 62 vhcurveto
            114 10 56 127 102 vvcurveto
            46 -1 64 -37 31 vhcurveto
            13 -16 -29 13 -16 hhcurveto
            -22 -29 -27 -18 -13 hvcurveto
            -66 -90 5 -122 15 -120 -35 11 -21 28 -21 28 rrcurveto
            1 hlineto
            -8 10 -16 -11 8 -10 12 -16 9 -19 14 -15 14 -16 22 -13 23 -5 rrcurveto
            8 -65 5 -19 -57 vvcurveto
            -30 -6 -32 -11 -31 vhcurveto
            22 -37 -53 39 -41 hhcurveto
            -45 1 -50 -51 -46 vvcurveto
            -71 78 -56 67 29 15 17 21 13 vhcurveto
            12 21 13 20 11 20 rrcurveto
            -49 63 43 -64 98 hhcurveto
            20 21 4 4 9 hvcurveto
            70 23 50 84 -1 71 rrcurveto
            -214 462 rmoveto
            -65 -17 -66 -41 -45 vhcurveto
            -18 -19 -30 -14 -26 -4 -8 60 -6 60 8 61 7 51 16 34 31 41 rrcurveto
            8 6 11 11 8 hhcurveto
            7 12 -9 -5 6 hvcurveto
            27 -23 7 -43 -33 vvcurveto
            -189 -513 rmoveto
            -8 -17 -9 -14 -9 -12 rrcurveto
            -13 -8 -12 -27 -17 hhcurveto
            -52 -66 34 55 40 27 27 42 1 hvcurveto
            27 59 -58 -16 25 hvcurveto
            endchar
          </CharString>
          <CharString index="11">
            rmoveto
            -12 5 -13 0 -14 -4 1 3 0 4 -2 4 rrcurveto
            -10 17 -1 21 18 vvcurveto
            40 12 35 13 38 vhcurveto
            12 39 28 100 -16 40 rrcurveto
            3 0 2 -2 1 vhcurveto
            2 -1 1 -1 2 vhcurveto
            -15 25 -14 -47 -1 -10 -1 -5 rcurveline
            -3 -7 -4 -7 -1 -4 rrcurveto
            -20 -8 -19 -55 -33 hhcurveto
            -5 0 11 3 hvcurveto
            9 -14 0 -9 vvcurveto
            -7 1 6 -21 13 hhcurveto
            14 10 5 10 9 hvcurveto
            7 8 8 9 9 8 -4 -26 -7 -25 -7 -22 rrcurveto
            -7 -22 -3 -73 -31 vvcurveto
            -14 3 -46 5 -10 vhcurveto
            2 -2 1 -3 3 -2 -24 -11 -22 -19 -12 -18 -2 -3 -1 -5 -2 -3 -8 -17 22 9 6 9 20 30 46 28 31 -11 13 -6 8 20 -14 6 rrcurveto
            return
          </CharString>
          <CharString index="12">
            291 414 rmoveto
            51 -31 37 -43 15 vhcurveto
            21 32 14 37 29 vvcurveto
            45 -35 22 -41 -28 -22 -13 -11 -22 vhcurveto
            -21 -11 -30 -17 -7 -23 rrcurveto
            -2 -7 -4 -20 -9 vvcurveto
            -23 24 -26 22 20 12 15 21 13 -3 5 -13 3 vhcurveto
            -9 2 -3 -13 9 -3 rrcurveto
            3 1 2 -3 hvcurveto
            -6 vlineto
            -9 -1 -6 -6 -10 hhcurveto
            -13 -16 15 14 7 2 17 1 6 hvcurveto
            6 17 33 14 14 7 rrcurveto
            9 19 20 6 24 hhcurveto
            25 17 -15 -26 -24 -9 -37 -17 -29 hvcurveto
            -5 -6 1 -7 hhcurveto
            -17 -8 -2 -6 -16 hvcurveto
            -10 -3 -17 -19 -13 vvcurveto
            -16 23 -8 14 4 vhcurveto
            21 3 21 14 17 19 9 -5 11 -6 8 -5 rrcurveto
            19 -13 10 -28 -26 vvcurveto
            -58 -45 -81 -50 -30 vhcurveto
            -9 -14 -7 -3 -11 hhcurveto
            -43 -28 59 53 4 2 7 2 4 3 callsubr
            2 4 18 13 4 hhcurveto
            6 3 3 -3 4 hvcurveto
            14 -10 10 -19 -18 vvcurveto
            -7 -4 -13 -7 -7 -3 15 5 -1 vhcurveto
            -2 15 -21 -4 3 -14 rrcurveto
            -11 1 17 -19 13 hhcurveto
            13 12 21 12 18 -14 35 -12 9 hvcurveto
            6 -8 -4 7 -14 hhcurveto
            -14 -25 -3 -10 -12 hvcurveto
            -15 -11 -4 -25 -10 vvcurveto
            -52 28 -101 84 92 67 146 75 vhcurveto
            -110 90 rmoveto
            -12 -13 -13 -9 -16 -3 rrcurveto
            -4 -9 -3 5 hvcurveto
            1 7 4 14 6 1 rrcurveto
            5 14 9 -4 15 hhcurveto
            3 hlineto
            return
          </CharString>
          <CharString index="13">
            rmoveto
            23 -19 33 -26 vhcurveto
            -27 1 -13 -16 -8 -20 rrcurveto
            -5 -10 6 -11 -10 vvcurveto
            -9 13 0 1 9 vhcurveto
            1 24 rlineto
            12 6 10 10 16 hhcurveto
            6 -1 8 -7 5 -10 rrcurveto
            2 -5 0 -9 -5 vvcurveto
            -27 -20 -33 -31 -27 -17 17 16 -19 vhcurveto
            -10 7 -9 7 -10 5 rrcurveto
            72 72 68 111 83 vvcurveto
            45 -34 37 -40 11 vhcurveto
            5 -18 -18 1 -20 hhcurveto
            -18 -12 -4 -6 -17 hvcurveto
            -49 -15 -32 -30 -60 vvcurveto
            -22 21 -32 24 vhcurveto
            25 1 25 18 26 vvcurveto
            15 -12 11 -15 2 vhcurveto
            -1 -1 -9 2 -1 -13 8 -2 rlinecurve
            7 -1 6 -6 -7 vvcurveto
            -1 -13 -14 -14 -18 1 rrcurveto
            -15 -16 21 14 hvcurveto
            1 50 34 19 41 13 rrcurveto
            4 12 12 -1 14 hhcurveto
            17 14 -12 -3 15 hvcurveto
            24 -7 19 -23 -24 vvcurveto
            -67 -66 -113 -63 -69 vhcurveto
            -9 5 -10 6 -10 6 rrcurveto
            14 -20 -15 13 -27 hhcurveto
            -28 1 -21 -28 -25 vvcurveto
            -29 17 -56 34 18 13 11 8 14 vhcurveto
            18 10 17 11 17 16 rrcurveto
            -25 37 29 -37 48 hhcurveto
            45 30 51 40 hvcurveto
            -215 -11 rmoveto
            -14 -14 -13 -10 -12 -7 rrcurveto
            -6 -10 -10 -4 -12 hhcurveto
            -20 -7 34 17 8 -1 5 2 4 hvcurveto
            9 6 7 8 11 hhcurveto
            20 13 -18 -10 15 hvcurveto
            8 -6 8 -6 9 -4 rrcurveto
            endchar
          </CharString>
          <CharString index="14">
            rmoveto
            -5 hlineto
            12 14 -6 27 -23 hhcurveto
            -10 -19 -11 -9 -4 hvcurveto
            -22 -62 -62 -66 -43 -49 -65 -72 -68 -104 -51 -81 -25 -37 -12 -31 -21 -32 rrcurveto
            -24 -36 -40 -81 -44 vvcurveto
            -1 -11 6 -5 7 -8 6 -14 22 8 -5 16 rrcurveto
            4 -5 4 5 vvcurveto
            -1 59 94 126 35 54 51 78 78 93 62 70 47 53 65 75 25 69 rrcurveto
            return
          </CharString>
          <CharString index="15">
            292 287 rmoveto
            6 6 -1 12 -7 5 -67 53 -38 -61 callsubr
            -3 -5 -1 -8 4 -6 7 -10 rcurveline
            9 -22 13 -18 14 -18 21 -34 22 -36 23 -56 callgsubr
            -41 -21 -20 -35 rlinecurve
            -5 -8 -4 -8 -6 -8 -35 -37 rcurveline
            -13 -13 -12 -15 -13 -19 -5 -4 rcurveline
            -7 -6 0 -8 3 -7 4 -11 14 -5 11 -57 callsubr
            return
          </CharString>
          <CharString index="16">
            vstem
            417 -45 rmoveto
            11 6 -9 17 -11 -7 rrcurveto
            -5 -9 -17 -7 -8 hhcurveto
            -3 1 -3 11 -1 2 rrcurveto
            -15 39 -8 38 43 vvcurveto
            53 10 59 19 46 vhcurveto
            10 26 -1 13 30 vvcurveto
            24 -24 50 -30 -35 -26 -27 -33 -22 vhcurveto
            -18 -27 -10 -30 -12 -29 -19 -45 rcurveline
            40 vlineto
            -1 52 -24 98 -67 -1 rrcurveto
            -50 -53 -71 -48 -1 hvcurveto
            -18 26 -55 22 vhcurveto
            33 2 29 25 -1 32 rrcurveto
            30 -8 9 -36 -1 vhcurveto
            -1 vlineto
            -12 1 -19 12 hhcurveto
            18 1 2 -5 -15 vvcurveto
            -21 -17 -15 -20 -1 vhcurveto
            -15 -9 40 11 36 42 53 37 hvcurveto
            48 1 -13 -83 1 -37 1 -76 0 -85 -7 -71 -1 -13 36 -6 2 13 18 86 16 75 32 72 rrcurveto
            37 17 37 84 47 hhcurveto
            12 -2 -28 -10 hvcurveto
            1 -22 -7 -8 -8 -19 -22 -51 -3 -69 1 -59 rrcurveto
            -49 24 -41 14 -32 vhcurveto
            -15 7 9 -18 19 hhcurveto
            11 1 21 10 12 7 rrcurveto
            return
          </CharString>
          <CharString index="17">
            12 40 38 22 19 71 25 100 25 hstem
            197 25 76 29 vstem
            327 149 rmoveto
            31 -9 24 -29 5 vhcurveto
            3 -8 -8 3 -9 hhcurveto
            -30 -37 -49 -30 -26 28 -9 17 hvcurveto
            -1 12 0 19 -12 hhcurveto
            -8 -12 4 13 21 30 33 12 3 2 0 -1 2 hvcurveto
            29 -6 -2 -4 -30 vvcurveto
            -30 -34 -64 -41 vhcurveto
            -35 -31 23 -41 hhcurveto
            -15 hlineto
            39 65 46 69 57 47 19 15 10 31 24 9 12 4 -7 27 -13 -1 rrcurveto
            -2 -20 -19 -9 -21 hhcurveto
            -34 -35 10 -1 -35 hvcurveto
            -18 -35 -21 -10 -12 3 callsubr
            -10 -8 13 -15 9 9 rrcurveto
            7 7 35 11 10 hhcurveto
            5 -1 3 -1 3 -2 70 -10 rcurveline
            -79 -68 -59 -97 -46 -78 -5 -12 30 -35 12 5 rrcurveto
            9 21 12 14 26 37 33 -21 37 hhcurveto
            57 47 89 41 hvcurveto
            return
          </CharString>
          <CharString index="18">
            68 vstem
            828 394 rmoveto
            60 -25 57 -35 49 vhcurveto
            -13 38 -21 33 -26 14 -40 25 -77 11 -52 1 -4 5 -6 3 -9 -1 -124 -13 -126 -63 -95 -64 -69 -46 -33 -102 -13 -85 rrcurveto
            -13 -46 -6 -47 -44 vvcurveto
            -143 137 -61 132 -12 vhcurveto
            -4 36 33 -5 20 hhcurveto
            118 78 55 55 67 hvcurveto
            105 87 61 112 131 vvcurveto
            -69 2 rmoveto
            -63 -10 -78 -29 -43 vhcurveto
            -38 -59 -41 -15 -56 -43 rrcurveto
            -50 -69 -64 -51 -99 hhcurveto
            -13 -12 0 2 -11 hvcurveto
            -65 11 -73 21 -23 29 rrcurveto
            -38 48 -23 76 63 vvcurveto
            19 1 23 5 25 vhcurveto
            15 55 27 55 40 45 29 23 46 37 52 32 rrcurveto
            40 69 73 39 87 hhcurveto
            78 70 -37 -55 44 hvcurveto
            18 -48 10 -60 -41 vvcurveto
            return
          </CharString>
          <CharString index="19">
            -12 -1 -21 -26 -17 vvcurveto
            -10 7 -7 3 -9 vhcurveto
            -75 callgsubr
            return
          </CharString>
          <CharString index="20">
            -8 vhcurveto
            9 1 17 -76 callgsubr
            -4 hlineto
            -6 -71 callsubr
            return
          </CharString>
          <CharString index="21">
            -24 -11 -27 -32 -35 hhcurveto
            -55 -15 69 50 80 43 77 66 35 29 -10 -42 hvcurveto
            return
          </CharString>
          <CharString index="22">
            37 44 42 16 hvcurveto
            11 28 -64 callsubr
            -39 -28 callsubr
            9 -2 7 1 8 vhcurveto
            2 18 5 return
          </CharString>
          <CharString index="23">
            rmoveto
            -68 -15 -61 -16 -61 vhcurveto
            -2 11 -1 12 11 vvcurveto
            -3 56 -16 60 59 vvcurveto
            25 -10 89 34 1 vhcurveto
            30 -1 -119 -15 hvcurveto
            return
          </CharString>
          <CharString index="24">
            rmoveto
            23 -32 28 -25 25 -30 2 -2 rcurveline
            -12 8 36 -49 12 hhcurveto
            18 12 18 12 12 hvcurveto
            3 5 19 23 62 45 22 15 rlinecurve
            19 13 -29 25 -14 -10 -32 -27 -37 -29 -45 -32 -41 44 -39 43 -48 25 -8 5 -18 -10 10 -15 rrcurveto
            endchar
          </CharString>
          <CharString index="25">
            -44 callgsubr
            -1 -2 -58 callgsubr
            8 2 11 hhcurveto
            8 25 -29 -17 hvcurveto
            return
          </CharString>
          <CharString index="26">
            -21 callsubr
            -42 -38 vvcurveto
            -38 -62 callsubr
            1 -20 22 24 vvcurveto
            23 -19 callsubr
            5 hvcurveto
            6 -34 callgsubr
            15 -10 hhcurveto
            -17 -1 -11 -12 -16 vvcurveto
            -16 -2 -17 callsubr
            -2 22 24 25 vvcurveto
            endchar
          </CharString>
          <CharString index="27">
            -17 19 22 -9 25 hhcurveto
            47 57 34 51 29 -26 9 -26 -42 -40 -30 -27 -33 hvcurveto
            -14 25 -7 30 29 vvcurveto
            54 33 64 36 39 vhcurveto
            28 27 52 3 35 hhcurveto
            51 42 -41 -51 -28 -15 -69 -37 -20 -19 19 20 23 18 18 14 14 hvcurveto
            3 7 rlineto
            5 -4 5 -6 -18 -26 -54 -17 -31 28 -28 31 48 46 73 43 84 -50 58 -87 -118 -90 -127 -111 -35 8 -38 19 -29 vhcurveto
            return
          </CharString>
          <CharString index="28">
            18 -14 40 -19 25 -1 rrcurveto
            18 10 7 6 15 hvcurveto
            return
          </CharString>
          <CharString index="29">
            -24 -36 -45 -16 -14 -32 18 15 9 7 9 5 8 vhcurveto
            17 26 -23 3 -5 -10 rrcurveto
            -7 -17 -14 -8 -22 vvcurveto
            -23 48 -34 23 41 40 59 36 51 -50 46 -48 -78 -71 -54 -77 -71 51 -68 61 -26 vhcurveto
            48 -21 89 38 34 38 56 61 4 53 2 77 rrcurveto
            -72 346 rmoveto
            -34 -4 -35 -7 -32 vhcurveto
            -10 30 -8 30 -3 32 28 callsubr
            -2 32 35 41 -64 vvcurveto
            return
          </CharString>
          <CharString index="30">
            hstem
            199 28 -75 callsubr
            return
          </CharString>
          <CharString index="31">
            -29 -16 -39 -36 -36 hhcurveto
            -18 -29 19 10 -14 hvcurveto
            return
          </CharString>
          <CharString index="32">
            vstem
            227 15 callgsubr
            -32 49 -31 2 callsubr
            -13 vhcurveto
            -86 -7 callgsubr
            -4 vlineto
            -59 14 41 -56 71 hhcurveto
            44 -85 callsubr
            18 6 18 -39 callsubr
            28 47 38 -1 hvcurveto
            return
          </CharString>
          <CharString index="33">
            -2 -3 0 -6 -3 -5 rrcurveto
            -5 -1 -7 -24 -2 hhcurveto
            -47 -22 99 36 1 hvcurveto
            33 7 60 30 1 vhcurveto
            13 3 -28 -10 2 hvcurveto
            2 -13 19 3 -2 12 rrcurveto
            23 -5 -3 33 -30 hhcurveto
            -37 -1 -18 -73 -1 -41 rrcurveto
            -26 0 -17 6 -25 vhcurveto
            -31 9 25 -80 48 hhcurveto
            34 22 40 28 10 hvcurveto
            19 49 16 51 51 vvcurveto
            5 vlineto
            return
          </CharString>
          <CharString index="34">
            -44 callsubr
            24 -87 callsubr
            -36 -23 vvcurveto
            -8 8 -7 7 27 28 113 25 vhcurveto
            endchar
          </CharString>
          <CharString index="35">
            11 -48 vhcurveto
            -24 -7 -20 -10 -11 -17 -7 -11 16 -10 6 10 8 11 18 6 20 3 rrcurveto
            26 -118 return
          </CharString>
          <CharString index="36">
            11 -6 12 -4 11 rrcurveto
            11 3 10 22 15 hhcurveto
            20 2 -57 -14 hvcurveto
            -60 -51 return
          </CharString>
          <CharString index="37">
            rmoveto
            12 6 -10 16 -12 -7 rrcurveto
            -8 -12 -34 -1 -21 return
          </CharString>
          <CharString index="38">
            -87 callsubr
            -35 -24 vvcurveto
            -8 8 -7 7 27 28 114 24 vhcurveto
            endchar
          </CharString>
          <CharString index="39">
            -1 28 18 50 -16 callsubr
            -9 -1 -9 -6 -11 -120 -3 43 -58 vvcurveto
            -31 -6 -26 -3 -31 vhcurveto
            -1 vlineto
            -1 -11 -1 -10 1 -9 rrcurveto
            5 -28 68 -12 17 vvcurveto
            10 -2 17 -4 9 vhcurveto
            -10 32 22 40 -4 64 rrcurveto
            return
          </CharString>
          <CharString index="40">
            8 -25 vhcurveto
            -37 12 36 -40 39 hhcurveto
            70 1 52 102 5 65 rrcurveto
            2 25 0 23 return
          </CharString>
          <CharString index="41">
            -10 callsubr
            -35 3 -77 -11 -27 12 -65 callgsubr
            84 101 8 86 -12 callsubr
          </CharString>
          <CharString index="42">
            112 -64 -8 rrcurveto
            -1 1 -2 -1 hhcurveto
            return
          </CharString>
          <CharString index="43">
            -21 2 -10 -28 rrcurveto
            -23 -9 -48 -33 -25 hhcurveto
            return
          </CharString>
          <CharString index="44">
            49 -21 65 0 54 -19 18 -7 11 18 18 callgsubr
            return
          </CharString>
          <CharString index="45">
            35 -29 38 7 5 5 2 6 vhcurveto
            7 -40 callgsubr
            -7 hhcurveto
            -24 return
          </CharString>
          <CharString index="46">
            111 -62 68 -12 14 -11 13 -12 18 -10 17 -23 -12 2 -16 return
          </CharString>
          <CharString index="47">
            268 -67 45 230 19 130 19 321 40 hstem
            35 21 90 19 2 58 30 19 254 58 vstem
            585 488 rmoveto
            91 -45 74 -75 48 vhcurveto
            23 -36 -38 13 -43 hhcurveto
            return
          </CharString>
          <CharString index="48">
            vhcurveto
            15 -37 43 -48 44 -2 rrcurveto
            29 18 0 18 24 hvcurveto
            20 16 18 19 14 23 rrcurveto
            -9 29 31 -11 31 hhcurveto
            127 -1 159 91 26 66 rrcurveto
            25 61 15 72 72 vvcurveto
            return
          </CharString>
          <CharString index="49">
            -12 50 263 34 110 29 51 34 87 34 return
          </CharString>
          <CharString index="50">
            11 7 8 7 6 7 7 61 63 101 83 49 65 rrcurveto
            return
          </CharString>
          <CharString index="51">
            36 71 -20 98 34 hstem
            -39 callgsubr
            return
          </CharString>
          <CharString index="52">
            404 -34 callsubr
            40 57 return
          </CharString>
          <CharString index="53">
            hstem
            52 31 57 26 158 18 74 17 52 48 vstem
            return
          </CharString>
          <CharString index="54">
            -49 callgsubr
            6 hvcurveto
            5 -34 callgsubr
            16 -10 hhcurveto
            -17 -1 -11 -13 -15 vvcurveto
            -17 return
          </CharString>
          <CharString index="55">
            -11 rrcurveto
            -26 -17 -19 -15 -37 vvcurveto
            -50 19 -16 40 64 17 99 23 -49 vhcurveto
            return
          </CharString>
          <CharString index="56">
            hhcurveto
            9 12 0 -11 hvcurveto
            endchar
          </CharString>
          <CharString index="57">
            -9 -34 -10 -68 -30 -22 -64 -47 -101 -10 -28 88 -17 61 26 32 12 56 5 28 125 36 42 -11 rrcurveto
            18 17 7 15 -27 -5 return
          </CharString>
          <CharString index="58">
            -40 callsubr
            14 callsubr
            return
          </CharString>
          <CharString index="59">
            233 -67 58 110 19 157 32 9 31 return
          </CharString>
          <CharString index="60">
            -33 -16 -21 -35 -35 hhcurveto
            -37 5 72 35 3 hvcurveto
            5 -1 6 2 7 vhcurveto
            8 34 4 34 5 34 8 56 -17 42 -64 2 rrcurveto
            return
          </CharString>
          <CharString index="61">
            hstem
            12 50 152 32 147 31 return
          </CharString>
          <CharString index="62">
            -2 -1 -1 -21 rrcurveto
            -18 return
          </CharString>
          <CharString index="63">
            26 -4 60 -36 -34 -20 -50 -28 -28 17 -2 return
          </CharString>
          <CharString index="64">
            35 -50 21 -12 5 -13 -4 -5 -66 callgsubr
            return
          </CharString>
          <CharString index="65">
            26 -53 121 -127 -100 hhcurveto
            -24 -6 14 30 22 8 8 return
          </CharString>
          <CharString index="66">
            225 -28 50 383 27 241 -20 return
          </CharString>
          <CharString index="67">
            hstem
            18 49 102 20 343 19 return
          </CharString>
          <CharString index="68">
            rrcurveto
            -14 19 59 -27 20 hhcurveto
            43 return
          </CharString>
          <CharString index="69">
            11 -18 18 7 54 19 return
          </CharString>
          <CharString index="70">
            -58 callsubr
            -53 callgsubr
            return
          </CharString>
          <CharString index="71">
            -12 -6 -49 -20 -55 -36 -53 13 callsubr
            return
          </CharString>
          <CharString index="72">
            33 21 36 22 34 14 18 14 18 return
          </CharString>
          <CharString index="73">
            -24 26 248 21 return
          </CharString>
          <CharString index="74">
            -10 44 -25 47 -9 47 rrcurveto
            4 43 44 1 43 hhcurveto
            116 150 -77 -130 -1 hvcurveto
            return
          </CharString>
          <CharString index="75">
            84 -24 28 160 19 44 25 39 19 62 33 hstem
            6 22 1 27 36 20 94 39 vstem
            return
          </CharString>
          <CharString index="76">
            23 callsubr
            5 rrcurveto
            return
          </CharString>
          <CharString index="77">
            hhcurveto
            -32 -21 -6 -13 -28 hvcurveto
            -37 -18 -38 -19 -30 -28 rrcurveto
            -65 -58 -60 -143 -86 vvcurveto
            return
          </CharString>
          <CharString index="78">
            527 rmoveto
            -112 -38 -117 -51 -94 vhcurveto
            return
          </CharString>
          <CharString index="79">
            -25 44 47 -11 hvcurveto
            return
          </CharString>
          <CharString index="80">
            17 -19 -2 rrcurveto
            -1 return
          </CharString>
          <CharString index="81">
            hhcurveto
            36 24 -23 -18 28 hvcurveto
            59 -38 31 -59 -71 vvcurveto
            -92 -60 -144 -99 -5 return
          </CharString>
          <CharString index="82">
            32 100 72 56 31 58 34 hstem
            13 58 43 80 10 20 47 19 vstem
            291 return
          </CharString>
          <CharString index="83">
            -67 651 29 hstem
            104 -8 callgsubr
            262 595 rmoveto
            45 return
          </CharString>
          <CharString index="84">
            -6 -3 vhcurveto
            -15 31 14 -34 vvcurveto
            -24 -15 callsubr
            return
          </CharString>
          <CharString index="85">
            -69 -96 -43 -19 vhcurveto
            -10 -4 7 -13 9 4 48 20 100 100 -2 56 rrcurveto
            return
          </CharString>
          <CharString index="86">
            rmoveto
            27 -1 -21 32 -26 hhcurveto
            -40 -1 -35 return
          </CharString>
          <CharString index="87">
            hstem
            13 49 173 20 return
          </CharString>
          <CharString index="88">
            23 29 24 14 16 -49 callgsubr
            return
          </CharString>
          <CharString index="89">
            hlineto
            -9 -9 -4 -9 -7 hvcurveto
            -8 -8 -8 -9 -7 -9 rrcurveto
            1 vlineto
            -3 return
          </CharString>
          <CharString index="90">
            24 -9 8 hhcurveto
            24 return
          </CharString>
          <CharString index="91">
            -30 53 rrcurveto
            -10 19 -21 -6 -21 vvcurveto
            return
          </CharString>
          <CharString index="92">
            -28 -3 -18 vhcurveto
            -32 -63 58 -73 hhcurveto
            return
          </CharString>
          <CharString index="93">
            22 32 34 276 17 hstem
            13 47 175 21 vstem
            282 return
          </CharString>
          <CharString index="94">
            vvcurveto
            -14 -6 -101 -28 10 vhcurveto
            -11 3 -6 -18 12 -4 22 -8 return
          </CharString>
          <CharString index="95">
            hhcurveto
            14 6 10 13 -4 hvcurveto
            endchar
          </CharString>
          <CharString index="96">
            rmoveto
            20 -21 11 -19 -20 -20 -18 -21 3 vhcurveto
            -19 2 15 return
          </CharString>
          <CharString index="97">
            rmoveto
            -16 45 -142 -13 -32 2 return
          </CharString>
          <CharString index="98">
            hvcurveto
            -157 -5 rmoveto
            20 return
          </CharString>
          <CharString index="99">
            128 27 104 29 return
          </CharString>
          <CharString index="100">
            -290 55 58 27 return
          </CharString>
          <CharString index="101">
            47 49 9 37 41 hvcurveto
            34 34 28 56 2 54 rrcurveto
            return
          </CharString>
          <CharString index="102">
            78 438 34 30 28 hstem
            95 21 250 16 vstem
            return
          </CharString>
          <CharString index="103">
            -81 4 34 -8 callsubr
            hstem
            215 29 vstem
            return
          </CharString>
          <CharString index="104">
            14 9 13 -6 20 -13 29 -19 44 -8 28 -16 23 return
          </CharString>
          <CharString index="105">
            -4 7 26 -6 5 hhcurveto
            33 6 11 36 -2 hvcurveto
            return
          </CharString>
          <CharString index="106">
            83 -27 26 -8 rrcurveto
            -12 44 10 -9 46 hhcurveto
            46 return
          </CharString>
          <CharString index="107">
            vhcurveto
            -20 -4 22 -17 20 hhcurveto
            return
          </CharString>
          <CharString index="108">
            rmoveto
            -53 23 callgsubr
            return
          </CharString>
          <CharString index="109">
            -14 -10 0 -3 return
          </CharString>
          <CharString index="110">
            hvcurveto
            1 vlineto
            return
          </CharString>
          <CharString index="111">
            -38 callsubr
            9 callsubr
            return
          </CharString>
          <CharString index="112">
            31 65 27 7 2 callgsubr
            hstem
            52 31 return
          </CharString>
          <CharString index="113">
            24 28 15 63 18 97 14 10 41 3 24 return
          </CharString>
          <CharString index="114">
            -21 -18 -21 4 vhcurveto
            return
          </CharString>
          <CharString index="115">
            9 -9 36 hhcurveto
            37 return
          </CharString>
          <CharString index="116">
            65 0 49 21 26 return
          </CharString>
          <CharString index="117">
            -62 -40 -82 -54 -20 1 -27 20 -16 hvcurveto
            return
          </CharString>
          <CharString index="118">
            -15 -18 22 hstem
            118 67 vstem
            180 return
          </CharString>
          <CharString index="119">
            -29 -125 98 -8 hhcurveto
            -44 -102 -99 -31 return
          </CharString>
          <CharString index="120">
            -19 -18 -6 11 -18 18 return
          </CharString>
          <CharString index="121">
            173 20 vstem
            return
          </CharString>
          <CharString index="122">
            13 67 28 138 -21 133 27 return
          </CharString>
          <CharString index="123">
            13 -1 4 -8 16 -36 -2 -8 -27 return
          </CharString>
          <CharString index="124">
            45 78 23 81 33 77 18 104 26 return
          </CharString>
          <CharString index="125">
            20 20 hvcurveto
            -157 -4 rmoveto
            19 return
          </CharString>
          <CharString index="126">
            8 -7 7 -6 4 vhcurveto
            -1 hlineto
            return
          </CharString>
          <CharString index="127">
            -3 33 127 27 104 29 hstem
            return
          </CharString>
          <CharString index="128">
            -7 -105 -27 -26 28 callsubr
            -30 return
          </CharString>
          <CharString index="129">
            54 64 59 54 28 -33 32 -27 return
          </CharString>
          <CharString index="130">
            26 11 -1 36 -17 return
          </CharString>
          <CharString index="131">
            rmoveto
            -5 1 -13 return
          </CharString>
          <CharString index="132">
            rmoveto
            -52 19 -55 return
          </CharString>
          <CharString index="133">
            -74 hhcurveto
            -26 -18 return
          </CharString>
          <CharString index="134">
            33 hhcurveto
            23 42 return
          </CharString>
          <CharString index="135">
            rrcurveto
            -1 hlineto
            return
          </CharString>
        <CharString name=".notdef">
          785 endchar
        </CharString>
        <CharString name="A">
          404 -34 callsubr
          39 58 hstem
          18 48 103 19 344 19 171 21 vstem
          743 161 -107 callsubr
        </CharString>
        <CharString name="AE">
          694 -34 callsubr
          39 58 hstem
          18 48 103 19 344 19 171 21 -69 callgsubr
          -74 -39 99 61 76 47 68 54 49 hvcurveto
          -80 callsubr
          -20 -18 -20 -21 -17 -22 rrcurveto
          15 -18 27 5 21 vhcurveto
          -11 68 16 122 -18 61 rrcurveto
          4 -1 -5 6 -4 hhcurveto
          -6 -3 -4 -6 hvcurveto
          -71 -27 -66 -70 vvcurveto
          -19 0 -18 1 -19 vhcurveto
          -38 -13 -124 -70 -10 -38 rrcurveto
          -5 1 3 -4 6 hhcurveto
          2 2 1 3 3 hvcurveto
          43 43 55 20 61 11 3 -16 1 -130 5 -6 rrcurveto
          -93 29 -126 116 40 116 27 15 37 vhcurveto
          82 34 61 107 87 vvcurveto
          -468 439 rmoveto
          11 -9 10 -11 -4 -3 -1 -1 -3 vhcurveto
          -141 -69 -23 -101 -39 -137 -13 -47 6 -49 -15 -46 -13 -36 -13 -34 -11 -36 -9 -31 -17 -28 -26 -20 rrcurveto
          -8 -10 -16 -17 -13 hhcurveto
          -83 1 98 58 48 7 44 58 20 17 -25 -18 -21 -9 -24 -20 -10 hvcurveto
          -1 vlineto
          -6 -8 rlineto
          -3 3 -7 4 31 17 50 25 28 -28 35 -29 -26 -26 -1 -24 -16 vhcurveto
          -27 -40 -19 -23 -52 vvcurveto
          -46 16 -49 35 -30 vhcurveto
          14 -13 12 1 16 -5 rrcurveto
          -5 13 12 -8 14 hhcurveto
          17 41 0 11 14 hvcurveto
          56 42 -1 115 19 62 11 35 16 30 5 36 14 91 50 103 63 66 21 22 19 19 26 16 rrcurveto
          7 4 4 5 9 vvcurveto
          258 -239 -36 callgsubr
        </CharString>
        <CharString name="Aacute">
          -55 callsubr
          -49 callsubr
          598 800 rmoveto
          -4 1 -14 3 -12 -4 -49 -22 -55 -34 -53 -41 callgsubr
          11 -1 36 -17 6 rrcurveto
          145 -639 -107 callsubr
        </CharString>
        <CharString name="Acircumflex">
          -55 callsubr
          387 74 -49 callsubr
          670 715 rmoveto
          15 -29 -125 99 -8 hhcurveto
          -44 -102 -100 -30 -30 hvcurveto
          -25 -25 16 -13 28 20 23 19 49 15 55 35 17 12 17 -8 26 -17 37 -24 53 -10 35 -19 30 -16 7 31 -30 16 rrcurveto
          73 -554 -107 callsubr
        </CharString>
        <CharString name="Adieresis">
          -55 callsubr
          338 71 -49 callsubr
          599 746 -11 callsubr
          -13 26 callgsubr
          20 20 hvcurveto
          -157 -5 rmoveto
          21 -14 16 -19 -20 -16 -16 -21 -2 0 callsubr
          19 14 17 20 hvcurveto
          301 -580 -107 callsubr
        </CharString>
        <CharString name="Agrave">
          -55 callsubr
          -49 callsubr
          496 724 25 callsubr
          -43 callsubr
          247 -563 -107 callsubr
        </CharString>
        <CharString name="Aring">
          -55 callsubr
          319 33 hstem
          18 49 102 20 229 33 81 19 14 callsubr
          568 740 rmoveto
          64 -52 25 -46 -5 vhcurveto
          -3 -2 -1 -2 hhcurveto
          -3 -3 -1 -2 -3 hvcurveto
          -23 -14 -13 -18 -28 vvcurveto
          -58 69 -15 36 36 9 23 30 vhcurveto
          175 -579 -107 callgsubr
          13 116 rmoveto
          -6 0 -6 -3 -7 vhcurveto
          -1 -2 -1 -5 hhcurveto
          -39 -33 17 23 14 5 8 14 9 hvcurveto
          3 hlineto
          34 1 27 -15 -37 vvcurveto
          endchar
        </CharString>
        <CharString name="Atilde">
          -55 callsubr
          370 42 -40 callsubr
          28 26 119 20 vstem
          601 775 rmoveto
          -4 9 -18 6 -12 vvcurveto
          -34 3 -30 1 -32 hhcurveto
          -66 -35 42 -7 -90 hvcurveto
          -19 -2 -43 -42 -19 vvcurveto
          -20 33 -7 6 34 vhcurveto
          5 32 -1 callsubr
          54 34 41 -19 hvcurveto
          142 -614 -107 callsubr
        </CharString>
        <CharString name="B">
          285 -103 45 2 58 359 -20 232 53 111 19 hstem
          16 27 324 22 158 52 vstem
          618 456 rmoveto
          59 -54 39 -45 24 vhcurveto
          37 -74 -60 11 -80 hhcurveto
          -37 -3 4 59 18 52 48 1 rlinecurve
          17 10 -15 -17 1 hvcurveto
          -14 -15 -13 -11 -7 vhcurveto
          -10 -8 13 -15 10 8 rrcurveto
          14 12 21 14 22 vvcurveto
          28 1 -23 25 -28 hhcurveto
          -59 -30 -65 -71 -13 hvcurveto
          -29 -6 -27 -8 -28 -9 rrcurveto
          -56 -17 -98 -76 -74 vvcurveto
          -54 29 -38 56 vhcurveto
          13 8 6 14 hhcurveto
          -1 12 0 19 -12 -14 -8 -3 -13 hhcurveto
          -30 2 -24 42 27 vvcurveto
          -1 60 92 52 46 13 21 7 21 5 22 2 -3 -36 1 -34 4 -23 rrcurveto
          11 -70 6 -77 -69 vvcurveto
          -120 -31 -135 -88 -50 vhcurveto
          -4 -7 -5 -9 -6 hhcurveto
          -28 -18 16 24 -9 hvcurveto
          -7 16 -7 14 18 vvcurveto
          25 -3 26 6 20 vhcurveto
          3 12 -18 4 -3 -12 rrcurveto
          -7 -21 -6 -27 -27 vvcurveto
          -54 1 34 -79 63 hhcurveto
          10 20 -1 8 15 hvcurveto
          105 59 35 137 7 113 rrcurveto
          -10 7 15 -6 19 hhcurveto
          10 55 30 4 8 hvcurveto
          2 2 31 14 34 10 30 23 rlinecurve
          17 -16 12 -22 -23 vvcurveto
          2 -7 -2 -7 -1 -7 rrcurveto
          -50 -6 -37 -146 -77 hhcurveto
          -14 -17 19 15 9 -4 8 2 6 hvcurveto
          3 10 -2 9 2 8 4 11 -18 7 -5 -12 -2 -8 -9 -6 -3 -9 rrcurveto
          -3 -10 -7 -10 -13 vvcurveto
          -38 -2 40 -55 35 hhcurveto
          104 1 60 175 10 72 7 44 -20 47 -35 29 rrcurveto
          37 41 31 42 63 vvcurveto
          -54 2 rmoveto
          -53 -24 -37 -32 -33 vhcurveto
          2 -10 -11 2 -12 hhcurveto
          -52 -32 -7 -28 -43 hvcurveto
          -12 -9 -19 -14 -10 -18 rrcurveto
          1 vlineto
          71 -23 77 -11 71 vhcurveto
          -3 20 -3 33 -2 36 rrcurveto
          1 14 13 0 14 hhcurveto
          22 27 -2 -3 20 hvcurveto
          46 -7 145 -44 -2 -59 rrcurveto
          -90 -162 rmoveto
          -20 -19 -21 -17 -22 -11 -2 -1 rcurveline
          -7 -3 -44 -9 -6 4 28 callsubr
          1 14 12 10 8 6 rrcurveto
          21 35 26 5 41 hhcurveto
          endchar
        </CharString>
        <CharString name="C">
          150 -26 58 208 21 170 19 195 30 hstem
          20 58 201 26 105 19 vstem
          463 165 rmoveto
          -87 callgsubr
          -124 61 -227 181 -1 rrcurveto
          -6 callsubr
          endchar
        </CharString>
        <CharString name="Ccedilla">
          150 -301 34 117 25 100 31 255 -21 191 19 195 30 hstem
          32 37 112 22 93 19 37 47 11 18 -16 callgsubr
          8 37 rlineto
          -3 13 15 -2 15 hhcurveto
          -6 callsubr
          -87 callgsubr
          -108 45 -184 130 -48 -3 -21 -5 -17 -9 -20 -70 callgsubr
        </CharString>
        <CharString name="D">
          6 callgsubr
          133 -89 callgsubr
          rrcurveto
          13 -61 2 -61 -59 vvcurveto
          -58 -15 -58 -26 -46 vhcurveto
          -62 callgsubr
          -12 27 -2 21 29 vvcurveto
          19 2 22 4 15 vhcurveto
          8 35 45 95 42 -1 rrcurveto
          35 5 -61 -34 -10 hvcurveto
          -3 -13 18 -5 3 12 14 47 -15 78 -46 -1 rrcurveto
          -34 -28 -32 -29 -19 hvcurveto
          -29 -45 -17 -48 -54 vvcurveto
          -34 5 -23 11 -29 -59 callsubr
          -47 1 rmoveto
          -33 callgsubr
          24 52 14 63 58 vvcurveto
          59 -1 67 -15 67 vhcurveto
          -33 callsubr
          endchar
        </CharString>
        <CharString name="Delta">
          309 3 21 33 16 15 39 hstem
          1798 21 102 20 57 20 32 19 88 21 vstem
          164 237 rmoveto
          -23 -42 -73 -98 -30 -97 -2 -7 4 -5 7 -5 rrcurveto
          -14 49 132 25 55 hhcurveto
          40 3 40 0 39 -3 rrcurveto
          42 39 0 -1 39 hvcurveto
          160 -79 46 89 -44 hvcurveto
          -23 50 -12 56 -10 54 -7 55 -5 238 -44 42 -6 3 -3 2 -8 -4 -90 -46 -120 -204 -47 -95 rrcurveto
          -3 -3 -1 -5 -3 vvcurveto
          31 -50 rmoveto
          11 14 4 26 5 18 19 36 19 36 24 33 40 63 61 66 44 61 23 -65 4 -215 38 -121 rrcurveto
          9 -23 55 -95 -16 vvcurveto
          -92 -93 5 -4 -93 hvcurveto
          -1 -63 -64 -9 -62 hhcurveto
          25 67 35 50 35 61 4 10 rcurveline
          4 3 1 2 5 hvcurveto
          endchar
        </CharString>
        <CharString name="E">
          233 -67 58 111 19 155 33 9 5 callsubr
          57 26 166 19 65 17 9 43 vstem
          533 203 -106 callgsubr
        </CharString>
        <CharString name="Eacute">
          -50 callgsubr
          455 840 24 callsubr
          5 -13 -6 -49 -20 -55 -36 -30 callgsubr
          78 -637 -106 callgsubr
        </CharString>
        <CharString name="Ecircumflex">
          -48 callsubr
          99 2 callgsubr
          95 74 -54 callsubr
          506 760 rmoveto
          17 -29 -124 98 -8 hhcurveto
          -45 -102 -100 -30 -31 hvcurveto
          -24 -25 16 -13 27 21 25 18 48 14 56 36 17 12 16 -8 25 -17 37 -24 55 9 callgsubr
          6 32 -30 15 rrcurveto
          27 -557 -106 callgsubr
        </CharString>
        <CharString name="Edieresis">
          -48 callsubr
          99 2 callgsubr
          34 72 -54 callsubr
          467 781 rmoveto
          20 -21 11 -19 -20 7 callsubr
          -19 2 15 -14 20 -13 callgsubr
          -15 -17 -20 -2 vhcurveto
          -20 -4 13 callgsubr
          18 19 hvcurveto
          223 -573 -106 callgsubr
        </CharString>
        <CharString name="Egrave">
          -50 callgsubr
          371 775 1 callsubr
          -12 6 -14 -4 -4 -2 -17 -4 -1 -37 26 -12 49 -21 65 0 54 -19 17 -7 12 18 18 callgsubr
          162 -572 -106 callgsubr
        </CharString>
        <CharString name="Eth">
          6 callgsubr
          73 34 26 -89 callgsubr
          11 -51 3 -51 1 -49 rrcurveto
          -4 -4 1 -4 -90 callgsubr
          -3 12 15 -2 14 hhcurveto
          -1 -57 -15 -56 -25 -44 -62 callgsubr
          23 -38 20 15 -52 -59 callsubr
          -291 -107 -70 callsubr
          hhcurveto
          -2 -6 1 1 -6 hvcurveto
          -1 51 -3 56 -12 57 -33 callsubr
          -33 callgsubr
          23 50 14 62 1 56 rrcurveto
          6 5 -1 2 hhcurveto
          26 37 17 10 15 hvcurveto
          endchar
        </CharString>
        <CharString name="Euro">
          207 -46 58 180 58 -10 21 62 19 2 50 75 -21 82 27 61 47 -20 30 hstemhm
          20 58 -32 30 203 26 72 26 7 19 51 59 hintmask 1101111100111110
          493 165 rmoveto
          hintmask 1011111100111110
          -67 callgsubr
          -33 -35 -27 -25 rrcurveto
          -24 -25 -31 -7 -41 hhcurveto
          -110 -2 -63 134 -10 121 rrcurveto
          2 61 67 3 59 hhcurveto
          11 7 7 9 -5 hvcurveto
          -13 32 -125 -8 -29 1 rrcurveto
          -34 hlineto
          20 3 22 5 19 vhcurveto
          2 62 71 7 47 hhcurveto
          18 1 23 2 -17 hvcurveto
          5 1 -6 6 -12 hhcurveto
          -152 hlineto
          hintmask 1101111010111110
          90 33 82 116 99 hhcurveto
          30 25 -11 -21 16 hvcurveto
          15 -19 22 -23 -11 -18 -19 -32 68 -23 2 72 rrcurveto
          53 1 -93 52 -55 hhcurveto
          -116 -125 -129 -107 -38 hvcurveto
          -61 hlineto
          -15 -4 -15 -6 9 hvcurveto
          -5 -6 0 -7 14 -3 13 -4 18 -2 20 -1 rrcurveto
          -3 -23 -2 -21 -20 vvcurveto
          hintmask 1101111101011110
          -12 1 -10 1 -7 2 -12 4 -9 -9 1 -7 rrcurveto
          -3 -3 -1 -3 -5 vvcurveto
          -6 -6 4 -11 14 hhcurveto
          7 hlineto
          -5 8 12 -3 16 hhcurveto
          12 -127 66 -184 163 -1 rrcurveto
          47 50 9 37 40 hvcurveto
          35 34 28 56 1 54 rrcurveto
          endchar
        </CharString>
        <CharString name="F">
          305 -55 58 124 22 215 -21 140 29 44 -20 124 -20 hstem
          31 25 96 41 58 23 109 24 75 40 197 24 vstem
          743 589 rmoveto
          -2 57 -51 29 -43 -22 -11 -7 9 -17 11 6 rrcurveto
          29 16 34 -23 -39 vvcurveto
          -41 -1 -47 -36 -39 hhcurveto
          -44 -38 28 32 -36 hvcurveto
          1 42 2 29 25 33 7 11 -16 11 -8 -10 -22 -31 -14 -24 -4 -34 -25 25 -25 23 -27 14 rrcurveto
          19 -36 -60 18 -41 hhcurveto
          -64 -73 -28 -38 -43 hvcurveto
          -36 -32 -20 -60 -5 -46 -3 -43 12 -27 19 -32 rrcurveto
          -27 16 13 -23 36 hhcurveto
          71 -2 66 69 -1 67 rrcurveto
          38 -9 42 -54 vhcurveto
          -12 0 -20 12 hhcurveto
          36 8 -23 -38 hvcurveto
          -1 -55 -56 -54 -60 -1 rrcurveto
          -18 -9 10 14 -8 hvcurveto
          -58 90 20 40 79 69 rrcurveto
          29 32 60 23 49 hhcurveto
          30 51 -15 -16 30 hvcurveto
          37 -19 33 -24 33 -26 -1 -33 -3 -31 -2 -35 rrcurveto
          1 -3 -3 0 -4 hhcurveto
          2 -13 -7 1 -13 hhcurveto
          -30 -24 -22 -16 -21 hvcurveto
          -8 -9 11 -14 10 8 rrcurveto
          13 15 21 7 21 hhcurveto
          12 7 -1 -1 11 hvcurveto
          6 6 -1 -2 5 hvcurveto
          -1 -54 6 -45 -57 vvcurveto
          -26 -15 -21 -7 -23 vhcurveto
          -14 -52 -32 -38 -46 -45 rrcurveto
          -16 -15 -19 -27 -25 hhcurveto
          -19 -62 37 19 -8 hvcurveto
          -15 29 -12 34 36 vvcurveto
          44 21 53 22 33 vhcurveto
          7 9 3 9 6 6 rrcurveto
          28 20 23 14 35 hhcurveto
          34 19 -54 -31 hvcurveto
          -47 -1 -16 -73 -50 hhcurveto
          -32 -8 23 31 -2 hvcurveto
          25 22 33 23 8 7 -17 -5 2 vhcurveto
          6 -12 16 8 -5 11 rrcurveto
          16 -7 -6 20 -21 hhcurveto
          -32 -36 -43 -37 hvcurveto
          -43 -1 19 -32 48 hhcurveto
          62 26 84 58 40 -32 65 -43 -28 -18 -7 -20 -28 hvcurveto
          -48 -35 -56 -103 -50 vvcurveto
          -45 -3 -45 18 -35 vhcurveto
          -40 19 82 -49 41 hhcurveto
          36 22 17 23 24 hvcurveto
          56 58 48 43 22 81 rrcurveto
          7 26 -2 28 30 53 -7 41 48 vvcurveto
          1 hlineto
          72 -18 58 42 19 25 8 10 -20 5 -10 -8 -29 -26 -24 1 -18 -3 -18 -2 -20 5 -19 7 rrcurveto
          1 30 -1 28 28 vvcurveto
          -22 35 38 -12 44 hhcurveto
          52 59 51 55 hvcurveto
          endchar
        </CharString>
        <CharString name="G">
          216 -270 46 113 45 69 59 327 -21 129 31 68 33 hstem
          19 48 172 48 15 25 137 39 2 29 vstem
          503 208 rmoveto
          34 -21 62 -43 vhcurveto
          -8 -2 -7 -3 -4 -4 -28 -30 19 -85 10 -40 -22 -29 -34 -24 -30 -12 rrcurveto
          -9 -25 -21 -4 -30 hhcurveto
          -47 -28 3 21 -35 hvcurveto
          -53 34 -29 65 60 vvcurveto
          99 37 60 56 79 vhcurveto
          61 43 62 52 77 hhcurveto
          72 110 -18 -96 -23 hvcurveto
          -34 -138 -139 41 -1 55 rrcurveto
          39 66 44 14 -44 vhcurveto
          4 -12 19 6 -4 12 -9 28 -12 16 -26 -1 -26 -2 -34 -19 -10 -22 rrcurveto
          -5 -15 -3 -14 -16 vvcurveto
          -50 63 -23 46 1 vhcurveto
          133 2 84 262 -287 -1 rrcurveto
          -86 -74 -58 -70 -50 hvcurveto
          -62 -86 -51 -63 1 -109 rrcurveto
          -77 32 -86 69 -44 vhcurveto
          -30 48 41 -5 52 hhcurveto
          37 28 6 12 30 hvcurveto
          27 11 28 18 25 23 rrcurveto
          1 -17 1 -17 -18 vvcurveto
          -59 -10 -186 -106 -24 -10 21 23 32 17 37 33 18 -7 -27 -13 -3 vhcurveto
          -3 -11 18 -5 3 12 rrcurveto
          30 8 6 60 -42 hhcurveto
          -57 -1 -39 -57 -58 vvcurveto
          -21 3 -20 13 -18 vhcurveto
          -18 13 31 -12 22 hhcurveto
          17 10 3 8 16 hvcurveto
          91 46 13 133 102 vvcurveto
          16 0 9 -1 16 vhcurveto
          12 -2 13 -4 15 vhcurveto
          25 31 17 37 37 vvcurveto
          -40 3 rmoveto
          1 -9 -17 -10 -2 -8 -7 31 -3 30 7 23 2 1 rcurveline
          15 -6 4 -36 -16 vvcurveto
          endchar
        </CharString>
        <CharString name="H">
          305 -65 40 144 19 95 19 2 53 84 30 205 25 hstem
          16 19 17 29 5 19 50 19 87 50 222 29 vstem
          631 605 rmoveto
          12 2 -3 20 -13 -2 -96 -18 8 -163 -6 -71 -4 -43 rcurveline
          -25 -7 -28 -5 -26 -6 rrcurveto
          -2 -12 -11 -4 -13 hhcurveto
          1 -40 -32 0 -37 hhcurveto
          2 19 3 21 1 23 4 47 rcurveline
          3 43 -4 27 -7 44 rrcurveto
          39 -7 -61 81 -45 hhcurveto
          -15 -10 -8 -6 -13 hvcurveto
          -50 -20 -56 -60 -51 vvcurveto
          -48 9 -66 65 -1 vhcurveto
          28 23 10 25 11 hvcurveto
          3 7 -1 7 9 vvcurveto
          -1 18 -6 5 -10 13 -6 10 -16 -11 8 -10 rrcurveto
          8 -10 2 -3 -12 vvcurveto
          -1 -4 -6 -3 -2 -4 rrcurveto
          -14 -5 -13 -4 -15 hhcurveto
          -47 1 2 52 34 vvcurveto
          50 59 69 55 32 19 -76 -28 5 vhcurveto
          5 -40 -2 -25 3 -40 5 -47 rcurveline
          2 -24 0 -21 -21 vvcurveto
          -32 -7 -23 -20 -9 -38 -3 -13 19 -4 3 12 6 27 17 13 22 5 -2 -31 -5 -30 -6 -30 -15 -66 -22 -95 -62 -39 rrcurveto
          -5 -4 -8 -8 -8 hhcurveto
          -25 -34 23 18 -12 hvcurveto
          -16 27 -10 23 34 vvcurveto
          1 60 36 71 56 1 rrcurveto
          14 14 -16 -16 hvcurveto
          -28 -2 -17 -35 -18 hhcurveto
          -18 1 3 18 1 11 1 13 -19 1 -1 -12 rrcurveto
          -23 -1 1 -27 34 hhcurveto
          37 -1 19 56 -1 25 rrcurveto
          24 -19 28 -28 vhcurveto
          -74 1 -40 -90 2 -62 rrcurveto
          -38 10 -28 19 -31 vhcurveto
          -23 14 39 -45 33 hhcurveto
          11 9 1 4 8 hvcurveto
          91 41 15 113 19 86 7 34 6 32 4 34 rrcurveto
          -4 40 32 -23 42 hhcurveto
          26 3 30 6 30 9 25 12 rlinecurve
          -7 vlineto
          -83 -6 -196 66 -66 vhcurveto
          25 -25 37 37 -24 25 -14 13 -4 18 -6 20 rrcurveto
          -22 85 -18 73 99 vvcurveto
          28 vlineto
          26 16 21 23 17 30 6 11 -16 9 -7 -11 -10 -18 -16 -12 -19 -9 5 28 rcurveline
          3 53 -17 165 79 16 rrcurveto
          endchar
        </CharString>
        <CharString name="I">
          18 -58 31 89 25 168 23 220 -20 hstem
          34 19 43 25 9 23 33 23 51 24 vstem
          321 280 -104 callgsubr
        </CharString>
        <CharString name="Iacute">
          -28 callgsubr
          -48 callgsubr
          342 813 24 callsubr
          4 -13 -5 -49 -21 -55 -35 -52 -19 -18 -7 -38 callsubr
          64 0 50 21 26 12 -2 36 -16 5 rrcurveto
          -21 -533 -104 callgsubr
        </CharString>
        <CharString name="Icircumflex">
          -28 callgsubr
          489 74 -48 callgsubr
          418 727 rmoveto
          17 -29 -125 97 -8 hhcurveto
          -44 -102 -100 -30 20 callgsubr
          24 18 49 15 56 36 17 11 17 -8 24 -17 37 -23 55 9 callgsubr
          7 31 -30 16 rrcurveto
          -97 -447 -104 callgsubr
        </CharString>
        <CharString name="Idieresis">
          -28 callgsubr
          451 72 -48 callgsubr
          364 769 rmoveto
          19 -21 13 -19 -20 7 callsubr
          -21 2 15 -12 26 callgsubr
          18 callsubr
          -14 18 -19 -21 -15 -18 -19 -2 vhcurveto
          -20 -4 13 callgsubr
          17 20 hvcurveto
          114 -485 -104 callgsubr
        </CharString>
        <CharString name="Igrave">
          -28 callgsubr
          -48 callgsubr
          290 752 rmoveto
          -53 19 -54 -43 callsubr
          31 -472 -104 callgsubr
        </CharString>
        <CharString name="J">
          37 -55 46 94 31 204 22 276 25 hstem
          -2 23 47 20 87 25 67 20 93 18 vstem
          396 681 rmoveto
          11 -17 0 -12 vvcurveto
          -40 -30 2 -31 vhcurveto
          -2 4 -6 1 -4 -3 -2 -1 rcurveline
          -140 hlineto
          -28 -21 -1 -16 -23 hvcurveto
          -15 -10 -9 -10 -21 vvcurveto
          -12 7 -5 6 -10 vhcurveto
          5 -11 17 9 -6 11 rrcurveto
          -3 5 -6 7 7 vvcurveto
          -1 12 9 2 8 6 rrcurveto
          12 19 17 -1 24 hhcurveto
          35 33 -10 -7 33 hvcurveto
          -12 -16 -9 -21 -1 -22 -4 -114 15 -39 4 -108 rrcurveto
          -17 6 -11 -16 -24 3 -23 -23 vvcurveto
          -2 -54 -39 -56 -36 -34 rrcurveto
          -6 -7 -24 -25 -11 hhcurveto
          -71 -49 104 58 -7 hvcurveto
          63 -6 26 104 67 hhcurveto
          49 18 -70 -37 hvcurveto
          -47 -1 -9 -51 -50 hhcurveto
          -3 1 -2 3 -2 2 rrcurveto
          -11 9 -9 21 14 vvcurveto
          27 16 19 21 -3 vhcurveto
          15 -2 2 24 -14 1 rrcurveto
          -37 4 -34 -24 -45 vvcurveto
          -20 0 -12 12 -19 vhcurveto
          -16 12 12 -15 22 hhcurveto
          68 1 19 64 -2 65 rrcurveto
          46 -32 82 -62 -76 -40 -118 -74 9 vhcurveto
          -72 8 53 -133 88 hhcurveto
          24 21 14 16 16 hvcurveto
          14 14 40 40 23 75 1 62 rlinecurve
          23 11 23 25 16 -2 11 18 vvcurveto
          -4 106 -3 38 4 112 2 20 0 21 4 18 rrcurveto
          -1 5 4 0 4 hhcurveto
          34 20 22 20 20 hvcurveto
          12 12 -2 14 17 vvcurveto
          endchar
        </CharString>
        <CharString name="K">
          -69 26 105 21 45 23 7 21 193 19 106 -20 191 31 19 30 hstem
          18 19 88 19 51 38 282 25 89 19 vstem
          657 680 rmoveto
          -1 4 1 6 -1 6 rrcurveto
          32 -4 -20 19 -33 hhcurveto
          -142 -1 -19 -198 -37 -101 -7 -19 -19 -55 -23 -35 rrcurveto
          25 -10 -16 26 -27 hhcurveto
          -10 1 -9 -8 -6 -6 rrcurveto
          -11 -12 -19 -30 -16 vvcurveto
          -13 10 -41 25 vhcurveto
          13 6 4 17 hhcurveto
          11 11 5 9 11 hvcurveto
          8 -39 5 -44 7 -31 12 -48 10 -47 32 -41 rrcurveto
          -35 28 46 -46 49 hhcurveto
          30 17 13 16 15 hvcurveto
          12 14 7 19 8 16 rrcurveto
          10 19 2 15 21 vvcurveto
          1 46 -27 49 -45 -1 rrcurveto
          -41 -21 -29 -35 -29 23 -27 27 1 hvcurveto
          21 14 26 10 3 hvcurveto
          4 13 -18 5 -3 -12 rrcurveto
          -7 -3 -8 -13 -11 hhcurveto
          -14 1 -10 17 16 vvcurveto
          22 12 19 25 vhcurveto
          34 1 17 -37 1 -35 rrcurveto
          -19 -9 -11 -8 -15 vhcurveto
          -28 -14 -15 -23 -34 hhcurveto
          -40 -29 42 27 -21 hvcurveto
          -29 37 -21 37 -11 43 -10 40 -10 40 -12 43 19 21 17 27 8 16 49 90 19 104 53 89 18 29 13 44 38 -1 rrcurveto
          18 12 -9 -17 3 hvcurveto
          1 -2 3 -7 -2 vvcurveto
          1 -14 -7 -9 -6 -11 -7 -11 17 -10 7 11 rrcurveto
          7 16 10 9 19 vvcurveto
          -409 -266 rmoveto
          40 2 41 -2 40 vhcurveto
          60 -3 -19 104 -79 hhcurveto
          -62 -57 -95 -56 -23 15 -25 13 -15 hvcurveto
          25 -26 61 21 1 49 rrcurveto
          14 -4 10 -7 13 vhcurveto
          1 vlineto
          -5 11 -17 -9 5 -11 rrcurveto
          5 -9 5 -9 -11 vvcurveto
          -1 -28 -36 -13 -14 16 rrcurveto
          -9 10 -12 18 16 vvcurveto
          44 46 76 47 19 5 -26 -11 7 vhcurveto
          34 -59 -11 -93 -65 vvcurveto
          -71 -2 -43 -4 -70 vhcurveto
          -43 -2 -21 -230 -72 hhcurveto
          -40 -24 63 33 1 hvcurveto
          30 13 37 24 8 vhcurveto
          2 5 4 -2 6 hhcurveto
          28 -1 -1 -36 -10 -20 -5 -11 16 -8 6 11 rrcurveto
          32 17 -6 56 -46 hhcurveto
          -48 -1 -23 -57 1 -41 rrcurveto
          -42 1 31 -79 51 hhcurveto
          88 40 240 56 4 hvcurveto
          4 71 12 42 74 vvcurveto
          91 -94 rmoveto
          -8 -7 -8 -4 -8 -17 -6 -1 -13 hhcurveto
          -4 3 9 2 10 -5 10 5 10 hvcurveto
          6 3 11 16 7 hhcurveto
          9 1 9 -7 8 -13 4 -9 5 -10 3 -12 rrcurveto
          endchar
        </CharString>
        <CharString name="L">
          -42 callgsubr
          624 128 -97 callsubr
        </CharString>
        <CharString name="Lslash">
          -42 callgsubr
          372 265 -96 callgsubr
          252 -137 -97 callsubr
        </CharString>
        <CharString name="M">
          453 -102 35 22 28 82 19 74 27 10 27 439 33 hstem
          3 31 49 19 75 19 15 29 57 58 274 39 107 19 vstem
          795 67 rmoveto
          -1 26 -8 37 -14 23 rrcurveto
          13 -8 -18 18 -17 hhcurveto
          -29 1 -17 -26 -2 -21 -2 -15 20 -2 1 12 rrcurveto
          13 2 11 11 16 hhcurveto
          7 1 30 -38 3 -10 rrcurveto
          3 -7 4 -32 -4 vvcurveto
          -1 -22 -4 -15 -14 -14 rrcurveto
          -9 -8 -37 -24 -15 hhcurveto
          -5 -3 2 3 -4 hvcurveto
          -31 18 -18 52 -11 33 -17 51 -1 51 -8 61 -3 25 -6 20 -5 21 rrcurveto
          48 94 35 97 116 vvcurveto
          27 -4 38 -36 1 vhcurveto
          -30 -17 -23 -20 -9 hvcurveto
          -13 -28 -26 -106 -3 -28 -5 -34 -4 -35 2 -37 2 -25 3 -20 3 -20 -20 -34 -23 -34 -21 -38 -11 -19 -11 -16 -12 -16 -3 -7 -4 -5 -5 -7 -2 17 -5 16 -3 15 rrcurveto
          -13 70 -31 64 -25 66 9 52 7 52 -3 55 rrcurveto
          44 -3 -20 112 -64 hhcurveto
          -29 -28 -70 -24 -75 43 -62 32 -66 hvcurveto
          -6 -28 -7 -30 -5 -30 -15 -87 -22 -141 -42 -75 rrcurveto
          -35 -19 -20 -48 -47 hhcurveto
          -53 -16 39 58 60 16 49 37 41 hvcurveto
          9 9 4 6 14 hhcurveto
          25 38 -19 -28 -29 -28 -35 -24 -14 -9 6 11 11 13 13 13 3 hvcurveto
          12 1 -2 19 -13 -2 rrcurveto
          -20 -3 -22 -20 -22 vvcurveto
          -28 25 -8 17 39 32 48 36 23 -21 33 -16 7 vhcurveto
          6 -13 -16 4 -17 hhcurveto
          -18 -9 -4 -11 -11 hvcurveto
          -48 -48 -24 -62 -67 vvcurveto
          -78 28 -51 70 -1 vhcurveto
          1 vlineto
          -2 4 6 -1 4 hhcurveto
          35 57 67 29 16 hvcurveto
          45 82 40 138 17 92 14 -41 14 -42 9 -44 5 -29 16 -28 1 -30 1 -5 1 -5 3 -7 -14 -31 -7 -34 6 -30 2 -14 26 -6 9 10 20 21 1 33 -1 30 rrcurveto
          19 48 35 39 26 45 11 18 10 18 10 18 8 -62 16 -48 18 -54 rrcurveto
          -31 10 51 -90 51 hhcurveto
          21 43 36 12 12 hvcurveto
          18 19 5 19 26 vvcurveto
          -166 594 rmoveto
          2 -3 -4 -2 hvcurveto
          3 -9 -3 -9 -9 vvcurveto
          1 -13 -2 0 -1 -15 -7 -80 -19 -63 -27 -59 28 callsubr
          -2 29 -1 28 4 28 rrcurveto
          22 4 11 156 41 hhcurveto
          -331 -117 rmoveto
          1 -25 -1 -23 -2 -22 rrcurveto
          -28 44 -27 45 47 vvcurveto
          13 12 41 16 28 0 -105 -15 1 vhcurveto
          endchar
        </CharString>
        <CharString name="N">
          375 -88 35 253 31 153 -20 122 19 166 30 hstem
          0 32 133 19 36 50 210 45 64 25 48 31 vstem
          693 103 rmoveto
          38 -10 92 -54 -1 vhcurveto
          -26 -12 -23 -20 -9 hvcurveto
          -9 -19 -7 -12 -22 vvcurveto
          -20 22 -45 25 vhcurveto
          27 -2 -4 44 -18 -18 -5 -7 rcurveline
          -17 -7 35 13 hvcurveto
          1 7 1 7 3 7 rrcurveto
          14 5 10 29 19 hhcurveto
          40 -5 -70 -27 -57 -22 -101 -68 1 hvcurveto
          -52 4 172 23 hvcurveto
          1 91 12 86 28 81 22 65 25 42 1 72 rrcurveto
          50 -24 73 -61 -91 -63 -86 -67 -47 vhcurveto
          -19 -28 -20 -29 -19 -31 rrcurveto
          -1 13 -2 12 12 vvcurveto
          -4 65 -30 148 -90 1 rrcurveto
          -75 -62 -86 -91 -5 hvcurveto
          -3 -84 21 -32 26 -35 rrcurveto
          -16 11 21 -5 24 hhcurveto
          47 36 39 47 35 -29 34 -43 -16 hvcurveto
          -11 -6 7 -19 12 6 rrcurveto
          24 10 21 -18 -26 vvcurveto
          -36 -29 -28 -36 -15 -12 6 9 -7 vhcurveto
          -23 31 -9 62 42 vvcurveto
          57 47 92 61 98 -22 -241 -76 -2 vhcurveto
          1 hlineto
          -19 -36 -15 -35 -14 -37 -29 -83 -25 -27 10 -91 2 -7 0 -7 1 -9 6 -38 21 -46 51 28 31 16 14 38 7 28 rrcurveto
          23 99 -7 100 98 vvcurveto
          15 vlineto
          30 51 32 50 32 47 rrcurveto
          52 39 45 99 77 hhcurveto
          10 8 -2 -5 9 hvcurveto
          22 -11 12 -52 -24 vvcurveto
          -64 -33 -46 -21 -58 vhcurveto
          -30 -84 -24 -89 -95 vvcurveto
          -51 7 -178 84 84 35 119 72 1 vhcurveto
          -477 145 rmoveto
          -1 -86 21 callsubr
          72 40 68 24 70 rrcurveto
          endchar
        </CharString>
        <CharString name="Ntilde">
          375 -111 36 254 30 130 23 102 19 167 30 41 52 5 34 hstem
          1 33 132 19 36 50 186 69 64 25 48 31 vstem
          694 81 rmoveto
          38 -11 92 -54 -2 vhcurveto
          -26 -12 -22 -20 -9 hvcurveto
          -9 -19 -7 -12 -23 vvcurveto
          -19 22 -46 25 vhcurveto
          27 -1 -4 44 -18 -18 -5 -7 rcurveline
          -16 1 -7 35 12 vvcurveto
          7 1 7 3 6 vhcurveto
          15 6 10 29 19 hhcurveto
          39 1 -5 -70 -27 vvcurveto
          -57 -22 -100 -68 -51 4 170 24 90 12 87 28 80 vhcurveto
          23 65 26 43 72 vvcurveto
          50 -25 73 -61 vhcurveto
          -91 1 -64 -86 -46 -68 -20 -29 -19 -29 -19 -30 rrcurveto
          12 -1 13 -1 12 vhcurveto
          66 -4 -31 149 -90 hhcurveto
          -75 -64 -87 -91 -3 hvcurveto
          -3 -84 23 -33 25 -34 rrcurveto
          -16 11 20 -6 24 hhcurveto
          47 35 40 47 1 hvcurveto
          34 -28 35 -43 -17 vhcurveto
          -12 -4 7 -18 12 4 rrcurveto
          26 10 20 -19 -25 vvcurveto
          -36 -1 -29 -28 -36 hhcurveto
          -14 -12 5 9 -7 hvcurveto
          -23 32 -9 61 43 vvcurveto
          57 -1 47 92 61 hhcurveto
          98 -22 -241 -76 -2 hvcurveto
          1 hlineto
          -18 -35 -15 -36 -14 -37 -29 -83 -25 -26 11 -91 2 -24 rcurveline
          7 -39 20 -47 51 29 30 17 14 39 7 28 rrcurveto
          24 98 -6 99 99 vvcurveto
          14 vlineto
          29 52 32 49 33 47 rrcurveto
          54 37 45 99 77 hhcurveto
          11 -2 8 -2 9 -4 rrcurveto
          21 -10 12 -52 -24 vvcurveto
          -65 -33 -46 -21 -59 vhcurveto
          -30 -84 -49 -99 -95 vvcurveto
          -52 32 -167 84 86 35 120 72 vhcurveto
          -149 765 rmoveto
          -3 9 -16 4 2 -11 rrcurveto
          -34 2 -25 1 -26 hhcurveto
          -52 -28 43 -8 -72 hvcurveto
          -15 -1 -34 -43 -19 vvcurveto
          -20 26 -7 4 34 -15 callgsubr
          35 9 -9 35 hhcurveto
          37 44 33 42 -15 hvcurveto
          -329 -621 rmoveto
          -1 -85 21 callsubr
          73 37 70 27 68 rrcurveto
          endchar
        </CharString>
        <CharString name="O">
          -12 51 262 34 110 28 52 34 87 34 hstem
          12 51 152 31 148 32 142 42 vstem
          609 318 -106 callsubr
        </CharString>
        <CharString name="OE">
          708 -58 callsubr
          hstem
          12 50 152 32 44 19 84 31 95 290 -69 callgsubr
          -63 -37 71 59 -10 hvcurveto
          33 51 20 63 3 64 13 16 14 15 15 14 rrcurveto
          -80 callsubr
          -9 -8 -8 -9 -9 -7 rrcurveto
          119 -10 -92 98 -125 hhcurveto
          -86 -81 -93 -83 -54 41 -28 51 22 callsubr
          -26 -48 -46 -27 -10 6 -15 12 4 3 4 4 hvcurveto
          7 -6 4 8 vvcurveto
          15 40 27 15 13 16 -17 -14 -40 -48 -39 -39 -30 -30 14 34 69 62 73 72 112 75 -99 -107 -10 0 -10 -1 -10 vhcurveto
          -28 -40 -19 -47 -50 vvcurveto
          -3 vlineto
          -66 -42 -69 -45 -91 hhcurveto
          -146 -109 129 142 139 103 198 158 -55 callgsubr
          16 -12 8 17 -10 10 -19 19 -13 24 -23 15 rrcurveto
          26 -39 -51 11 -47 -30 callsubr
          -178 124 -143 182 86 71 38 57 49 vhcurveto
          -76 14 38 -74 88 hhcurveto
          40 116 27 15 37 hvcurveto
          82 34 61 107 87 vvcurveto
          -210 200 -36 callgsubr
        </CharString>
        <CharString name="Oacute">
          -37 callsubr
          465 803 24 callsubr
          4 -12 -5 -50 -21 -55 -35 -30 callgsubr
          144 -485 -106 callsubr
        </CharString>
        <CharString name="Ocircumflex">
          -58 callsubr
          91 73 -53 callgsubr
          491 730 rmoveto
          17 -30 -125 97 -8 hhcurveto
          -44 -103 -98 -31 -30 hvcurveto
          -24 -24 15 -15 28 22 24 18 49 14 55 36 18 11 16 -8 25 -16 37 -24 55 -10 34 -19 30 -17 7 32 -29 15 rrcurveto
          118 -412 -106 callsubr
        </CharString>
        <CharString name="Odieresis">
          -58 callsubr
          22 72 -53 callgsubr
          430 743 rmoveto
          20 -20 11 -20 -20 7 callsubr
          -20 3 14 -13 20 hhcurveto
          20 20 20 21 -9 callsubr
          -13 17 -20 -20 -15 -18 -19 -3 0 callsubr
          20 13 17 20 hvcurveto
          336 -420 -106 callsubr
        </CharString>
        <CharString name="Ograve">
          -37 callsubr
          435 738 1 callsubr
          -13 6 -13 -5 -4 -1 -17 -5 -1 -36 25 -12 50 -21 65 0 53 -19 18 -7 11 18 -17 7 rrcurveto
          174 -420 -106 callsubr
        </CharString>
        <CharString name="Omega">
          460 8 30 hstem
          43 -1 rmoveto
          63 -8 63 27 61 -1 rrcurveto
          23 -9 -9 33 hhcurveto
          97 -195 153 31 -11 hvcurveto
          -21 67 -8 59 10 70 12 68 7 59 44 54 36 41 50 25 21 6 285 71 68 -372 -78 -219 -12 -31 -21 -31 -30 -18 -19 -11 -27 -1 -20 -4 rrcurveto
          -1 -1 -3 hlineto
          -12 -4 -2 -17 13 -4 rrcurveto
          -2 vlineto
          1 2 56 -21 175 -44 46 32 rlinecurve
          28 22 -9 20 17 19 7 14 -16 15 -12 -13 -13 -14 -27 -13 -9 -4 -57 -21 -60 -6 -70 23 13 1 10 6 9 5 141 103 45 314 -107 139 -50 66 -61 5 -77 25 rrcurveto
          -27 9 -33 -3 -28 -4 -274 -36 -85 -464 269 -136 rrcurveto
          -69 -78 5 -67 hhcurveto
          -2 -15 -53 -16 50 -13 rrcurveto
          endchar
        </CharString>
        <CharString name="Oslash">
          31 44 65 41 210 27 111 -20 61 27 71 26 hstem
          62 40 121 25 119 25 114 34 vstem
          609 318 rmoveto
          130 -95 111 -133 vhcurveto
          -9 hlineto
          30 72 36 -14 34 -21 28 -26 rlinecurve
          1 hlineto
          16 -12 8 17 -10 10 -19 19 -13 24 -23 15 -13 9 -15 7 -15 5 20 47 18 46 12 45 7 21 -33 9 -5 -21 -14 -45 -18 -46 -20 -47 rrcurveto
          5 -20 -21 2 -20 -30 callsubr
          -115 52 -101 87 -57 vhcurveto
          -12 -40 -12 -41 -11 -40 -13 -47 -11 -26 -11 -49 -5 -21 33 -8 5 22 11 47 11 26 12 47 10 38 11 37 11 38 rrcurveto
          -20 41 47 -11 50 hhcurveto
          180 111 164 166 hvcurveto
          -42 1 rmoveto
          -145 -93 -136 -157 -44 -41 12 21 -35 vhcurveto
          25 78 27 78 28 78 rrcurveto
          -3 9 10 -1 10 hhcurveto
          22 callsubr
          -8 -10 -5 -6 -11 hvcurveto
          19 50 4 10 rlineto
          1 7 7 1 8 hhcurveto
          112 75 -99 -107 hvcurveto
          -196 322 rmoveto
          -14 -32 -13 -30 -12 -30 rrcurveto
          -65 -26 -53 -73 -67 vvcurveto
          -29 12 -22 20 -14 vhcurveto
          -28 -76 -25 -75 -25 -77 rrcurveto
          -66 50 -40 82 87 vvcurveto
          139 103 198 158 16 16 -2 -3 16 vhcurveto
          22 -227 rmoveto
          -40 -48 -39 -39 -6 -5 0 1 -6 vhcurveto
          15 41 rlineto
          -1 1 2 0 1 hhcurveto
          4 3 4 4 5 -3 3 -2 4 hvcurveto
          9 24 rlineto
          12 14 21 13 10 hhcurveto
          13 16 -17 -14 hvcurveto
          -77 91 rmoveto
          -57 -153 rlineto
          -8 8 -5 10 13 vvcurveto
          47 28 48 42 27 vhcurveto
          endchar
        </CharString>
        <CharString name="Otilde">
          -12 50 407 29 51 34 87 34 65 41 -46 callsubr
          16 26 101 42 vstem
          463 782 rmoveto
          -5 9 -18 5 1 -11 rrcurveto
          -35 3 -31 2 -32 hhcurveto
          -66 -35 42 -8 -90 hvcurveto
          -19 -1 -42 -42 -19 vvcurveto
          -21 32 -6 6 33 vhcurveto
          5 33 -1 callsubr
          55 33 42 -19 hvcurveto
          146 -464 -106 callsubr
        </CharString>
        <CharString name="P">
          -60 callsubr
          -124 -202 -158 -140 15 hvcurveto
          -22 callgsubr
          -8 -15 -15 -10 -14 2 -1 8 -6 16 2 8 13 47 33 46 44 37 rrcurveto
          -1 -15 -1 -15 -15 vvcurveto
          -2 -59 -2 -51 10 -49 rrcurveto
          16 -81 -1 -85 -82 vvcurveto
          -8 -47 -4 -47 -17 -45 -74 callsubr
          40 2 23 -2 41 vhcurveto
          -3 56 -21 47 -8 50 -9 49 -17 47 -1 56 rrcurveto
          22 1 20 4 20 vhcurveto
          42 56 66 27 56 -26 callsubr
          -6 -3 -1 -5 vhcurveto
          -43 -32 26 44 -2 hvcurveto
          20 23 22 21 -3 vhcurveto
          15 1 19 1 -13 hvcurveto
          -32 3 -36 -31 1 -31 rrcurveto
          -14 7 -12 3 -13 vhcurveto
          -35 9 46 -39 34 5 callgsubr
          endchar
        </CharString>
        <CharString name="Q">
          277 -318 58 196 28 169 19 294 27 13 19 64 28 59 28 hstem
          2 58 87 19 113 25 52 19 84 27 104 36 vstem
          626 -177 rmoveto
          61 -42 80 -65 -36 -26 -51 -27 1 vhcurveto
          1 -34 38 -14 -15 38 rrcurveto
          20 -8 22 40 23 hhcurveto
          49 22 -67 -46 -26 -12 -12 -15 -21 hvcurveto
          -20 -13 -25 -4 -24 hhcurveto
          -113 -18 148 94 -8 hvcurveto
          142 19 86 140 141 vvcurveto
          88 -57 98 -82 29 vhcurveto
          10 18 5 21 21 vvcurveto
          81 -64 45 -78 vhcurveto
          -186 1 -136 -234 -163 vvcurveto
          -101 42 -82 70 -59 vhcurveto
          52 -44 68 -18 72 -3 4 -63 8 -65 24 -58 rrcurveto
          -67 26 63 -45 70 hhcurveto
          41 34 22 34 23 hvcurveto
          20 29 7 21 35 vvcurveto
          -87 459 rmoveto
          -114 -67 -115 -115 -17 vhcurveto
          -2 18 -3 20 -1 20 -3 30 -8 32 -6 29 rrcurveto
          63 -14 -36 43 -66 hhcurveto
          -35 -36 -47 -33 -31 2 -47 43 35 9 44 26 -5 hvcurveto
          -1 hlineto
          -3 12 -20 -4 4 -13 rrcurveto
          -24 5 -10 -22 -14 hhcurveto
          -28 2 41 18 25 31 36 21 84 -5 -125 -56 4 hvcurveto
          1 -19 0 -19 -17 vvcurveto
          -57 3 -52 16 -42 35 rrcurveto
          -57 48 -34 66 82 vvcurveto
          86 11 78 43 70 vhcurveto
          44 69 75 65 91 1 rrcurveto
          62 53 -32 -66 -19 -6 -19 -9 -15 hvcurveto
          1 -8 -9 0 -9 -17 -7 -18 25 hhcurveto
          -1 3 3 0 4 hhcurveto
          -9 -11 -13 -4 -13 hhcurveto
          -34 -34 29 31 18 13 18 17 hvcurveto
          11 -1 11 -5 -12 vvcurveto
          -1 -12 19 0 12 vvcurveto
          1 15 0 13 -11 8 rrcurveto
          5 -9 -15 4 -5 hhcurveto
          -31 1 -25 -31 -32 vvcurveto
          -46 46 -42 47 28 21 12 18 16 vhcurveto
          21 -13 17 -21 18 -18 rrcurveto
          36 -36 10 -48 -58 vvcurveto
          endchar
        </CharString>
        <CharString name="R">
          245 -72 28 9 43 106 19 104 36 146 -21 296 51 hstem
          -9 19 20 19 126 25 vstem
          572 110 rmoveto
          39 -23 30 -17 24 vhcurveto
          20 -15 -14 21 -29 hhcurveto
          -6 1 -5 -2 -5 -2 rrcurveto
          -2 -11 0 -18 12 hhcurveto
          1 1 3 0 2 1 rrcurveto
          1 7 3 1 hhcurveto
          9 6 -3 -6 7 hvcurveto
          30 -29 8 -39 -40 vvcurveto
          -40 -8 -61 -38 -46 -41 45 41 -12 vhcurveto
          -18 57 -14 51 -11 54 42 23 39 37 24 35 27 35 25 45 11 48 rrcurveto
          6 22 6 23 23 vvcurveto
          140 -127 69 -141 -12 vhcurveto
          -50 -5 -24 -22 -42 -25 -32 -19 -29 -23 -24 -31 rrcurveto
          -38 -49 -29 -46 -64 vvcurveto
          -23 -3 -42 33 1 vhcurveto
          34 2 31 50 1 31 rrcurveto
          1 hlineto
          13 -19 1 -13 vvcurveto
          -1 -23 -22 -40 -25 1 rrcurveto
          -13 2 33 9 60 38 38 34 43 hvcurveto
          20 26 36 13 28 16 rrcurveto
          116 70 186 -18 -161 vvcurveto
          1 -5 -1 -9 -2 -11 -10 -48 -11 -60 -30 -39 -19 -26 -28 -31 -29 -21 -8 41 rcurveline
          -2 13 -7 5 -4 15 rrcurveto
          13 -6 -10 15 -19 hhcurveto
          -28 1 -24 -38 -5 -23 -4 -18 2 -14 3 -16 rrcurveto
          -14 4 29 -40 18 hhcurveto
          13 12 3 4 13 hvcurveto
          8 -55 6 -51 17 -57 rrcurveto
          -57 17 60 -59 64 hhcurveto
          57 28 84 61 hvcurveto
          -350 469 rmoveto
          6 11 -15 11 -7 -10 -38 -57 -29 -46 7 -70 2 -28 0 -38 1 -32 1 -27 6 -20 1 -23 rrcurveto
          3 -50 17 -25 -50 vvcurveto
          -28 -1 -20 -1 -23 vhcurveto
          -42 -4 -27 -57 -44 hhcurveto
          -13 1 -24 14 -5 6 rrcurveto
          -6 11 -4 17 13 vvcurveto
          23 11 72 34 1 vhcurveto
          19 18 -74 -9 -27 hvcurveto
          -2 -2 2 2 -4 hvcurveto
          -17 2 -1 -20 20 -6 rrcurveto
          -13 47 -12 135 -37 hhcurveto
          -50 1 -16 -79 -36 vvcurveto
          -16 3 -22 9 -15 vhcurveto
          -10 8 32 -27 19 hhcurveto
          58 39 71 55 3 hvcurveto
          2 23 9 20 28 vvcurveto
          50 1 28 -4 49 vhcurveto
          -3 57 4 57 -4 57 -6 61 -10 47 33 48 rrcurveto
          89 -299 rmoveto
          -4 -11 -11 -3 -11 hhcurveto
          -18 -17 44 17 3 hvcurveto
          22 6 19 25 11 hhcurveto
          22 -4 -35 -12 2 hvcurveto
          4 -19 2 -18 2 -17 rrcurveto
          endchar
        </CharString>
        <CharString name="RS">
          -335 endchar
        </CharString>
        <CharString name="S">
          245 -74 -5 callgsubr
          20 -14 callgsubr
          552 162 -98 callsubr
          endchar
        </CharString>
        <CharString name="Scaron">
          245 -114 -5 callgsubr
          -4 -14 callgsubr
          528 122 -98 callsubr
          -190 281 -83 callsubr
        </CharString>
        <CharString name="T">
          158 -30 50 129 25 214 40 168 19 41 28 40 19 hstem
          -29 30 166 19 16 26 70 21 62 58 252 34 vstem
          725 656 rmoveto
          57 -66 30 -52 vhcurveto
          -2 -12 0 -19 12 hhcurveto
          38 2 46 -25 -42 vvcurveto
          -30 -21 -23 -29 -4 vhcurveto
          -1 -9 -6 6 -10 hhcurveto
          -53 -49 20 8 -51 hvcurveto
          -16 2 -14 3 -12 6 -12 6 -11 4 -12 5 9 19 16 12 21 4 13 3 -4 19 -12 -3 -29 -5 -20 -17 -13 -25 rrcurveto
          17 -51 -46 6 -65 -26 -18 -6 -24 hhcurveto
          -78 1 -86 -71 -1 -87 rrcurveto
          -40 20 -98 55 26 27 14 12 15 vhcurveto
          33 26 40 79 -1 43 rrcurveto
          24 -7 27 -30 1 vhcurveto
          -27 -27 -29 -17 -10 hvcurveto
          -6 -11 16 -10 7 11 rrcurveto
          15 9 22 22 16 hhcurveto
          17 1 0 -21 -13 vvcurveto
          -39 1 -72 -95 -47 hhcurveto
          -37 -10 72 26 hvcurveto
          -1 71 72 57 64 1 rrcurveto
          24 18 6 26 hhcurveto
          54 -1 43 -19 53 -19 1 -2 rcurveline
          -5 -38 -6 -42 -27 -118 36 -97 -114 vvcurveto
          -59 -16 -63 -31 -26 vhcurveto
          -8 -10 -12 -8 -12 hhcurveto
          -36 1 -36 45 35 vvcurveto
          20 16 28 23 17 14 -12 -17 vhcurveto
          1 -20 -13 -5 -17 4 -13 3 -4 -19 12 -3 31 -7 23 9 1 38 rrcurveto
          28 -20 26 -31 -37 -29 -40 -34 -53 43 -76 56 vhcurveto
          110 -1 28 124 89 vvcurveto
          115 -36 163 -20 72 vhcurveto
          -6 21 -2 28 2 31 25 -13 24 -14 29 -5 rrcurveto
          -8 55 52 -9 55 hhcurveto
          10 7 7 1 11 hvcurveto
          45 6 35 34 44 vvcurveto
          endchar
        </CharString>
        <CharString name="Thorn">
          -60 callsubr
          -52 -66 -28 -42 -57 hvcurveto
          -8 91 -7 74 2 24 -6 11 -19 -2 -2 -11 -4 -25 5 -85 7 -104 -65 -57 -47 -74 8 -70 -22 callgsubr
          rrcurveto
          -8 -15 -3 7 -14 2 -1 8 -7 8 2 8 12 45 21 36 41 35 3 -42 rcurveline
          -2 -58 -2 -51 10 -48 2 -10 2 -11 1 -10 5 -95 3 -89 -3 -60 -5 -38 -6 -38 -13 -36 -74 callsubr
          36 1 22 -1 34 vhcurveto
          -24 39 66 -20 24 5 callgsubr
          -392 -81 rmoveto
          -5 77 -6 78 -6 70 rrcurveto
          40 54 64 25 54 -26 callsubr
          -5 -3 -1 -5 vhcurveto
          -32 -68 15 25 -31 hvcurveto
          -7 42 -14 38 -7 39 rrcurveto
          endchar
        </CharString>
        <CharString name="U">
          225 -28 50 643 -20 -19 callgsubr
          42 188 -104 callsubr
          endchar
        </CharString>
        <CharString name="US">
          -335 endchar
        </CharString>
        <CharString name="Uacute">
          -95 callgsubr
          -39 282 24 callsubr
          3 -13 -4 -49 -21 -55 -35 -12 callgsubr
          11 -2 36 -16 6 rrcurveto
          endchar
        </CharString>
        <CharString name="Ucircumflex">
          -41 callsubr
          129 74 -19 callgsubr
          41 189 -105 callsubr
          -166 844 rmoveto
          17 12 callsubr
          20 callgsubr
          25 18 49 14 55 36 17 11 17 -7 26 -17 37 -24 53 9 callgsubr
          7 32 -30 15 rrcurveto
          29 -222 -84 callsubr
          endchar
        </CharString>
        <CharString name="Udieresis">
          -41 callsubr
          40 72 -102 callsubr
          -71 215 -11 callsubr
          -14 26 callgsubr
          22 19 hvcurveto
          -156 -5 rmoveto
          20 -15 17 -19 -20 -15 -17 -20 -3 0 callsubr
          19 15 18 19 hvcurveto
          endchar
        </CharString>
        <CharString name="Ugrave">
          -95 callgsubr
          -126 193 rmoveto
          -52 23 callgsubr
          -13 24 callgsubr
          -16 -5 -2 -36 26 -11 50 -22 64 0 54 -19 1 callgsubr
          endchar
        </CharString>
        <CharString name="V">
          189 -38 38 335 -21 345 -21 hstem
          10 20 128 19 129 28 57 26 vstem
          772 617 rmoveto
          15 -12 -18 20 -22 hhcurveto
          -23 -1 -22 -3 -21 -12 -103 -58 -73 -121 -60 -101 -7 -9 -7 -11 -6 -12 -21 92 -41 82 -80 84 -19 22 -25 15 -24 17 rrcurveto
          18 -24 -31 5 -34 hhcurveto
          -56 -2 -24 -58 -8 -55 -5 -43 9 -65 26 -61 rrcurveto
          -21 9 38 -42 32 hhcurveto
          32 2 25 34 32 vvcurveto
          -1 38 -25 27 -35 13 -12 5 -7 -18 13 -5 30 -11 19 -20 -1 -30 rrcurveto
          -21 -17 -23 -21 vhcurveto
          -23 -1 -28 36 -6 14 -25 57 -13 69 5 35 6 43 18 45 43 1 rrcurveto
          28 19 -15 -14 21 hvcurveto
          20 -15 13 -28 17 -18 87 -92 52 -73 22 -97 rrcurveto
          -36 -74 -34 -89 -62 -13 2 -7 -13 vvcurveto
          -18 -1 28 -44 25 hhcurveto
          58 -1 114 38 64 -4 58 -9 55 hvcurveto
          55 107 81 107 79 61 29 22 43 35 39 -1 rrcurveto
          15 4 -8 -10 8 hvcurveto
          8 -9 15 12 -8 10 rrcurveto
          -381 -469 rmoveto
          -18 -1 -56 -4 -28 vhcurveto
          -18 -2 -12 -28 -11 hhcurveto
          -9 -15 17 7 hvcurveto
          -1 13 -3 7 13 vvcurveto
          1 27 6 30 8 33 8 31 12 34 16 34 rrcurveto
          5 -30 2 -32 -36 vvcurveto
          endchar
        </CharString>
        <CharString name="W">
          505 -82 23 16 44 230 29 215 19 64 -21 57 19 32 28 hstem
          12 28 84 19 373 19 vstem
          821 279 rmoveto
          92 -39 185 -103 1 vhcurveto
          -24 -17 -22 -9 -4 hvcurveto
          -6 -15 22 -9 6 14 rrcurveto
          7 3 10 11 9 hhcurveto
          89 -1 27 -175 -79 vvcurveto
          -82 -1 -7 -196 -108 hhcurveto
          -79 -56 136 63 -26 hvcurveto
          -3 12 -4 10 -4 10 16 74 8 77 1 68 rrcurveto
          25 2 18 1 23 vhcurveto
          23 -2 73 -36 -16 -8 -15 -12 -6 vhcurveto
          -20 -47 -15 -47 -52 vvcurveto
          -79 13 -80 26 -75 vhcurveto
          -18 -63 -23 -59 -27 -48 rrcurveto
          -26 -14 -32 -69 -33 hhcurveto
          -45 -9 89 30 hvcurveto
          -1 81 36 113 6 80 rrcurveto
          4 48 12 37 55 vvcurveto
          67 -53 132 -83 -116 -61 -141 -93 -1 vhcurveto
          -65 35 -142 83 -1 vhcurveto
          18 33 21 12 14 hvcurveto
          30 28 7 34 -1 42 rrcurveto
          39 -19 87 -53 -28 -8 -31 -21 vhcurveto
          1 -29 16 -22 25 -14 11 -5 9 17 -11 5 rrcurveto
          -21 11 -11 16 20 vvcurveto
          23 1 8 11 9 hhcurveto
          37 14 -81 -27 hvcurveto
          1 -33 -13 -25 -24 -22 rrcurveto
          -8 -9 -23 -19 -12 hhcurveto
          -69 -1 -22 125 54 vvcurveto
          91 -1 60 116 91 hhcurveto
          65 13 -119 -53 -53 -13 -35 -3 -46 hvcurveto
          -6 -67 6 -111 -6 -65 rrcurveto
          -1 -14 -1 -8 -14 vvcurveto
          -36 23 -106 56 40 53 70 31 17 vhcurveto
          23 40 19 49 14 51 rrcurveto
          -81 35 67 -121 88 hhcurveto
          129 12 223 99 1 hvcurveto
          -306 240 rmoveto
          1 -24 -3 -18 -1 -26 -1 -53 -9 -60 -13 -58 -11 36 -9 37 -3 45 rrcurveto
          -1 16 -2 10 17 vvcurveto
          48 1 39 16 43 vhcurveto
          6 3 6 17 7 hhcurveto
          16 3 -66 -9 hvcurveto
          endchar
        </CharString>
        <CharString name="X">
          395 -17 38 95 28 39 19 125 26 82 31 259 -21 hstem
          24 30 27 28 59 28 8 19 439 25 52 19 vstem
          758 124 rmoveto
          20 -9 58 -31 -31 -25 -15 -37 -9 3 -8 4 -6 vhcurveto
          13 -28 21 13 -7 13 rrcurveto
          -6 8 -3 8 8 vvcurveto
          28 6 6 26 13 6 -51 -8 vhcurveto
          1 -29 -13 -39 -22 -19 -19 -16 -29 -5 -31 3 -31 3 -31 6 -46 77 -49 81 -26 104 -28 103 21 51 rcurveline
          22 57 7 58 34 53 26 40 27 47 54 1 rrcurveto
          35 30 -4 -42 1 hvcurveto
          -36 -37 -31 -35 -1 vhcurveto
          -17 -12 6 7 -12 hvcurveto
          -11 7 -9 -17 11 -5 rrcurveto
          -9 17 13 -8 19 hhcurveto
          44 -1 49 39 48 vvcurveto
          57 -1 -38 15 -49 hhcurveto
          -8 -1 -18 -2 -10 -3 -36 -11 -38 -51 -19 -30 -36 -54 -11 -61 -28 -57 -1 -3 rcurveline
          -24 81 -28 77 -44 63 -16 26 -23 30 -28 11 rrcurveto
          6 -19 -12 6 -20 hhcurveto
          -29 -12 -23 -9 -18 hvcurveto
          -53 -26 -48 -50 -74 vvcurveto
          -74 -2 59 -61 74 hhcurveto
          43 23 65 34 1 hvcurveto
          24 -6 42 -42 vhcurveto
          -12 1 -13 -14 -8 -7 -14 -8 15 -16 11 10 4 2 rcurveline
          4 3 9 8 6 2 21 1 8 -22 -1 -26 rrcurveto
          -21 -24 -47 -27 -54 -45 48 56 vhcurveto
          -1 58 48 32 42 21 rrcurveto
          7 14 12 8 16 hhcurveto
          9 12 -8 -4 8 hvcurveto
          77 -29 53 -189 22 -91 -23 -51 -23 -50 -21 -57 -19 -52 -37 -68 -34 -43 rrcurveto
          -18 -14 -24 -15 -23 hhcurveto
          -57 -52 83 52 22 6 20 7 22 hvcurveto
          8 31 28 60 24 13 rrcurveto
          36 20 19 -80 -34 vvcurveto
          -12 1 -16 -74 -18 hhcurveto
          -11 -1 -14 22 18 vvcurveto
          -1 20 -28 0 -19 vvcurveto
          -20 1 16 -49 37 hhcurveto
          42 1 20 84 30 vvcurveto
          -1 48 -46 97 -50 -27 -35 -19 -30 -71 -9 -30 rrcurveto
          -7 -24 -12 -21 -27 vvcurveto
          -68 69 -105 73 37 33 23 25 21 vhcurveto
          35 46 42 70 21 56 15 39 14 36 15 36 22 -78 39 -97 35 -57 rrcurveto
          -86 52 60 -7 36 hhcurveto
          76 58 59 76 -1 hvcurveto
          endchar
        </CharString>
        <CharString name="Y">
          -1 callgsubr
          323 -29 callgsubr
          589 15 rmoveto
          42 -2 46 -5 45 vhcurveto
          -5 51 -16 56 -11 55 rrcurveto
          23 71 15 74 79 vvcurveto
          44 -18 126 -56 -16 -4 -10 -12 -3 vhcurveto
          -7 -27 -6 -22 -27 vvcurveto
          -1 -36 1 -29 6 -28 9 -52 -1 -44 6 -57 3 -16 2 -16 2 -14 -23 -55 rcurveline
          -13 -29 -17 -38 -21 -35 rrcurveto
          -27 -17 -41 -54 -39 hhcurveto
          -23 -21 4 4 -25 hvcurveto
          -42 7 -35 38 33 vvcurveto
          79 79 94 43 64 vhcurveto
          42 59 39 66 -1 75 rrcurveto
          64 -79 100 -74 vhcurveto
          -21 -16 -5 -23 hhcurveto
          -58 1 -47 -52 -34 -43 rrcurveto
          -17 -21 -18 -26 -36 vvcurveto
          1 -42 20 -38 20 -31 rrcurveto
          -24 16 24 -47 35 hhcurveto
          65 56 60 63 30 1 60 -41 4 hvcurveto
          -47 6 -20 -50 -5 -43 -3 -13 18 -2 3 12 3 28 17 32 30 -4 rrcurveto
          12 -1 1 -49 -10 vvcurveto
          -17 0 -5 -4 -13 vhcurveto
          -33 -11 -38 -26 -37 hhcurveto
          -10 -12 8 10 -9 hvcurveto
          -33 38 -31 44 53 vvcurveto
          65 91 86 62 -1 vhcurveto
          60 hlineto
          58 53 -84 -49 -1 hvcurveto
          -30 -15 -23 -11 -22 vhcurveto
          -53 -119 -138 -106 -136 vvcurveto
          -67 62 -58 63 -11 vhcurveto
          -5 28 24 4 25 hhcurveto
          12 9 2 3 9 hvcurveto
          82 29 40 94 33 75 rrcurveto
          11 -69 8 -68 -76 vvcurveto
          -126 -67 -186 -137 -1 vhcurveto
          -54 -75 34 56 hvcurveto
          83 -1 53 85 83 hhcurveto
          34 26 -31 -35 hvcurveto
          -65 -106 -42 55 vvcurveto
          18 12 27 19 vhcurveto
          6 -1 6 -11 1 -5 4 -11 18 5 -4 13 rrcurveto
          13 -5 -11 16 -15 hhcurveto
          -28 -1 -23 -36 -27 vvcurveto
          -38 35 -27 39 16 vhcurveto
          37 15 37 37 -1 50 rrcurveto
          43 -34 42 -47 -98 -79 -90 -97 -79 94 -62 75 vhcurveto
          165 -1 94 213 151 vvcurveto
          -35 519 rmoveto
          -46 -7 -43 -12 -42 vhcurveto
          1 vlineto
          -5 41 -7 35 -8 41 -4 26 -9 26 -1 34 rrcurveto
          22 -1 19 6 21 vhcurveto
          4 2 2 10 5 hhcurveto
          45 -6 -116 -33 hvcurveto
          endchar
        </CharString>
        <CharString name="Yacute">
          283 154 193 89 194 endchar
        </CharString>
        <CharString name="Ydieresis">
          283 258 269 89 200 endchar
        </CharString>
        <CharString name="Z">
          438 -16 36 11 50 16 26 51 30 308 28 184 19 hstem
          38 31 114 20 331 29 122 23 29 31 vstem
          768 91 rmoveto
          71 -112 44 -56 -1 vhcurveto
          -34 -32 -19 -33 -44 32 -13 37 1 hvcurveto
          16 0 27 -16 hhcurveto
          -22 -1 -18 5 24 vvcurveto
          18 19 5 18 vhcurveto
          45 -1 92 -27 -56 vvcurveto
          -28 -24 -27 -26 -9 vhcurveto
          -9 -25 -28 3 -26 hhcurveto
          -57 -57 24 5 -57 hvcurveto
          -44 5 -45 7 -44 5 22 25 20 27 17 24 44 63 22 74 34 68 38 80 20 73 38 75 rrcurveto
          70 2 79 37 81 vvcurveto
          16 -16 32 -21 vhcurveto
          -36 -1 -64 -81 -26 -39 -39 2 -33 12 -35 14 -71 28 -66 31 -77 11 rrcurveto
          4 -28 -21 -8 -27 hhcurveto
          -61 -49 -37 -64 -47 29 -53 44 -3 hvcurveto
          48 -3 44 40 48 vvcurveto
          21 -7 24 -26 vhcurveto
          -27 -1 -20 -18 -7 -25 -3 -12 18 -5 3 13 5 18 13 12 18 -1 rrcurveto
          14 -1 -16 -11 hvcurveto
          -61 -114 -33 113 vvcurveto
          44 36 23 43 24 18 -15 -4 25 vhcurveto
          38 -4 33 -10 32 -13 84 -31 33 -25 84 -4 -35 -70 -28 -63 -36 -73 -17 -35 -15 -35 -16 -34 -27 -56 -48 -80 -60 -56 rrcurveto
          3 -40 -40 4 -41 hhcurveto
          -35 -71 -34 -27 -45 46 -26 45 58 55 31 41 47 hvcurveto
          56 -6 57 -9 57 -6 rrcurveto
          -5 61 58 -11 59 hhcurveto
          17 15 2 1 13 hvcurveto
          55 4 59 37 62 vvcurveto
          -83 602 rmoveto
          -51 -52 -15 -49 -3 vhcurveto
          8 19 11 20 16 20 9 13 27 29 16 -1 rrcurveto
          13 1 -21 -10 hvcurveto
          -507 -664 rmoveto
          -14 -25 -25 -8 -27 hhcurveto
          -16 -23 -3 16 12 38 -1 16 22 20 -1 -1 20 hvcurveto
          endchar
        </CharString>
        <CharString name="Zcaron">
          438 185 164 90 207 endchar
        </CharString>
        <CharString name="a">
          -54 -28 -14 callsubr
          -1 -103 callgsubr
        </CharString>
        <CharString name="aacute">
          -47 callgsubr
          -20 callsubr
          vstem
          269 488 rmoveto
          -5 3 -13 3 -12 -6 -50 -20 -55 -35 -52 -20 -18 -5 11 -18 18 5 54 21 65 -2 49 22 26 11 -1 37 -17 4 rrcurveto
          13 -489 -103 callgsubr
        </CharString>
        <CharString name="acircumflex">
          -47 callgsubr
          100 59 -20 callsubr
          vstem
          304 421 rmoveto
          12 -24 -100 80 14 callgsubr
          -25 hvcurveto
          -20 -20 14 -10 21 15 19 15 40 11 44 29 -3 callsubr
          -13 6 25 -23 13 rrcurveto
          -22 -422 -103 callgsubr
        </CharString>
        <CharString name="acute">
          233 -67 58 6 33 71 19 37 27 93 32 -21 29 1 5 callsubr
          -28 17 51 19 -2 26 31 29 98 18 74 17 52 48 vstem
          383 675 -52 callgsubr
        </CharString>
        <CharString name="adieresis">
          -47 callgsubr
          41 72 -20 callsubr
          vstem
          264 436 rmoveto
          19 -20 12 -20 -19 -21 -18 -21 3 vhcurveto
          -20 3 15 -13 19 hhcurveto
          20 20 21 20 hvcurveto
          -156 -5 rmoveto
          19 -14 18 -20 -19 -16 -18 -19 -3 vhcurveto
          -20 -4 23 -17 19 hhcurveto
          20 14 17 20 hvcurveto
          174 -432 -103 callgsubr
        </CharString>
        <CharString name="ae">
          165 -28 22 10 34 -12 34 106 27 104 29 10 17 hstemhm
          13 47 175 21 240 29 hintmask 1101111110000000
          448 -3 callgsubr
          -47 -14 -35 -35 -20 -41 -4 16 rcurveline
          -99 callsubr
          -17 40 rcurveline
          -20 21 26 -13 35 hhcurveto
          45 37 43 42 16 hvcurveto
          11 29 -21 2 -11 -28 rrcurveto
          -23 -8 -49 -33 -24 hhcurveto
          -38 -28 callsubr
          -1 9 -3 6 2 11 callgsubr
          60 -28 21 hhcurveto
          42 1 27 47 38 vvcurveto
          -213 33 -100 callgsubr
          hintmask 1011111110000000
          -86 callsubr
          184 -33 rmoveto
          -54 callgsubr
        </CharString>
        <CharString name="agrave">
          -47 callgsubr
          -20 callsubr
          vstem
          216 419 25 callsubr
          35 -50 21 -13 4 -12 -3 -5 -66 callgsubr
          66 -420 -103 callgsubr
        </CharString>
        <CharString name="ampersand">
          194 46 38 65 47 198 29 74 16 hstem
          36 33 97 47 64 32 177 16 vstem
          501 457 rmoveto
          31 -27 25 -29 -38 -28 -34 -33 4 vhcurveto
          1 -10 16 2 -1 10 -4 25 22 27 28 -2 rrcurveto
          21 20 -19 -22 hvcurveto
          -1 -33 -24 -33 -22 -26 -23 -28 -50 -12 -38 -13 -23 -7 -26 -1 -24 -8 rrcurveto
          -49 -16 -41 -21 -56 vvcurveto
          -38 31 -16 30 15 4 1 -1 17 vhcurveto
          31 -2 3 47 -32 1 rrcurveto
          1 -18 -4 -1 -15 hhcurveto
          -6 -9 0 8 29 30 17 25 9 hvcurveto
          13 4 15 6 14 4 rrcurveto
          -9 3 -9 7 -1 vhcurveto
          19 -2 4 -18 -19 vvcurveto
          -18 -4 -12 -9 -15 vhcurveto
          -40 -23 -33 -46 -55 hhcurveto
          -59 -50 32 66 43 13 52 26 41 hvcurveto
          3 1 rlineto
          30 127 17 45 24 -17 19 -23 -53 -46 -28 -40 -35 hvcurveto
          -41 10 -24 49 45 vvcurveto
          66 41 65 62 23 vhcurveto
          7 21 29 11 24 hhcurveto
          37 45 -27 -43 -42 -47 -51 -40 -1 hvcurveto
          -27 -25 12 31 29 25 22 28 32 -3 -36 -5 -20 hvcurveto
          -10 -3 4 -14 10 2 rrcurveto
          14 46 -3 63 -57 hhcurveto
          -38 -33 -31 -39 hvcurveto
          -44 -1 33 -20 39 hhcurveto
          50 62 60 53 56 -57 39 -51 -27 -32 -9 -9 -24 hvcurveto
          -74 -28 -51 -72 -1 -79 rrcurveto
          -52 28 -61 48 -21 vhcurveto
          -28 -44 -17 -53 -47 vvcurveto
          -90 70 -45 81 60 26 56 45 29 vhcurveto
          13 21 14 17 -2 28 rrcurveto
          22 -7 30 -16 16 vhcurveto
          46 16 46 21 29 34 rrcurveto
          26 28 19 40 37 vvcurveto
          endchar
        </CharString>
        <CharString name="apple">
          195 185 51 vstem
          278 488 rmoveto
          30 -1 26 15 20 30 rrcurveto
          17 25 8 24 24 vvcurveto
          8 0 5 -3 2 vhcurveto
          -8 4 -11 -4 -17 -8 -16 -9 -15 -13 -10 -15 rrcurveto
          -16 -24 -7 -25 -24 vvcurveto
          -5 1 -5 1 -4 vhcurveto
          19 -12 rmoveto
          -16 -3 -16 -1 -13 3 -20 7 -19 5 18 callgsubr
          2 -3 -6 0 -8 hhcurveto
          -46 -35 -23 -49 -26 hvcurveto
          -16 -28 -9 -32 -38 vvcurveto
          -73 22 -61 43 -53 vhcurveto
          -35 28 26 -18 20 hhcurveto
          18 17 5 9 12 hvcurveto
          8 11 13 3 17 hhcurveto
          18 15 -5 -6 10 hvcurveto
          -9 13 18 -5 17 hhcurveto
          20 25 18 35 29 hvcurveto
          25 29 16 30 9 28 -47 19 -23 34 -4 50 -2 53 20 36 42 23 rrcurveto
          37 -24 -32 19 -43 hhcurveto
          -10 -8 -1 -2 -4 hvcurveto
          -16 -7 -19 -5 -21 -6 rrcurveto
          endchar
        </CharString>
        <CharString name="approxequal">
          78 136 33 30 28 66 34 30 28 hstemhm
          66 21 -19 22 247 16 -14 16 hintmask 11001010
          353 197 rmoveto
          21 -15 22 -23 -4 -5 -23 callsubr
          -35 -22 -16 -36 7 callgsubr
          12 -36 -5 16 vvcurveto
          21 18 3 18 vhcurveto
          32 73 -63 62 hhcurveto
          36 27 24 37 hvcurveto
          hintmask 00110101
          2 158 rmoveto
          21 -15 22 -23 -3 -6 -23 callsubr
          -34 -23 -17 -35 7 callgsubr
          11 -35 -4 16 vvcurveto
          21 18 3 17 -2 callgsubr
        </CharString>
        <CharString name="aring">
          -47 callgsubr
          58 34 hstem
          13 49 11 33 83 34 12 20 vstem
          223 466 rmoveto
          64 -52 24 -46 -4 vhcurveto
          -2 -2 0 -1 -2 hvcurveto
          -4 -3 -1 -3 -2 hvcurveto
          -24 -13 -13 -18 -28 vvcurveto
          -58 70 -16 35 37 8 24 30 vhcurveto
          59 -467 -101 callsubr
          -93 467 rmoveto
          -6 1 -6 -3 -6 vhcurveto
          -1 -1 -2 -1 -6 hhcurveto
          -38 -34 17 23 14 5 8 16 8 hvcurveto
          1 hlineto
          34 3 27 -15 -38 vvcurveto
          46 -182 -101 callgsubr
        </CharString>
        <CharString name="asciicircum">
          300 396 23 61 74 hstem
          436 440 rmoveto
          16 12 callsubr
          -31 hvcurveto
          -24 -24 15 -14 27 21 25 17 49 15 55 36 17 11 17 -7 26 -16 36 -24 54 9 callgsubr
          7 30 -30 17 rrcurveto
          endchar
        </CharString>
        <CharString name="asciitilde">
          -5 callsubr
          382 500 rmoveto
          21 -15 21 -23 -4 -5 -6 -3 vhcurveto
          -14 31 13 -34 vvcurveto
          -23 -15 callsubr
          -34 -23 -17 -36 -19 34 -8 14 -2 hvcurveto
          -1 vlineto
          9 8 rlineto
          11 -36 -5 16 vvcurveto
          21 18 4 18 -2 callgsubr
        </CharString>
        <CharString name="asterisk">
          201 512 40 hstem
          277 28 vstem
          438 644 rmoveto
          17 9 -14 25 -17 -9 -43 -25 -27 -18 -34 -39 -12 -14 22 -25 13 14 31 36 22 24 42 22 rrcurveto
          -134 75 rmoveto
          19 -28 0 -19 vvcurveto
          -48 -7 -17 -5 -58 vhcurveto
          -2 -19 37 -1 1 19 rrcurveto
          5 59 0 17 48 vvcurveto
          198 -216 rmoveto
          -54 11 -55 12 -57 8 -19 2 -11 -33 19 -2 56 -8 62 -7 53 -11 18 -3 6 26 -18 5 rrcurveto
          -208 29 rmoveto
          11 -9 9 -10 -11 -9 -9 -11 -11 9 -9 11 10 9 9 11 vhcurveto
          -56 57 rmoveto
          -73 73 -14 13 -20 -16 12 -15 rlinecurve
          70 -81 12 -14 26 27 -13 13 rlinecurve
          113 -222 rmoveto
          -28 110 -5 18 -37 -7 6 -18 rlinecurve
          36 -109 6 -18 26 6 -4 18 rlinecurve
          -124 128 rmoveto
          17 8 -15 31 -17 -6 -60 -25 -37 -5 -62 -15 -18 -5 7 -27 17 5 64 16 42 -3 62 26 rrcurveto
          35 -41 rmoveto
          13 13 -20 20 -13 -13 -32 -33 -36 -27 -26 -38 -10 -15 23 -16 10 16 25 37 35 25 31 31 rrcurveto
          endchar
        </CharString>
        <CharString name="at">
          259 75 29 101 38 175 43 90 40 hstem
          -1 47 94 38 108 28 115 38 53 47 vstem
          554 456 rmoveto
          -24 31 -46 -36 23 -30 32 -40 -42 -108 -27 -34 -32 -42 -61 -57 -48 -21 rrcurveto
          -10 -21 -47 -5 -26 hhcurveto
          -21 -18 1 3 -21 hvcurveto
          -87 10 -42 106 75 vvcurveto
          114 88 138 121 75 73 -55 -68 17 vhcurveto
          3 -15 6 -14 -19 vvcurveto
          -25 1 -13 -6 -23 vhcurveto
          -33 -7 -46 -25 -34 hhcurveto
          -17 -9 21 16 hvcurveto
          1 4 -2 4 1 3 rrcurveto
          3 17 -2 19 16 vvcurveto
          2 4 -3 3 -3 3 28 callsubr
          10 17 15 14 -6 18 rrcurveto
          25 -7 -21 16 -27 hhcurveto
          -30 -1 -16 -21 -20 -16 -27 -21 -16 -11 -10 -30 rrcurveto
          -10 -29 -2 -21 -30 vvcurveto
          -28 11 -48 47 25 32 30 26 19 vhcurveto
          -24 14 22 -19 27 hhcurveto
          49 60 45 49 12 hvcurveto
          6 25 3 16 26 vvcurveto
          23 0 19 -4 17 vhcurveto
          85 -22 -92 68 -95 hhcurveto
          -142 -113 -158 -133 -33 -1 -26 11 -33 hvcurveto
          26 -71 59 -51 76 -9 rrcurveto
          -3 24 19 1 24 hhcurveto
          88 117 82 65 51 hvcurveto
          36 46 66 136 -41 52 rrcurveto
          -268 -95 rmoveto
          -8 -15 -23 -36 -4 -10 rrcurveto
          -17 -9 -21 -40 -22 hhcurveto
          -9 -11 10 29 26 2 16 8 23 hvcurveto
          35 13 32 35 39 hhcurveto
          3 1 6 -30 -3 -6 rrcurveto
          -1 vlineto
          -5 -9 5 -8 7 -3 rrcurveto
          endchar
        </CharString>
        <CharString name="atilde">
          -47 callgsubr
          45 45 -20 callsubr
          10 21 vstem
          283 474 rmoveto
          -3 9 -16 4 1 -10 rrcurveto
          -35 3 -25 2 -11 callgsubr
          -21 25 -6 -23 callgsubr
          33 42 -15 hvcurveto
          -1 -475 -103 callgsubr
        </CharString>
        <CharString name="b">
          -5 315 36 hstem
          38 24 14 29 5 38 104 58 vstem
          309 -46 callgsubr
          -6 14 22 vvcurveto
          14 -3 10 3 12 vhcurveto
          1 12 -19 4 -32 callgsubr
          -10 -29 12 callgsubr
          3 14 6 13 vhcurveto
          4 -34 6 -31 -36 -13 callsubr
          16 10 9 21 rrcurveto
          10 23 12 54 -82 callgsubr
        </CharString>
        <CharString name="backslash">
          171 -18 22 hstem
          486 hmoveto
          -12 20 -25 36 -14 19 -52 67 -100 197 -84 134 -38 59 -36 87 -61 53 -23 19 -16 -6 12 -21 1 -1 rcurveline
          -9 -5 -6 -11 6 hvcurveto
          73 -120 64 -107 75 -122 39 -65 26 -54 38 -66 1 -1 rcurveline
          14 -24 11 -21 12 -18 41 -60 84 -25 -22 37 rrcurveto
          endchar
        </CharString>
        <CharString name="bar">
          11 callsubr
          473 rmoveto
          -1 59 18 87 -16 callsubr
          -1 vlineto
          -9 -9 -6 -11 hvcurveto
          -120 -3 -107 -122 vvcurveto
          -65 -6 -54 -3 -66 vhcurveto
          -1 vlineto
          -1 -24 -1 -21 1 -18 rrcurveto
          5 -60 68 -25 37 vvcurveto
          20 -2 36 -4 19 vhcurveto
          -10 67 22 197 -4 134 rrcurveto
          endchar
        </CharString>
        <CharString name="braceleft">
          -15 673 34 hstem
          59 41 vstem
          291 32 rmoveto
          20 11 -13 30 -20 -9 -4 -1 -2 -3 -3 -1 -4 5 -5 2 -8 -1 rrcurveto
          -7 -24 -24 -10 -25 hhcurveto
          -41 20 -38 51 41 vvcurveto
          16 5 19 5 18 vhcurveto
          11 14 12 15 16 vvcurveto
          22 -20 16 -21 8 vhcurveto
          29 16 30 24 37 vvcurveto
          20 -8 17 -11 17 vhcurveto
          -9 40 -19 36 42 vvcurveto
          54 52 29 62 21 vhcurveto
          7 3 3 5 2 6 rrcurveto
          1 7 7 1 7 hhcurveto
          22 1 -2 34 -22 -1 rrcurveto
          -80 -6 -148 -65 -101 vvcurveto
          -48 52 -33 28 -34 vhcurveto
          2 -15 0 -13 -2 -15 -1 -7 4 -7 6 -2 -19 -26 -48 -18 -23 -11 -18 -9 4 -20 20 -3 23 -2 36 -2 -3 -31 -2 -13 rcurveline
          -11 -13 -10 -14 -23 vvcurveto
          -71 26 -86 86 -4 vhcurveto
          -6 14 14 -3 14 hhcurveto
          33 17 14 12 28 hvcurveto
          endchar
        </CharString>
        <CharString name="braceright">
          -15 673 34 hstem
          221 40 vstem
          300 306 rmoveto
          -22 11 -48 18 -19 26 5 2 5 7 -1 7 -3 15 0 13 3 15 rrcurveto
          28 34 51 33 48 vvcurveto
          101 -148 65 -79 6 vhcurveto
          -23 1 -2 -34 22 -1 rrcurveto
          7 8 -1 -1 7 hvcurveto
          1 -6 3 -5 7 -3 rrcurveto
          63 -21 51 -29 -54 vvcurveto
          -42 -19 -36 -8 -40 vhcurveto
          -12 -17 -8 -17 -20 vvcurveto
          -37 30 -24 29 -16 vhcurveto
          -21 -8 -20 -16 -22 vvcurveto
          -16 12 -15 12 -14 vhcurveto
          4 -18 6 -19 -16 vvcurveto
          -41 -38 -51 -42 -20 vhcurveto
          -25 -24 10 7 -24 10 callgsubr
          -5 -2 -3 -5 -4 1 -2 3 -3 1 -21 9 -13 -30 20 -11 rrcurveto
          -12 28 17 -14 34 hhcurveto
          13 15 3 6 13 hvcurveto
          86 4 26 86 71 vvcurveto
          23 -10 14 -10 13 vhcurveto
          -2 13 -4 31 36 2 24 2 rlinecurve
          20 3 3 20 -18 9 rrcurveto
          endchar
        </CharString>
        <CharString name="bracketleft">
          -15 -12 22 hstem
          71 65 vstem
          279 619 rmoveto
          21 7 -11 33 -21 -8 rrcurveto
          -20 -61 -69 -8 -67 hhcurveto
          -13 -8 -9 -13 5 hvcurveto
          22 -80 -6 -88 -81 vvcurveto
          -102 7 -108 -53 -90 vhcurveto
          -15 -8 7 -11 15 hhcurveto
          89 66 -6 -31 70 hvcurveto
          20 -9 14 31 -20 9 -6 2 -5 3 -5 2 -10 7 rcurveline
          -53 13 -51 26 -55 5 rrcurveto
          9 28 3 42 16 vvcurveto
          1 62 30 57 64 vvcurveto
          70 -9 74 -12 69 vhcurveto
          42 16 36 20 47 2 rrcurveto
          9 5 7 7 1 hvcurveto
          8 2 8 2 8 3 rrcurveto
          endchar
        </CharString>
        <CharString name="bracketright">
          -15 -12 22 hstem
          192 64 vstem
          302 52 rmoveto
          -53 90 7 108 102 vvcurveto
          81 -6 88 23 80 vhcurveto
          13 4 -8 9 -13 hhcurveto
          -67 -69 8 20 -61 hvcurveto
          -21 8 -11 -33 21 -7 8 -3 8 -2 8 -2 rrcurveto
          -7 1 5 -7 10 hhcurveto
          48 -2 34 -20 42 -16 rrcurveto
          -12 -69 -8 -74 -70 vvcurveto
          -64 29 -57 1 -62 vhcurveto
          -16 3 -42 9 -28 vhcurveto
          -55 -5 -50 -26 -54 -13 -4 -3 -4 -2 -1 -2 -17 -7 rcurveline
          -20 -9 14 -31 20 9 rrcurveto
          31 70 66 6 89 hhcurveto
          16 6 11 15 -8 hvcurveto
          endchar
        </CharString>
        <CharString name="breve">
          598 491 690 rmoveto
          -37 -64 -33 7 -68 2 -65 2 -19 9 -25 67 -3 9 -10 2 -4 -12 4 -23 -4 -26 14 -20 32 -49 118 -14 49 24 21 10 24 36 15 16 11 13 13 4 1 17 rrcurveto
          0 -13 19 -8 -16 vhcurveto
          endchar
        </CharString>
        <CharString name="brokenbar">
          11 callsubr
          541 rmoveto
          -68 callsubr
          -375 vmoveto
          -68 callsubr
          endchar
        </CharString>
        <CharString name="bullet">
          785 261 -21 393 -20 hstem
          560 437 rmoveto
          107 -88 89 -109 -108 -88 -89 -108 -108 88 -88 109 108 88 88 109 vhcurveto
          endchar
        </CharString>
        <CharString name="c">
          7 -10 29 91 31 59 31 103 50 hstem
          48 34 113 33 31 25 vstem
          320 278 rmoveto
          -25 callgsubr
          -100 52 -62 95 35 52 53 40 1 vhcurveto
          -74 callgsubr
          endchar
        </CharString>
        <CharString name="caron">
          598 554 -21 hstem
          128 683 -83 callsubr
        </CharString>
        <CharString name="ccedilla">
          7 -232 28 194 29 91 31 59 30 104 49 hstem
          8 29 11 34 45 17 51 33 30 25 vstem
          265 -119 rmoveto
          58 -35 20 -40 -5 -6 0 -2 -6 vhcurveto
          3 11 1 11 1 12 rrcurveto
          -1 5 6 0 6 hhcurveto
          35 52 53 40 1 hvcurveto
          -74 callgsubr
          -25 callgsubr
          -89 41 -59 77 -11 vhcurveto
          -2 -16 -2 -14 -5 -15 -3 -9 5 -7 6 4 rrcurveto
          5 8 10 1 7 hhcurveto
          37 15 -14 -45 -45 -37 -31 -32 -17 -52 0 39 22 12 23 15 34 -3 -36 8 -12 hvcurveto
          -7 4 -6 -17 8 -3 rrcurveto
          11 -8 14 4 22 vvcurveto
          35 -16 8 -23 -19 -26 -21 -37 -54 61 -14 25 34 59 38 61 vhcurveto
          endchar
        </CharString>
        <CharString name="cedilla">
          84 -301 34 117 25 47 24 hstem
          32 37 112 22 149 47 -16 callgsubr
          4 16 3 16 3 16 3 17 -25 3 -2 -15 -4 -25 -4 -20 -11 -22 -70 callgsubr
        </CharString>
        <CharString name="cent">
          7 225 29 91 31 60 29 hstem
          56 34 31 34 110 26 vstem
          328 513 rmoveto
          55 -29 46 -55 4 vhcurveto
          10 32 11 34 8 32 5 21 -33 8 -5 -23 -8 -32 -12 -38 -11 -34 rrcurveto
          -7 hlineto
          -94 -1 -52 -151 -78 vvcurveto
          -69 25 -55 51 -24 vhcurveto
          -53 -9 -37 -2 -46 vhcurveto
          -1 -22 33 -2 2 22 2 44 8 35 1 47 rrcurveto
          -2 11 12 -1 14 hhcurveto
          38 50 56 37 25 -15 33 -28 -23 -22 -20 -23 -10 5 -9 13 hvcurveto
          24 -15 31 18 hhcurveto
          12 5 -17 -10 -27 -34 -37 -28 -80 -33 60 72 59 39 124 73 52 16 -21 -50 -12 0 -21 -17 -5 -6 5 6 2 0 2 1 3 hvcurveto
          -1 -1 rlineto
          10 3 -6 10 -12 hhcurveto
          -14 -2 -18 -11 -25 20 -12 22 43 32 36 41 hvcurveto
          endchar
        </CharString>
        <CharString name="circumflex">
          171 609 -20 hstem
          381 459 rmoveto
          -24 33 -28 24 -24 31 -3 2 rcurveline
          11 -7 -36 49 -13 hhcurveto
          -18 -12 -18 -12 -11 hvcurveto
          -3 -4 -19 -24 -62 -45 -22 -14 rlinecurve
          -19 -14 29 -24 13 10 33 27 37 29 44 31 42 -44 39 -42 47 -26 9 -4 18 10 -10 14 rrcurveto
          endchar
        </CharString>
        <CharString name="colon">
          -82 75 16 131 19 callgsubr
          105 36 10 16 45 15 vstem
          237 283 -77 callgsubr
          -9 -199 rmoveto
          26 -1 -20 32 -27 hhcurveto
          -39 -36 -41 -38 -38 45 -23 38 hvcurveto
          7 -1 4 5 7 2 7 2 13 -27 callsubr
          -5 -7 -3 -7 hhcurveto
          -24 1 -22 17 25 vvcurveto
          22 16 27 23 16 16 -14 -16 -16 -15 -15 -14 -6 -11 6 6 5 4 6 9 vhcurveto
          8 callgsubr
          -16 -12 -13 -15 hvcurveto
          -18 -1 -17 callsubr
          21 23 25 hvcurveto
          endchar
        </CharString>
        <CharString name="comma">
          -77 -4 -21 144 -20 hstem
          62 30 63 15 17 40 vstem
          228 20 rmoveto
          26 -20 29 -14 20 vhcurveto
          9 -7 -21 15 -14 hhcurveto
          -42 -48 -43 -40 -24 26 -37 35 8 5 3 2 4 hvcurveto
          19 10 11 14 23 vvcurveto
          13 -12 9 -11 -1 -3 0 -1 -2 vhcurveto
          -9 -3 -10 -5 5 -14 10 4 rlinecurve
          5 2 4 2 rlineto
          5 4 -4 -2 -13 -7 -5 -8 -6 hvcurveto
          -4 -6 -2 -3 -9 hhcurveto
          -17 -1 -13 21 21 vvcurveto
          30 -1 28 28 31 hhcurveto
          8 9 -12 -4 3 hvcurveto
          13 -16 4 -21 -21 vvcurveto
          -50 -22 callsubr
          endchar
        </CharString>
        <CharString name="copyright">
          785 -46 40 128 40 hstem
          41 54 161 79 193 33 199 -89 callsubr
          -198 4 rmoveto
          60 -59 34 -48 8 vhcurveto
          -5 -4 1 -5 hhcurveto
          -5 hlineto
          -112 1 -67 -150 -93 vvcurveto
          -103 87 -36 79 45 48 9 40 27 vhcurveto
          12 19 -29 18 -12 -19 -9 -13 -15 -10 -19 -5 rrcurveto
          1 -1 -3 0 -2 hhcurveto
          -38 -37 8 16 -27 hvcurveto
          -10 22 -17 61 29 vvcurveto
          21 12 14 10 15 vhcurveto
          9 14 11 40 13 28 3 3 3 4 4 3 18 17 rcurveline
          14 -1 23 -7 20 -7 11 -14 11 -16 8 -7 8 -6 9 1 6 5 rrcurveto
          -5 vlineto
          -16 -7 -14 -13 -7 vhcurveto
          -20 -10 16 -30 20 11 rrcurveto
          26 13 11 28 25 vvcurveto
          endchar
        </CharString>
        <CharString name="currency">
          226 253 365 rmoveto
          -22 -5 -49 41 -54 38 -38 48 rlinecurve
          -13 8 -11 -8 6 -16 37 -45 49 -36 46 -38 -22 -11 rcurveline
          -59 -37 22 -82 42 -40 -32 -30 -38 -32 -35 -25 -11 -12 11 -15 14 7 37 27 41 32 32 32 19 -8 24 3 17 -3 25 -3 29 -13 24 11 8 5 rcurveline
          38 -19 33 -30 32 -26 -2 1 rcurveline
          7 -5 12 1 2 13 rrcurveto
          -2 -9 14 18 -22 hvcurveto
          -24 19 -24 19 -25 13 6 14 5 16 5 12 rrcurveto
          11 26 6 24 27 vvcurveto
          2 25 -5 21 -10 14 11 16 7 19 11 17 14 24 22 16 19 19 12 11 -13 15 -13 -7 -20 -20 -24 -18 -16 -25 -13 -19 -8 -18 -6 -13 -37 24 -57 -12 -22 -31 rrcurveto
          1 -55 rmoveto
          13 -11 13 14 -8 13 rrcurveto
          1 -2 2 0 vhcurveto
          -4 16 15 16 10 11 -17 -3 69 23 26 -46 14 -23 -19 -131 -36 -8 -18 -3 -19 10 -19 1 -14 3 -27 -4 -15 8 -46 28 -22 65 48 42 9 8 7 3 8 3 27 -24 rcurveline
          1 -5 2 -4 4 -5 rrcurveto
          endchar
        </CharString>
        <CharString name="d">
          1 207 36 vstem
          325 -36 rmoveto
          -11 -5 -4 6 -6 1 -36 5 -10 114 -5 27 -5 35 -4 36 -1 35 7 13 8 15 9 21 24 58 18 57 8 64 2 23 9 93 -41 6 -8 1 -12 -8 -8 -13 rrcurveto
          -29 -48 -17 -56 -7 -55 -3 -31 -5 -15 -1 -32 -2 -61 3 -64 9 -59 -3 -9 -4 -9 -3 -4 -4 -4 -28 -39 -8 -2 -53 -8 -48 56 -8 50 -7 46 18 96 53 9 rrcurveto
          17 2 27 -19 3 -18 2 -15 -3 -9 -7 -15 -3 -7 -5 -11 -9 -1 -6 -2 -12 8 -1 3 -2 10 2 8 4 9 3 10 -14 6 -4 -9 -4 -14 -10 -10 3 -15 rrcurveto
          4 -17 25 -13 16 3 11 2 8 7 4 6 15 19 8 27 -4 24 -4 29 -40 36 -28 -5 -46 -6 -45 -54 -7 -43 -4 -31 -5 -21 5 -32 11 -71 70 -77 77 13 rrcurveto
          17 2 11 21 10 11 2 3 5 16 6 18 5 -23 5 -23 6 -21 12 -41 27 -41 30 -3 10 -2 6 5 5 3 9 3 16 31 -21 -11 rrcurveto
          -33 485 rmoveto
          -8 -60 -16 -54 -22 -56 -4 -8 rcurveline
          1 37 2 38 5 37 5 48 -1 39 18 43 2 3 3 9 4 8 rrcurveto
          5 3 -2 5 2 hhcurveto
          14 -8 -5 -75 -1 -11 rrcurveto
          endchar
        </CharString>
        <CharString name="dagger">
          289 3 callgsubr
          -80 callgsubr
          1 -41 2 -24 -40 vvcurveto
          -59 callgsubr
          6 83 2 79 5 81 -21 callgsubr
        </CharString>
        <CharString name="daggerdbl">
          -90 -18 22 188 58 -45 34 105 50 hstem
          90 67 vstem
          -80 callgsubr
          -22 1 -16 1 -17 vhcurveto
          -36 -1 -60 -3 -23 5 -13 4 -9 -6 1 -6 rrcurveto
          -4 -2 0 -2 -3 vvcurveto
          -5 -7 4 -6 15 hhcurveto
          8 hlineto
          -4 10 16 -2 20 hhcurveto
          24 27 0 1 28 hvcurveto
          -20 vlineto
          -59 callgsubr
          2 29 1 29 1 28 rrcurveto
          1 47 46 2 44 hhcurveto
          13 6 4 5 -3 hvcurveto
          18 -14 -88 0 -49 hhcurveto
          2 43 2 41 3 43 -21 callgsubr
        </CharString>
        <CharString name="degree">
          260 433 32 119 30 hstem
          115 29 119 32 vstem
          295 523 rmoveto
          50 -41 41 -49 -49 -41 -41 -50 -49 41 -41 49 49 41 41 49 vhcurveto
          -32 1 rmoveto
          -32 -27 -27 -32 -33 -27 27 32 33 27 27 33 32 27 -27 -33 vhcurveto
          endchar
        </CharString>
        <CharString name="dieresis">
          -20 477 74 hstem
          86 65 54 73 vstem
          251 550 rmoveto
          -8 -23 -29 -6 -7 hvcurveto
          -18 -24 35 -20 24 39 1 73 -37 hhcurveto
          -130 -7 rmoveto
          -43 10 7 -41 1 -17 1 -8 21 -10 7 1 42 1 9 54 -45 10 rrcurveto
          endchar
        </CharString>
        <CharString name="divide">
          -31 3 callgsubr
          217 340 rmoveto
          23 -20 19 -25 -24 -20 -19 -23 -23 20 -18 24 25 20 18 23 vhcurveto
          85 -110 -96 callgsubr
          -94 -131 rmoveto
          22 -20 19 -24 -25 -19 -19 -22 -24 19 -18 25 24 20 18 24 vhcurveto
          endchar
        </CharString>
        <CharString name="dollar">
          77 105 41 190 28 299 49 hstem
          26 30 78 26 175 44 vstem
          380 368 rmoveto
          74 -56 40 -69 16 vhcurveto
          -11 3 -20 3 -21 6 rrcurveto
          -10 46 -6 45 44 vvcurveto
          11 21 22 7 16 hhcurveto
          26 19 -17 -22 5 hvcurveto
          5 -24 35 7 -4 24 rrcurveto
          42 -9 -28 39 -49 hhcurveto
          -12 -20 -5 -9 -22 hvcurveto
          4 36 11 40 29 11 rrcurveto
          1 vlineto
          12 5 -7 18 -13 -5 -41 -16 -27 -56 -4 -47 rrcurveto
          -3 vlineto
          -51 -26 -49 -39 -40 vvcurveto
          -53 45 -28 26 -12 vhcurveto
          14 -7 17 -4 18 -5 13 -55 16 -55 16 -51 7 -28 22 -35 15 -35 rrcurveto
          -38 -37 -45 -25 -47 hhcurveto
          -52 -25 58 51 -1 hvcurveto
          32 -3 49 33 vhcurveto
          51 -1 2 -38 -9 -38 -4 10 -16 -4 2 -11 2 -21 8 -7 5 -1 rrcurveto
          7 10 5 13 5 hvcurveto
          21 57 -5 65 -79 -1 rrcurveto
          -48 -13 -64 -45 -71 37 -79 72 51 50 25 38 42 hvcurveto
          7 -24 2 -22 -8 -19 -7 -17 26 -10 7 17 13 32 -4 34 -11 34 rrcurveto
          45 51 31 66 58 vvcurveto
          -44 hmoveto
          -1 -43 -19 -49 -30 -42 -13 29 -13 27 -8 26 -12 46 -15 49 -12 50 46 -10 46 -11 23 -36 rrcurveto
          8 -11 0 -10 -15 vvcurveto
          -171 153 rmoveto
          -34 11 -28 17 27 vvcurveto
          3 2 1 1 2 vhcurveto
          10 15 17 16 19 13 1 -36 5 -34 7 -35 rrcurveto
          endchar
        </CharString>
        <CharString name="dotaccent">
          -18 callgsubr
          196 633 rmoveto
          27 -1 -20 32 -27 hhcurveto
          -39 -1 -36 -41 -38 vvcurveto
          -39 36 -29 38 6 5 5 2 7 vhcurveto
          6 -40 callgsubr
          -6 hhcurveto
          -25 2 -20 21 25 vvcurveto
          22 23 29 24 15 15 -53 callsubr
          -1 23 -9 8 hhcurveto
          25 -1 21 23 25 vvcurveto
          endchar
        </CharString>
        <CharString name="dotlessi">
          -10 callgsubr
          181 -18 -100 callsubr
        </CharString>
        <CharString name="e">
          -4 callsubr
          244 -3 callgsubr
          -85 -7 callgsubr
          1 -4 15 -59 39 -55 70 -1 rlinecurve
          45 37 43 42 16 hvcurveto
          11 29 -64 callsubr
          -38 -28 callsubr
          -1 9 -2 6 1 11 callgsubr
          61 -28 20 hhcurveto
          42 1 27 47 38 vvcurveto
          -29 hmoveto
          -54 callgsubr
        </CharString>
        <CharString name="eacute">
          -81 20 callsubr
          198 29 -83 callgsubr
          83 216 rmoveto
          -3 1 -14 4 -13 -5 -48 -21 -56 -35 -53 -19 -18 -7 -38 callsubr
          66 0 48 21 27 12 -1 35 -18 6 rrcurveto
          endchar
        </CharString>
        <CharString name="ecircumflex">
          -9 callgsubr
          100 59 -77 callsubr
          45 143 rmoveto
          13 -22 -101 78 14 callgsubr
          -25 hvcurveto
          -19 -19 12 -11 23 16 19 15 39 11 44 29 14 9 13 -5 21 -14 29 -19 44 -9 27 -14 24 -14 6 25 -25 13 rrcurveto
          -73 -143 rmoveto
          -82 callsubr
          endchar
        </CharString>
        <CharString name="edieresis">
          -9 callgsubr
          51 72 hstem
          199 28 -83 callgsubr
          62 167 rmoveto
          20 -21 11 -19 -21 -20 -18 -21 4 vhcurveto
          -19 2 14 -14 21 -13 callgsubr
          -14 -17 -20 -4 vhcurveto
          -20 -3 13 callgsubr
          18 19 hvcurveto
          endchar
        </CharString>
        <CharString name="egrave">
          -9 callgsubr
          -77 callsubr
          -28 131 rmoveto
          -8 2 -7 3 -7 4 34 6 35 4 28 13 27 12 -1 35 -18 6 -3 1 -14 4 -13 -5 -35 -16 -40 -23 -40 -18 -32 16 -32 18 -30 13 -13 24 callgsubr
          rrcurveto
          -16 -6 -2 -35 26 -12 20 -9 23 -5 24 -4 -5 -8 10 -10 14 6 5 2 6 2 6 1 22 -4 22 -4 21 -7 18 -7 11 18 18 callgsubr
          -131 vmoveto
          -82 callsubr
          endchar
        </CharString>
        <CharString name="eight">
          147 -6 47 424 19 80 -21 51 26 hstem
          59 47 121 21 94 23 8 47 69 16 vstem
          505 586 rmoveto
          21 -12 28 -23 -21 -7 -35 -15 -3 vhcurveto
          -2 -12 18 -3 2 12 rrcurveto
          5 2 5 30 6 hhcurveto
          14 5 -18 -13 -35 -24 -34 -24 -22 hvcurveto
          -41 -40 -46 -33 -43 -37 -9 -9 -10 -8 -10 -7 -36 14 -37 11 -33 22 rrcurveto
          -24 15 -46 22 32 vvcurveto
          6 2 4 3 9 vhcurveto
          14 42 35 25 38 21 rrcurveto
          11 22 24 0 24 hhcurveto
          32 42 -8 -42 -34 -38 -26 -34 -12 -10 11 15 20 20 20 16 -12 hvcurveto
          -1 vlineto
          16 -12 -4 24 -5 4 -30 32 -36 -45 1 -30 rrcurveto
          -26 20 -18 26 43 50 34 46 57 -53 20 -43 -1 vhcurveto
          -16 -14 0 -1 -14 hvcurveto
          -58 -5 -82 -51 -19 -55 rrcurveto
          -3 -9 -4 -10 -14 vvcurveto
          -59 51 -25 40 -26 vhcurveto
          30 -19 32 -11 31 -12 -21 -19 -20 -19 -19 -21 -18 -19 -21 -11 -21 -21 rrcurveto
          -31 -29 -39 -41 -46 vvcurveto
          -65 100 -38 53 vhcurveto
          113 -1 101 81 121 vvcurveto
          73 -60 50 -52 27 vhcurveto
          7 6 6 6 7 5 43 38 40 41 41 40 rrcurveto
          27 24 26 39 39 vvcurveto
          -131 -388 rmoveto
          -92 -1 -76 -65 -91 hhcurveto
          -25 -81 25 33 28 38 35 19 18 hvcurveto
          22 22 11 20 19 21 64 69 rcurveline
          -1 vlineto
          6 -2 rlineto
          53 -21 42 -44 -46 vvcurveto
          endchar
        </CharString>
        <CharString name="ellipsis">
          413 -38 29 15 14 34 14 15 29 hstem
          427 29 101 29 18 13 46 17 vstem
          680 21 rmoveto
          25 -21 23 -25 -1 vhcurveto
          -8 -23 -9 -16 1 hvcurveto
          -16 11 -12 17 -2 vhcurveto
          8 callgsubr
          1 vlineto
          -9 -5 6 5 -1 hvcurveto
          6 11 7 7 15 14 -16 -17 -1 vhcurveto
          -15 -16 -15 -14 -24 -23 29 23 24 20 21 25 2 vhcurveto
          6 7 -3 -1 6 hvcurveto
          19 -2 -14 17 -7 2 rrcurveto
          2 -6 -5 5 -6 hhcurveto
          -39 -35 -29 -38 -39 35 -41 40 -1 hvcurveto
          27 20 32 27 1 hvcurveto
          -229 70 rmoveto
          -15 36 -44 12 -36 -15 -5 -2 -3 -7 -5 -4 -6 -5 -5 -21 16 10 5 4 5 4 6 2 24 9 26 -11 10 -23 8 -21 -10 -35 -21 -9 -13 -7 -21 8 -5 14 rrcurveto
          -8 15 7 20 13 6 7 3 12 -2 2 -6 1 -6 -1 -6 -9 -4 2 -1 rcurveline
          -11 -3 7 -16 9 5 16 8 4 15 -5 15 -7 15 -24 -1 -7 -2 -24 -9 -10 -30 10 -22 11 -25 32 -23 24 12 36 15 17 53 -15 35 rrcurveto
          -229 -38 -81 callsubr
        </CharString>
        <CharString name="emdash">
          348 228 32 hstem
          749 246 rmoveto
          14 -14 -2 -9 vhcurveto
          -30 -30 -4 -30 -55 -60 10 -57 -47 -47 -4 -47 -35 -34 18 -33 hhcurveto
          -52 -46 -5 -10 -50 3 callsubr
          -7 -1 -1 -7 -5 vvcurveto
          -14 8 -23 15 vhcurveto
          35 36 12 36 89 90 2 90 44 45 -4 44 47 45 11 46 hhcurveto
          8 6 1 10 hvcurveto
          endchar
        </CharString>
        <CharString name="endash">
          140 207 34 hstem
          472 228 rmoveto
          24 -80 -11 -17 -26 -30 9 2 -26 vhcurveto
          6 -60 -67 -2 -61 hhcurveto
          -29 -14 -22 -17 -21 3 callsubr
          -3 -7 rlineto
          -5 3 -6 5 vhcurveto
          9 7 14 26 69 68 -9 68 hhcurveto
          23 156 2 21 hvcurveto
          endchar
        </CharString>
        <CharString name="equal">
          21 callgsubr
          482 377 rmoveto
          8 1 -7 9 -13 hhcurveto
          -317 -35 callgsubr
          rrcurveto
          -25 68 173 27 93 hhcurveto
          22 1 30 3 -19 hvcurveto
          12 -166 -66 callsubr
        </CharString>
        <CharString name="eth">
          160 3 callgsubr
          444 580 rmoveto
          8 11 -16 9 -8 -12 -6 -12 -30 -18 -18 -10 -3 -2 -16 -5 -7 -4 -1 -1 rcurveline
          -55 65 -169 31 -63 -81 -11 -16 15 -16 14 13 51 64 113 -36 54 -52 -15 -5 -16 2 -16 -8 -23 -13 0 -21 -10 -20 -7 -18 25 -11 8 17 6 14 8 9 13 8 rrcurveto
          7 4 5 2 8 1 9 3 11 4 10 5 56 -79 23 -130 -31 -94 -50 callsubr
          -51 callgsubr
          35 80 -27 206 -53 95 22 11 rcurveline
          23 12 24 33 8 16 rrcurveto
          endchar
        </CharString>
        <CharString name="exclam">
          -73 -17 45 75 31 74 32 hstem
          105 41 11 18 4 29 vstem
          242 646 rmoveto
          16 -3 8 -2 15 vhcurveto
          -3 40 -58 -5 3 -39 rrcurveto
          1 -13 4 -8 -14 vvcurveto
          -30 -12 -30 -4 -30 vhcurveto
          -1 -12 2 -4 -1 -9 -10 -63 1 -66 -3 -63 rrcurveto
          -1 -19 -3 -14 -14 vvcurveto
          -39 8 -45 39 vhcurveto
          22 0 32 -22 hhcurveto
          -23 -1 29 23 47 19 49 3 43 hvcurveto
          2 32 13 24 5 36 1 9 6 3 1 12 rrcurveto
          6 33 11 32 34 vvcurveto
          -21 -618 rmoveto
          1 13 -9 21 -4 -10 rrcurveto
          -8 -2 -17 -16 -12 hhcurveto
          -25 1 -7 18 22 vvcurveto
          11 7 23 12 21 -5 -32 -6 -14 vhcurveto
          -12 -5 6 -17 13 4 12 5 11 2 6 16 callgsubr
          -31 -40 -22 -43 23 -47 48 1 hvcurveto
          23 19 26 19 3 hvcurveto
          endchar
        </CharString>
        <CharString name="exclamdown">
          -73 139 31 91 45 75 31 hstem
          82 40 12 17 5 29 vstem
          198 306 rmoveto
          13 -9 20 -3 -10 vhcurveto
          -8 -2 -17 -15 -12 hhcurveto
          -25 1 -8 18 22 vvcurveto
          10 8 24 11 23 -5 -33 -5 -15 vhcurveto
          -1 hlineto
          -11 -5 7 -18 12 5 11 4 12 3 5 16 callgsubr
          -30 -40 -23 -42 22 -47 48 1 hvcurveto
          25 19 26 19 2 hvcurveto
          -42 -221 rmoveto
          1 39 -7 45 -39 1 rrcurveto
          -21 0 -31 21 hhcurveto
          22 0 -29 -24 -47 -20 -48 -4 -44 hvcurveto
          -4 -31 -13 -24 -6 -35 -1 -9 -7 -4 -1 -11 -5 -35 -10 -31 -2 -35 rrcurveto
          -14 4 -8 1 -16 vhcurveto
          -1 hlineto
          2 -39 57 3 -1 40 rrcurveto
          -1 13 -2 8 13 vvcurveto
          31 11 30 4 30 vhcurveto
          4 11 -2 5 1 9 10 62 -1 66 5 63 rrcurveto
          1 18 4 15 13 vvcurveto
          endchar
        </CharString>
        <CharString name="f">
          -10 -290 55 58 27 450 32 145 36 71 -20 98 34 hstem
          -13 40 78 24 59 19 73 55 vstem
          -94 callgsubr
          endchar
        </CharString>
        <CharString name="fi">
          125 -7 callsubr
          83 19 348 32 68 80 -3 -56 callsubr
          37 40 vstem
          458 559 rmoveto
          95 -1 -125 42 -58 hhcurveto
          -84 -25 -15 -11 -15 hvcurveto
          -64 -47 -3 -79 -99 callgsubr
          -4 67 55 44 vhcurveto
          8 9 19 9 18 hhcurveto
          52 144 -14 -96 -9 hvcurveto
          -1 -17 0 -3 -4 -10 rrcurveto
          -6 -4 -11 -15 -9 hhcurveto
          -13 -18 11 19 -1 hvcurveto
          14 4 8 12 -2 vhcurveto
          9 0 16 -7 hhcurveto
          -22 1 -28 -29 -22 vvcurveto
          -34 1 23 -19 31 hhcurveto
          20 33 18 14 9 hvcurveto
          9 16 22 19 28 vvcurveto
          -1 -577 rmoveto
          1 vlineto
          34 -37 -65 -18 -23 -16 45 25 28 3 26 5 27 vhcurveto
          3 26 10 22 5 29 5 35 22 -65 callsubr
          -24 -7 -28 -13 13 hvcurveto
          9 -20 -3 -1 -1 -21 rrcurveto
          -18 5 -13 -3 -15 vhcurveto
          -4 -29 -1 -23 -5 -25 rrcurveto
          -4 -29 -3 -28 -32 vvcurveto
          -38 44 -51 35 19 36 30 19 vhcurveto
          endchar
        </CharString>
        <CharString name="five">
          106 -59 58 116 27 123 19 143 58 60 27 33 51 hstem
          25 44 182 28 77 58 vstem
          414 283 rmoveto
          195 -167 61 -138 -103 vhcurveto
          6 42 7 47 9 41 2 12 -19 4 -2 -12 -12 -58 -32 -67 -13 -55 -2 -10 -4 -8 -1 -10 -2 -14 37 -11 5 11 rrcurveto
          45 87 223 59 -210 vvcurveto
          -98 -47 -77 -74 -56 vhcurveto
          -17 -22 -42 -37 -30 hhcurveto
          -27 -45 49 28 25 8 43 11 18 hvcurveto
          24 38 45 60 48 4 20 3 27 2 -1 -28 rrcurveto
          -27 -42 -72 -37 -5 -2 5 5 vhcurveto
          3 6 2 4 17 34 -41 -17 -2 -27 rlinecurve
          -19 6 -18 22 50 56 90 37 vhcurveto
          1 11 -7 21 -12 9 -16 12 -26 -9 -15 -2 -55 -5 -60 -57 -25 -45 rrcurveto
          -14 -22 -24 -50 -30 vvcurveto
          -28 6 -36 22 -22 vhcurveto
          -21 19 29 -27 41 hhcurveto
          51 40 38 28 37 hvcurveto
          86 65 58 93 118 vvcurveto
          89 280 rmoveto
          11 6 -8 18 -11 -6 rrcurveto
          -8 -17 -22 -1 -25 hhcurveto
          -57 -38 29 21 -48 hvcurveto
          23 -55 -37 11 -58 hhcurveto
          -20 -13 -11 -14 -12 hvcurveto
          -17 -21 30 -26 18 20 rrcurveto
          4 4 5 -3 6 hhcurveto
          11 8 -5 -2 11 hvcurveto
          39 -9 26 -8 31 -13 rrcurveto
          -23 53 50 0 62 hhcurveto
          29 25 11 7 19 hvcurveto
          endchar
        </CharString>
        <CharString name="fl">
          228 -7 callsubr
          53 28 369 32 145 36 71 -20 98 34 -8 43 hstemhm
          -39 callgsubr
          67 49 92 19 hintmask 1111111011111100
          -94 callgsubr
          181 -522 rmoveto
          -1 -61 callgsubr
          -14 141 -1 67 7 11 7 12 6 12 52 97 41 118 -1 117 rrcurveto
          37 -15 105 -44 1 vhcurveto
          -17 -17 -13 -24 -9 hvcurveto
          -23 -64 -11 -54 -6 -69 -7 -87 -12 -31 callgsubr
          -13 -26 -11 -27 -4 -64 callgsubr
          57 19 117 40 hvcurveto
          -39 -29 callsubr
          -3 -5 3 79 11 88 5 77 rlinecurve
          5 55 3 34 18 49 2 7 3 15 4 13 rrcurveto
          hintmask 1111110111111100
          5 1 -4 7 3 hhcurveto
          30 8 -75 -26 hvcurveto
          endchar
        </CharString>
        <CharString name="florin">
          -43 callgsubr
          623 rmoveto
          89 -1 -44 41 26 callsubr
          -10 -14 -14 hvcurveto
          -64 -54 -11 -96 -91 vvcurveto
          -52 5 -65 -72 callsubr
          26 -136 -131 vvcurveto
          -31 -1 -22 -1 -25 vhcurveto
          -4 -46 -22 -81 -46 1 rrcurveto
          -38 -24 69 34 126 81 42 -1 -98 hvcurveto
          -18 -6 -62 -21 -4 vhcurveto
          -1 4 -2 2 -2 4 -9 18 -23 -13 8 -17 rlinecurve
          1 -4 rlineto
          -12 6 8 -8 14 hhcurveto
          30 20 86 24 hvcurveto
          1 12 -1 15 -4 14 rrcurveto
          -32 93 -108 -93 -110 vvcurveto
          -28 5 -26 8 -26 vhcurveto
          -40 13 37 -42 40 hhcurveto
          70 1 54 108 6 70 rrcurveto
          2 27 0 24 34 vvcurveto
          83 -13 95 -86 callgsubr
          62 51 vvcurveto
          81 0 88 57 47 vhcurveto
          9 9 13 3 18 hhcurveto
          47 18 -35 -56 -1 hvcurveto
          -15 -4 -17 -6 -13 vhcurveto
          -7 -5 -10 -29 27 callgsubr
          6 26 -1 hvcurveto
          19 6 10 17 -1 vhcurveto
          13 0 20 -12 hhcurveto
          -28 1 -16 -19 -29 vvcurveto
          -47 1 24 -26 27 callsubr
          28 19 9 hvcurveto
          10 20 6 27 26 vvcurveto
          endchar
        </CharString>
        <CharString name="four">
          224 -31 43 191 58 150 31 hstem
          473 21 58 19 vstem
          570 389 rmoveto
          13 -8 22 -3 5 vhcurveto
          10 -8 -10 3 -15 hhcurveto
          -38 -20 -34 -35 -17 6 -8 10 -9 hvcurveto
          9 -9 12 15 -10 8 rrcurveto
          -6 5 -1 6 10 vvcurveto
          20 16 17 22 vhcurveto
          5 2 -1 1 hhcurveto
          4 -3 13 -13 -5 vvcurveto
          -29 -3 -22 -12 -24 vhcurveto
          -22 -47 -93 -18 -61 -4 3 57 7 55 13 53 18 72 16 80 23 66 rrcurveto
          -1 vlineto
          5 13 -18 6 -5 -12 -23 -66 -38 -74 -19 -73 -15 -57 -9 -58 -2 -60 rrcurveto
          4 -42 -37 11 -50 hhcurveto
          -11 -9 2 1 -11 hvcurveto
          23 27 21 27 18 18 33 32 25 40 26 37 27 37 22 40 26 36 8 10 -14 11 -8 -10 -27 -36 -30 -35 -27 -37 -27 -34 -31 -32 -31 -30 -23 -23 -42 -50 -39 -34 rrcurveto
          -12 -4 -14 -5 -13 -6 -6 -3 -4 -5 -6 -3 -37 -23 30 -38 14 4 14 3 13 7 13 9 rrcurveto
          9 23 18 4 22 18 12 -4 16 hhcurveto
          49 37 -11 -4 42 hvcurveto
          2 -66 23 -156 81 2 rrcurveto
          72 18 133 17 -35 hvcurveto
          -19 10 -15 -31 21 -10 rrcurveto
          -10 19 -4 -65 -57 hhcurveto
          -4 -6 3 9 -8 hvcurveto
          -30 35 -12 78 -1 50 rrcurveto
          19 hlineto
          108 9 83 83 110 vvcurveto
          endchar
        </CharString>
        <CharString name="fraction">
          289 584 669 rmoveto
          31 32 -40 30 -44 -38 -99 -84 -44 -85 -60 -106 -20 -36 -10 -21 -21 -35 -22 -35 -23 -37 -27 -36 -44 -57 -51 -58 -26 -64 -13 -23 rcurveline
          -11 -17 23 -16 13 11 5 2 5 4 2 7 6 18 rcurveline
          34 56 41 60 43 58 14 19 15 17 11 17 101 146 84 144 127 127 rrcurveto
          endchar
        </CharString>
        <CharString name="g">
          7 -356 36 81 34 174 30 49 43 187 31 39 43 hstem
          -10 28 47 21 79 33 27 19 47 23 vstem
          314 224 rmoveto
          -3 17 rlineto
          19 1 -10 48 -21 hhcurveto
          -22 -17 -113 -28 -17 1 -17 1 -17 hvcurveto
          -20 -23 -32 -6 -48 hhcurveto
          -42 -32 43 42 77 1 60 69 26 hvcurveto
          4 9 9 5 10 hhcurveto
          27 32 -18 -31 1 hvcurveto
          -18 -12 -24 -17 -3 -3 8 1 vhcurveto
          2 vlineto
          -4 11 -18 -6 4 -12 rrcurveto
          -5 2 11 -21 10 hhcurveto
          27 22 37 27 hvcurveto
          48 1 -38 44 -42 hhcurveto
          -10 -8 0 -2 -8 hvcurveto
          -109 -33 -13 -85 1 -95 rrcurveto
          -62 59 -66 66 38 39 11 23 26 vhcurveto
          3 -27 2 -28 -28 vvcurveto
          -74 -9 -55 -21 -56 vhcurveto
          -21 -55 -11 -27 -45 -28 rrcurveto
          -9 -14 -16 -15 -17 hhcurveto
          -49 -29 88 38 hvcurveto
          -1 73 45 92 77 -1 rrcurveto
          24 1 -49 -15 -23 -21 -88 -31 -19 -8 13 15 hvcurveto
          2 29 2 9 11 47 19 -7 rlinecurve
          -1 -4 -3 0 hvcurveto
          1 -13 21 2 -1 13 rrcurveto
          0 -7 18 -2 1 vhcurveto
          -45 19 -16 -87 -29 vvcurveto
          -29 -1 10 -32 38 hhcurveto
          57 28 102 44 36 -9 56 -48 hvcurveto
          -93 1 -59 -107 1 -86 rrcurveto
          -50 44 -113 65 28 13 17 14 22 vhcurveto
          54 34 16 28 24 62 rrcurveto
          24 61 11 59 81 vvcurveto
          44 -5 37 -4 39 vhcurveto
          24 31 8 26 48 vvcurveto
          -22 18 rmoveto
          -1 -16 -1 -22 -3 -16 -7 -17 rlinecurve
          1 vlineto
          26 -15 80 16 10 2 -26 -10 -1 vhcurveto
          endchar
        </CharString>
        <CharString name="germandbls">
          476 -155 30 52 34 11 17 callsubr
          247 36 hstemhm
          -21 92 -24 29 7 16 104 15 401 81 7 33 hintmask 1111111101111100
          747 539 rmoveto
          21 -1 30 -6 32 vhcurveto
          1 23 5 19 -19 10 rrcurveto
          37 -15 -24 29 -40 hhcurveto
          -10 -10 -1 -1 -10 hvcurveto
          6 -14 -16 3 -18 hhcurveto
          -46 -36 -20 -26 -28 hvcurveto
          -68 -63 -41 -89 -21 -90 -7 -32 -5 -35 -9 -32 -13 -65 -22 -64 -12 -53 -11 -49 -24 -41 -21 -44 -30 -60 -19 -80 -65 -33 rrcurveto
          0 -1 0 -1 -1 vhcurveto
          -31 10 -47 29 11 vvcurveto
          9 4 30 -2 8 22 0 34 -22 hhcurveto
          hintmask 1111111110111100
          -28 -47 1 -42 -47 105 -40 24 145 59 361 87 18 hvcurveto
          5 24 4 25 5 28 16 51 15 48 18 40 43 101 75 90 104 16 35 -15 21 -30 29 -11 2 -8 2 -11 3 -10 -1 -58 -22 -65 -31 -45 -6 -7 -14 -6 -8 -3 rrcurveto
          -90 -45 25 0 -66 -20 -9 6 -25 -3 -15 -19 -6 -4 -2 -5 2 -6 3 -87 77 15 69 -16 rrcurveto
          66 -17 5 -25 -54 vvcurveto
          -72 -27 -66 -42 -54 vhcurveto
          -17 -15 -52 -32 -29 hhcurveto
          -8 -31 27 4 -4 hvcurveto
          -28 31 -4 49 41 vvcurveto
          40 32 18 25 29 vhcurveto
          11 7 30 14 12 hhcurveto
          25 12 -32 -20 hvcurveto
          5 -20 rlineto
          -33 -52 -44 60 14 -25 0 -14 vvcurveto
          1 -9 -5 -10 2 -7 rrcurveto
          10 -86 95 92 37 vvcurveto
          7 20 rlineto
          37 -27 64 -48 -2 vhcurveto
          -30 -61 -6 -27 -22 hvcurveto
          -35 -39 -18 -44 -56 vvcurveto
          -49 16 -63 41 -47 vhcurveto
          -16 13 39 -29 26 hhcurveto
          32 51 18 20 23 hvcurveto
          17 14 10 19 12 16 rrcurveto
          47 63 23 76 80 vvcurveto
          69 -24 44 -81 19 vhcurveto
          -37 9 -61 6 -15 24 13 2 10 4 7 5 77 24 111 43 36 64 rrcurveto
          11 19 -9 32 20 vvcurveto
          endchar
        </CharString>
        <CharString name="grave">
          -31 242 483 1 callsubr
          -12 5 -14 -4 -4 -66 callgsubr
          endchar
        </CharString>
        <CharString name="greater">
          39 -92 callsubr
          endchar
        </CharString>
        <CharString name="greaterequal">
          39 -46 43 hstem
          -92 callsubr
          20 -300 -57 callgsubr
        </CharString>
        <CharString name="guillemotleft">
          235 513 60 rmoveto
          3 7 -1 8 -7 6 -4 4 rcurveline
          -13 19 -13 15 -12 13 -35 37 rcurveline
          -15 24 -20 35 -41 21 -20 34 rlinecurve
          3 5 6 8 12 15 9 41 14 34 rlinecurve
          22 -35 callsubr
          8 22 7 10 rcurveline
          5 6 -1 8 -5 5 3 16 -23 12 -11 -17 -10 -18 -12 -13 -12 -14 -63 -68 -37 -111 -67 -53 -6 -5 -2 -12 5 -6 49 -65 101 -83 63 -63 20 -21 rcurveline
          11 -11 15 5 3 11 rrcurveto
          -196 hmoveto
          -92 callgsubr
          endchar
        </CharString>
        <CharString name="guillemotright">
          244 -92 callsubr
          224 hmoveto
          6 6 -1 12 -8 5 -67 53 -37 -61 callsubr
          -4 -5 -1 -8 5 -6 7 -10 rcurveline
          9 -22 12 -18 15 -18 21 -34 21 -36 24 -56 callgsubr
          -42 -21 -19 -35 rlinecurve
          -15 -24 -35 -37 -13 -13 -12 -15 -13 -19 rlinecurve
          -5 -4 -7 -6 0 -8 3 -7 rlinecurve
          4 -11 13 -5 12 -57 callsubr
          endchar
        </CharString>
        <CharString name="guilsinglleft">
          11 427 -20 hstem
          225 376 rmoveto
          27 28 -3 -15 28 24 5 8 -3 5 -7 1 -22 -3 2 -4 -21 -11 -7 -4 -17 -15 6 -5 -25 -18 rcurveline
          -22 -21 -4 -12 -23 -17 -18 -13 -24 -5 -17 -13 -5 -4 2 -18 3 -5 50 -62 72 -41 58 -52 11 -4 6 8 -6 8 -55 50 -69 56 -51 55 16 6 18 12 16 9 rrcurveto
          15 10 15 13 13 16 rrcurveto
          endchar
        </CharString>
        <CharString name="guilsinglright">
          3 121 -21 hstem
          189 184 rmoveto
          -13 15 -15 14 -15 10 -16 9 -18 11 -16 7 51 55 69 56 55 49 6 9 -6 8 -11 -5 -58 -51 -72 -42 -50 -61 -3 -6 -2 -18 5 -3 17 -14 24 -4 18 -14 rrcurveto
          23 -16 4 -13 22 -21 25 -18 rcurveline
          -6 -4 17 -16 7 -3 21 -12 -2 -4 22 -2 7 1 3 4 -5 8 -28 25 3 -16 -27 28 rrcurveto
          endchar
        </CharString>
        <CharString name="h">
          23 -39 26 352 25 hstem
          53 33 107 40 23 34 24 26 vstem
          340 44 rmoveto
          67 -84 -1 -74 -21 34 0 22 vvcurveto
          12 -8 24 17 2 vhcurveto
          13 1 2 -17 -14 -63 -81 -34 117 51 77 76 73 vvcurveto
          46 -37 53 -51 -58 -36 -73 -58 -22 vhcurveto
          2 16 4 15 17 vvcurveto
          -1 21 7 14 22 vvcurveto
          95 3 108 -41 88 vhcurveto
          -17 35 -53 -24 17 -35 37 -77 -2 -106 -2 -84 -1 -58 rcurveline
          -17 3 -15 -2 -15 vhcurveto
          -3 -45 -4 -42 -49 vvcurveto
          -17 -4 -58 -5 -25 vhcurveto
          3 -13 10 -6 11 10 rrcurveto
          12 9 6 91 11 vvcurveto
          5 0 7 1 7 vhcurveto
          25 74 rlineto
          50 16 31 97 63 hhcurveto
          32 6 -44 -30 hvcurveto
          -72 -67 -59 -69 vvcurveto
          -20 6 -14 6 -19 vhcurveto
          22 -80 113 15 97 vvcurveto
          endchar
        </CharString>
        <CharString name="hungarumlaut">
          -31 20 callsubr
          55 17 51 19 55 29 83 17 51 19 55 29 vstem
          131 543 rmoveto
          12 55 29 58 15 52 3 13 -5 16 callsubr
          -16 -52 8 -65 -12 22 callgsubr
          152 hmoveto
          13 55 29 58 14 52 4 13 -6 16 callsubr
          -15 -52 8 -65 -13 22 callgsubr
          endchar
        </CharString>
        <CharString name="hyphen">
          -78 callgsubr
        </CharString>
        <CharString name="i">
          -6 callgsubr
          448 80 hstem
          47 40 vstem
          125 446 rmoveto
          24 -10 9 -22 -24 -7 -5 -25 -25 4 -25 22 24 13 22 25 vhcurveto
          56 -464 -100 callsubr
        </CharString>
        <CharString name="iacute">
          -10 callgsubr
          244 480 rmoveto
          -4 2 -14 4 -36 callsubr
          7 54 19 65 0 49 21 -31 callsubr
          -63 -498 -100 callsubr
        </CharString>
        <CharString name="icircumflex">
          -6 callgsubr
          528 60 hstem
          63 58 vstem
          239 448 rmoveto
          13 -24 -100 79 14 callgsubr
          -24 hvcurveto
          -21 -19 14 -12 21 16 19 15 39 12 45 28 -3 callsubr
          -12 6 25 -23 12 rrcurveto
          -58 -466 -100 callsubr
        </CharString>
        <CharString name="idieresis">
          -6 callgsubr
          452 72 hstem
          63 58 vstem
          213 445 rmoveto
          20 -20 11 -21 -19 7 callsubr
          -19 3 14 -14 19 hhcurveto
          21 20 22 19 -9 callsubr
          -13 17 -21 -19 -15 -17 -20 -4 vhcurveto
          -20 -3 22 -17 19 hhcurveto
          21 13 18 19 hvcurveto
          125 -458 -100 callsubr
        </CharString>
        <CharString name="igrave">
          -10 callgsubr
          144 394 25 callsubr
          35 -49 21 -13 5 -13 -4 -5 -1 -16 -5 -1 -36 25 -11 50 -22 65 0 53 -19 1 callgsubr
          37 -412 -100 callsubr
        </CharString>
        <CharString name="infinity">
          432 309 383 rmoveto
          -56 56 -84 52 -69 -68 -8 -4 -17 -23 -2 -1 -51 -67 -5 -113 56 -67 24 -29 46 -28 40 15 70 30 47 56 46 56 6 -13 5 -18 11 -11 14 -26 26 -28 24 -19 rrcurveto
          27 -23 26 -11 37 -5 20 -2 28 7 19 6 63 23 52 43 16 64 10 38 -29 125 -36 30 -32 29 -44 4 -41 -7 -33 -6 -28 -12 -30 -18 -38 -23 -29 -30 -29 -32 rrcurveto
          -14 20 -18 15 -20 15 rrcurveto
          163 -4 rmoveto
          54 29 73 30 51 -53 38 -97 20 -95 -128 -47 -24 -8 -23 -6 -25 6 -43 9 -30 40 -23 33 -32 51 2 11 -2 8 28 35 28 31 38 24 rrcurveto
          -223 -174 rmoveto
          -17 -19 -17 -17 -21 -14 -45 -32 -47 41 -16 42 -13 39 -3 44 12 39 18 51 56 58 57 -31 25 -12 19 -18 19 -17 18 -17 23 -20 11 -24 rrcurveto
          -2 0 0 -1 -1 vhcurveto
          -1 -1 -3 -2 -3 vvcurveto
          -2 -1 0 -1 -2 -4 -25 -23 -22 -30 -23 -25 rrcurveto
          endchar
        </CharString>
        <CharString name="integral">
          -43 callgsubr
          582 rmoveto
          79 -1 -44 35 26 callsubr
          -9 -12 -14 hvcurveto
          -64 -47 -11 -84 -79 -170 77 -251 -174 -71 callgsubr
          -16 -5 -60 -84 callgsubr
          -26 5 -24 -67 callsubr
          32 vvcurveto
          77 -14 143 -19 77 vhcurveto
          -26 109 -38 78 107 vvcurveto
          70 0 78 57 41 vhcurveto
          8 9 13 1 18 hhcurveto
          47 18 -30 -48 -1 hvcurveto
          -14 -4 -14 -6 -12 vhcurveto
          -6 -5 -10 -25 27 callgsubr
          4 23 -1 hvcurveto
          17 6 9 17 -2 vhcurveto
          13 0 18 -12 hhcurveto
          -28 2 -16 -17 -26 vvcurveto
          -41 1 24 -23 27 callsubr
          25 17 9 hvcurveto
          10 17 6 24 22 vvcurveto
          endchar
        </CharString>
        <CharString name="j">
          -93 -252 24 173 24 hstem
          -76 22 45 19 84 24 30 58 vstem
          170 439 rmoveto
          -30 30 -9 11 -43 -49 2 -18 rlinecurve
          -28 1 12 -4 9 hhcurveto
          9 1 8 4 8 4 23 12 8 7 2 30 rrcurveto
          36 -558 rmoveto
          61 -6 45 -12 57 vhcurveto
          -12 61 -29 72 -14 66 rrcurveto
          -1 11 -11 11 11 vvcurveto
          -1 5 -4 6 2 6 rrcurveto
          4 30 -32 -32 -15 vvcurveto
          1 -12 0 -12 3 -10 2 -7 32 -189 2 -14 rrcurveto
          11 -52 7 -42 -56 -229 -202 -13 146 vvcurveto
          19 0 12 4 18 vhcurveto
          9 41 48 71 52 1 rrcurveto
          25 9 -53 -18 hvcurveto
          -42 1 -30 -55 -34 hhcurveto
          -11 -1 -10 22 10 vvcurveto
          1 17 11 12 7 3 11 5 -8 16 -11 -5 -13 -6 -15 -19 -1 -22 rrcurveto
          -19 20 -36 17 vhcurveto
          57 1 34 76 -1 43 rrcurveto
          30 -16 65 -44 -60 -56 -84 -47 -10 vhcurveto
          -5 -21 -3 -13 -21 vvcurveto
          -104 55 -47 60 2 vhcurveto
          79 2 88 84 158 vvcurveto
          endchar
        </CharString>
        <CharString name="k">
          46 -40 22 29 20 110 26 35 20 163 34 263 19 hstem
          30 51 142 19 22 22 42 26 vstem
          348 345 rmoveto
          41 -18 33 -49 -106 -67 -214 -80 -20 vhcurveto
          26 2 27 -2 25 vhcurveto
          15 -2 19 18 17 -5 11 18 vvcurveto
          81 -3 88 19 77 vhcurveto
          37 9 18 98 53 hhcurveto
          34 12 -39 -44 -78 -48 -55 -36 -65 hvcurveto
          -7 -12 17 -9 7 11 rrcurveto
          38 69 48 55 84 vvcurveto
          39 -10 62 -54 vhcurveto
          -63 1 -43 -101 -12 -44 rrcurveto
          -20 -80 -10 -91 -84 -18 4 -11 -18 -18 1 -19 -15 vvcurveto
          2 -71 -2 -102 31 -64 rrcurveto
          6 -12 38 9 13 vvcurveto
          23 -7 24 3 23 vhcurveto
          15 83 30 94 37 71 rrcurveto
          36 19 33 56 41 hhcurveto
          27 9 -19 -22 -28 -8 -28 -19 -23 hvcurveto
          -20 -17 -18 -23 -23 hhcurveto
          -16 -19 13 9 -4 3 callsubr
          -6 13 -18 -9 6 -13 rrcurveto
          -1 vlineto
          13 -26 -3 -30 2 -27 3 -28 3 -19 7 -24 rrcurveto
          -34 11 33 -36 39 78 24 156 -87 hhcurveto
          -31 -5 -31 -18 1 hvcurveto
          2 -14 22 2 -1 15 rrcurveto
          6 -2 0 13 14 hhcurveto
          1 46 -11 -110 -50 hhcurveto
          -28 -15 35 25 -8 hvcurveto
          -15 49 3 28 -13 38 rrcurveto
          -2 9 8 -2 7 hhcurveto
          30 26 23 25 21 hvcurveto
          24 28 16 32 35 vvcurveto
          endchar
        </CharString>
        <CharString name="l">
          -123 4 callgsubr
          239 60 -88 callgsubr
        </CharString>
        <CharString name="less">
          39 317 60 rmoveto
          -92 callgsubr
          endchar
        </CharString>
        <CharString name="lessequal">
          39 -46 43 hstem
          317 60 rmoveto
          -92 callgsubr
          -5 -73 -57 callgsubr
        </CharString>
        <CharString name="logicalnot">
          301 247 32 hstem
          540 251 rmoveto
          9 11 -10 -6 11 hvcurveto
          -12 -19 -14 -18 -12 -18 -29 -42 -7 -41 -3 -51 2 -9 11 -2 4 9 2 48 23 38 27 40 50 72 16 38 -30 6 -14 3 -18 -9 -16 -1 rrcurveto
          -468 hlineto
          -19 -2 -20 -4 29 -29 rrcurveto
          endchar
        </CharString>
        <CharString name="lozenge">
          256 -21 31 227 46 79 47 209 61 hstem
          497 18 14 44 vstem
          336 256 rmoveto
          7 -6 5 -10 2 vhcurveto
          -24 callgsubr
          -31 7 -24 2 2 28 4 28 5 27 rlinecurve
          -2 25 19 -1 15 hhcurveto
          89 45 8 15 7 -6 4 -10 3 hvcurveto
          -24 callgsubr
          -17 3 -10 3 -4 1 -45 3 rcurveline
          9 26 11 25 13 24 40 73 48 43 57 11 41 9 32 -4 21 -16 38 -28 18 -31 -2 -29 -1 -18 -6 -17 -9 -16 -56 -37 65 2 19 23 20 24 11 25 1 24 rrcurveto
          3 56 -18 44 -39 30 -32 24 -45 5 -58 -12 -80 -17 -67 -57 -50 -96 -16 -29 -12 -29 -10 -31 rrcurveto
          -44 -18 callsubr
          -8 rlineto
          -6 2 -4 4 2 3 3 4 6 vhcurveto
          4 6 7 3 8 hhcurveto
          11 15 -1 -2 18 hvcurveto
          -7 -28 -5 -28 -3 -28 rrcurveto
          -62 -18 callsubr
          -7 rlineto
          -7 2 -4 5 1 3 3 4 6 vhcurveto
          5 6 7 2 8 hhcurveto
          17 24 -1 -4 32 hvcurveto
          1 -20 1 -19 4 -18 12 -56 31 -49 53 -43 57 -44 58 -17 58 12 27 6 27 19 26 32 26 33 14 29 1 27 2 28 -19 -7 -1 -25 rrcurveto
          -16 -10 -22 -19 -25 vhcurveto
          -18 -26 -24 -17 -32 -6 -50 -11 -48 18 -43 48 -37 41 -22 47 -10 51 -4 26 rcurveline
          22 hlineto
          89 45 8 15 hvcurveto
          endchar
        </CharString>
        <CharString name="lslash">
          -16 4 callgsubr
          255 210 -96 callgsubr
          -16 -150 -88 callgsubr
        </CharString>
        <CharString name="m">
          142 -16 19 72 283 hstem
          198 58 vstem
          487 hmoveto
          10 7 -10 15 -11 -6 rrcurveto
          -4 -7 -5 -9 -8 hhcurveto
          -42 6 105 30 -6 hvcurveto
          -6 41 -13 41 -14 39 rrcurveto
          18 -7 -10 15 -21 hhcurveto
          -45 -43 -75 -34 -19 hvcurveto
          12 33 8 39 35 vvcurveto
          33 -15 37 -39 vhcurveto
          -44 -2 -75 -104 -17 -32 -1 29 -6 28 -11 23 -7 12 -16 -9 5 -12 22 -42 -12 -62 -4 -45 -5 -36 -6 -16 -8 -34 -4 -11 26 -7 4 13 17 69 39 58 43 53 rrcurveto
          9 11 28 35 18 16 rrcurveto
          1 -2 0 -2 -2 vvcurveto
          -25 2 -16 -3 -23 vhcurveto
          -3 -23 -1 -17 -4 -23 -3 -26 2 -16 -2 -29 -1 -14 28 -6 5 12 15 32 69 124 34 10 13 -38 0 -43 7 -40 7 -38 41 -108 52 1 rrcurveto
          18 2 10 7 11 hvcurveto
          endchar
        </CharString>
        <CharString name="macron">
          78 438 34 30 28 hstemhm
          95 21 250 16 vstemhm
          hintmask 11110000
          108 506 rmoveto
          8 -11 30 2 14 1 rrcurveto
          80 37 3 78 hhcurveto
          3 12 -2 17 -12 hhcurveto
          -16 -21 0 -1 -15 hvcurveto
          -4 -61 -44 3 -77 hhcurveto
          -17 1 1 -4 5 -10 rrcurveto
          endchar
        </CharString>
        <CharString name="minus">
          -78 callgsubr
        </CharString>
        <CharString name="mu">
          -16 68 34 hstem
          43 30 vstem
          292 87 -85 callgsubr
          -12 -8 11 14 -3 hvcurveto
          4 44 7 38 2 65 rrcurveto
          19 -57 2 1 -19 vhcurveto
          -3 -100 0 -61 1 -95 rrcurveto
          -61 -18 -118 52 -46 vhcurveto
          14 -12 19 20 -16 12 rrcurveto
          -39 36 29 142 50 vvcurveto
          13 -1 12 1 13 vhcurveto
          -8 8 9 -5 10 -81 callgsubr
        </CharString>
        <CharString name="multiply">
          -32 callsubr
          357 386 rmoveto
          -60 -45 -76 -27 -28 hvcurveto
          -8 -10 -31 54 -57 64 -59 -2 rlinecurve
          -35 -1 0 -30 40 3 53 2 35 -69 25 -52 -35 -41 -27 -46 -50 -34 -10 -6 rcurveline
          -5 -6 -45 -37 36 3 29 2 14 11 17 13 41 33 23 39 26 38 4 -8 3 -7 5 -4 15 -20 8 -20 15 -17 14 -17 18 -20 19 -11 rrcurveto
          -11 16 27 -1 27 20 0 21 -20 hhcurveto
          -20 -12 3 7 -11 hvcurveto
          -32 21 -21 51 -20 28 -9 11 -9 15 -9 17 6 8 8 8 6 7 rrcurveto
          18 18 31 71 35 hhcurveto
          11 5 -9 2 6 hvcurveto
          25 11 8 11 -31 10 rrcurveto
          endchar
        </CharString>
        <CharString name="n">
          78 202 19 56 19 66 30 hstem
          -11 26 61 21 32 56 154 43 -91 callsubr
          endchar
        </CharString>
        <CharString name="nbspace">
          -90 endchar
        </CharString>
        <CharString name="nine">
          162 -55 36 90 19 180 55 209 18 57 43 hstem
          2 27 20 54 138 30 84 30 41 40 vstem
          466 439 rmoveto
          103 -57 110 -108 vhcurveto
          -62 hlineto
          -61 -50 -40 -48 -29 hvcurveto
          -23 -35 -27 -25 -46 vvcurveto
          -72 41 -81 62 -26 vhcurveto
          -8 19 9 -1 28 hhcurveto
          107 70 87 111 hvcurveto
          -1 121 -145 -27 1 -66 rrcurveto
          -14 11 -7 4 -11 vhcurveto
          5 -12 18 7 -5 13 rrcurveto
          -4 8 1 7 9 vvcurveto
          1 44 85 22 -1 -94 rrcurveto
          -86 -65 -59 -82 1 vhcurveto
          -64 -41 77 57 15 2 13 6 11 hvcurveto
          51 26 35 61 67 hhcurveto
          62 hlineto
          85 40 -89 -80 -52 -2 -39 -14 -42 hvcurveto
          -27 -76 -7 -33 -51 -67 rrcurveto
          -62 -47 -78 -88 -82 hhcurveto
          -26 -20 9 13 -18 hvcurveto
          -10 7 -15 6 10 vvcurveto
          23 30 22 21 7 7 -6 -8 2 vhcurveto
          4 -12 18 5 -4 13 rrcurveto
          14 -4 -14 13 -16 hhcurveto
          -32 -46 -28 -35 -57 72 -25 45 92 84 100 68 52 hvcurveto
          23 30 20 33 14 33 rrcurveto
          28 68 34 89 73 vvcurveto
          endchar
        </CharString>
        <CharString name="notequal">
          21 callgsubr
          494 211 -10 callsubr
          rrcurveto
          -16 hlineto
          47 91 rlineto
          17 callgsubr
          3 -19 hvcurveto
          8 1 -7 9 -13 hhcurveto
          -95 hlineto
          62 106 11 20 -29 16 -11 -19 rlinecurve
          -72 -123 rlineto
          -183 -35 callgsubr
          33 -13 57 0 62 4 -16 -29 -16 -30 -14 -30 -33 -1 -36 -1 -16 7 -65 callgsubr
          hhcurveto
          13 hlineto
          -23 -50 -20 -53 -19 -57 -8 -21 33 -11 6 21 22 62 22 57 25 53 rrcurveto
          2 71 80 5 69 -12 callsubr
        </CharString>
        <CharString name="ntilde">
          78 200 21 76 -20 84 31 46 45 hstem
          -10 25 61 23 31 56 114 44 33 21 -91 callsubr
          -23 558 rmoveto
          -3 9 -15 4 1 -10 rrcurveto
          -34 3 -25 1 -11 callgsubr
          -20 25 -7 -23 callgsubr
          34 41 -16 hvcurveto
          endchar
        </CharString>
        <CharString name="numbersign">
          126 467 622 rmoveto
          -21 31 -34 15 -41 3 10 26 12 25 14 27 6 13 -19 9 -6 -13 -17 -30 -15 -28 -13 -29 -41 -1 -38 -10 -37 -15 4 7 3 4 5 3 17 10 -15 27 -18 -11 rrcurveto
          -18 -10 -17 -23 -14 -29 -65 -32 -62 -40 -65 -29 -11 -6 8 -18 11 6 56 25 55 32 56 27 -8 -19 -7 -19 -6 -18 -20 -7 rcurveline
          -50 -18 -38 -22 -43 -43 2 -1 rcurveline
          -14 -12 19 -19 12 12 36 36 38 8 42 12 -2 -4 rcurveline
          -8 -24 -2 -24 -4 -24 -4 -31 47 -7 4 31 4 22 9 20 6 21 10 39 rcurveline
          36 11 37 9 38 6 -5 -18 -5 -18 -3 -15 -7 -26 0 -27 -2 -27 -1 -12 19 -1 1 12 1 26 13 22 7 26 19 61 rcurveline
          2 12 14 0 13 hhcurveto
          27 1 16 4 21 -5 20 -6 8 30 -20 6 rrcurveto
          5 -25 -15 12 -33 hhcurveto
          -2 -9 -8 0 -7 hhcurveto
          6 24 7 22 7 22 36 1 32 -6 18 -27 8 -12 19 12 -8 13 rrcurveto
          -138 19 rmoveto
          -23 -70 -39 -4 -39 -8 -36 -10 rlinecurve
          5 21 7 22 7 20 38 14 39 11 41 4 rrcurveto
          endchar
        </CharString>
        <CharString name="o">
          -12 -20 -25 callsubr
          158 -103 callsubr
        </CharString>
        <CharString name="oacute">
          -38 callgsubr
          -45 callgsubr
          269 489 rmoveto
          -5 2 -13 3 -12 -5 -50 -21 -55 -35 -52 13 callsubr
          6 54 20 65 0 49 21 -31 callsubr
          22 -331 -103 callsubr
        </CharString>
        <CharString name="ocircumflex">
          -38 callgsubr
          113 59 -45 callgsubr
          284 444 rmoveto
          13 -23 -100 78 -5 hhcurveto
          -36 -82 -79 -25 -25 hvcurveto
          -19 -19 13 -11 21 17 20 13 39 13 44 28 13 8 14 -5 20 -14 29 -19 44 -7 28 -16 25 -12 4 24 -24 13 rrcurveto
          7 -286 -103 callsubr
        </CharString>
        <CharString name="odieresis">
          -38 callgsubr
          45 71 -45 callgsubr
          276 448 rmoveto
          19 -22 12 -19 -20 -20 -18 -21 3 vhcurveto
          -20 2 15 -12 20 hhcurveto
          19 22 18 callsubr
          -15 17 -19 -20 -16 -17 -19 -2 vhcurveto
          -21 -3 21 -16 20 hhcurveto
          19 15 16 21 hvcurveto
          172 -286 -103 callsubr
        </CharString>
        <CharString name="oe">
          159 -19 31 145 27 56 32 16 29 12 34 hstem
          13 58 135 19 225 28 vstem
          478 15 callgsubr
          -1 -31 49 -32 hhcurveto
          -13 -10 0 -3 -14 hvcurveto
          -45 -14 -34 -32 -20 -42 -10 26 -16 21 -20 -1 rrcurveto
          -88 callsubr
          vvcurveto
          24 23 -16 13 -37 vhcurveto
          -11 -27 -4 -29 -27 vvcurveto
          -4 vlineto
          1 -7 2 -5 1 -6 -7 -17 rcurveline
          -102 callgsubr
          26 14 24 28 16 32 rrcurveto
          -40 21 36 -31 52 hhcurveto
          45 -85 callsubr
          19 6 17 -39 callsubr
          27 47 38 hvcurveto
          -28 hmoveto
          -44 callgsubr
          -2 -1 -58 callgsubr
          7 2 12 hhcurveto
          7 26 -29 -17 hvcurveto
          endchar
        </CharString>
        <CharString name="ogonek">
          -4 callsubr
          168 -26 rmoveto
          2 22 -10 20 -11 -23 -15 -24 -9 -29 -13 -3 rrcurveto
          -83 -19 -39 -71 -62 vvcurveto
          1 -3 15 -46 38 -43 68 -1 rlinecurve
          44 36 34 32 15 hvcurveto
          11 22 -21 2 -9 -22 rrcurveto
          -18 -9 -47 -25 -24 hhcurveto
          -37 -24 34 36 -11 hvcurveto
          -1 7 -3 6 2 6 2 14 4 14 7 15 18 28 21 20 17 7 47 18 16 33 2 19 rrcurveto
          endchar
        </CharString>
        <CharString name="ograve">
          -38 callgsubr
          -45 callgsubr
          218 416 rmoveto
          -52 20 -55 34 -49 21 -13 5 -13 -3 -5 -2 -16 -5 -2 -37 26 -11 49 -21 65 1 54 -20 1 callgsubr
          73 -258 -103 callsubr
        </CharString>
        <CharString name="one">
          3 -34 23 63 25 345 -20 hstem
          144 34 vstem
          252 77 rmoveto
          -17 7 -19 0 -20 -6 1 5 0 5 -3 7 rrcurveto
          -14 24 -2 29 27 vvcurveto
          57 18 50 18 54 vhcurveto
          18 56 39 142 -22 58 rrcurveto
          4 -1 2 -2 2 vhcurveto
          3 -1 2 -2 2 vhcurveto
          -21 36 -20 -67 -2 -15 -1 -7 rcurveline
          -5 -10 -5 -9 -2 -6 rrcurveto
          -29 -11 -28 -78 -46 hhcurveto
          -8 1 15 4 hvcurveto
          -1 13 -19 0 -13 vvcurveto
          -9 1 8 -30 19 hhcurveto
          20 14 7 14 13 hvcurveto
          10 12 12 12 13 12 -7 -37 -9 -36 -11 -32 rrcurveto
          -10 -31 -4 -105 -43 vvcurveto
          -20 5 -67 7 -13 vhcurveto
          2 -4 2 -4 4 -2 -34 -16 -31 -27 -18 -26 -3 -5 -1 -7 -2 -4 -12 -25 32 14 8 12 28 43 66 41 44 -17 19 -8 11 29 -19 8 rrcurveto
          endchar
        </CharString>
        <CharString name="onehalf">
          485 -58 22 38 33 88 21 55 16 44 18 -2 18 120 30 61 14 hstemhm
          101 24 -15 30 282 6 callsubr
          hintmask 0001100110000000
          176 277 -96 callsubr
          hintmask 1000000001000000
          421 372 -93 callsubr
          hintmask 0110011000111111
          162 -562 -94 callsubr
        </CharString>
        <CharString name="onequarter">
          432 -58 22 -15 30 134 41 45 16 44 18 3 -21 245 14 hstemhm
          101 24 -15 30 524 15 40 14 hintmask 0110010001100000
          732 243 -93 callgsubr
          hintmask 1000000010000000
          -135 406 -93 callsubr
          hintmask 0001101100000000
          -421 -372 -96 callsubr
          endchar
        </CharString>
        <CharString name="onesuperior">
          -96 199 16 44 18 227 14 hstem
          101 24 vstem
          176 277 -96 callsubr
          endchar
        </CharString>
        <CharString name="ordfeminine">
          -54 362 -14 callsubr
          389 -103 callgsubr
        </CharString>
        <CharString name="ordmasculine">
          -12 340 -25 callsubr
          518 -103 callsubr
        </CharString>
        <CharString name="oslash">
          -12 -37 22 -5 32 100 72 56 31 58 34 hstemhm
          -86 30 69 58 43 80 10 20 47 19 hintmask 1011111111000000
          274 335 rmoveto
          -3 hlineto
          7 8 -3 14 -13 hhcurveto
          -5 -10 -5 -5 -3 hvcurveto
          -4 -12 -8 -13 -8 -12 rrcurveto
          36 -1 -31 18 -32 hhcurveto
          -39 -23 -18 -26 -24 hvcurveto
          -79 callgsubr
          -33 12 -37 18 -30 vhcurveto
          -14 -21 -19 -40 -24 vvcurveto
          -1 -6 3 -3 4 -5 3 -7 12 5 -3 8 rrcurveto
          3 -2 1 4 vvcurveto
          16 13 26 16 26 vhcurveto
          7 -8 6 -8 8 -5 -79 callsubr
          52 26 37 82 56 vvcurveto
          37 -20 73 -35 4 vhcurveto
          16 20 15 22 7 21 rrcurveto
          -65 -133 rmoveto
          -75 callgsubr
          32 41 -37 -65 vvcurveto
          -33 -9 -20 -14 -28 vhcurveto
          hintmask 0111111111000000
          -76 callsubr
          -10 8 -6 9 -4 13 7 10 7 9 4 7 28 43 43 50 33 38 rrcurveto
          -10 7 -7 3 -9 vhcurveto
          -138 -55 rmoveto
          -97 callgsubr
          8 -15 11 -15 17 -6 -2 -3 rcurveline
          -36 -39 -36 -58 -28 -43 -5 -8 rcurveline
          -2 14 2 16 15 vvcurveto
          endchar
        </CharString>
        <CharString name="otilde">
          -38 callgsubr
          38 45 -45 callgsubr
          291 476 rmoveto
          -3 10 -15 5 -12 vvcurveto
          -33 3 -25 0 -26 hhcurveto
          -53 -28 42 -6 -70 hvcurveto
          -16 -3 -34 -41 -20 vvcurveto
          -19 26 -7 5 32 vhcurveto
          4 33 66 -27 22 -8 rrcurveto
          -12 33 8 callsubr
          44 35 40 -15 hvcurveto
          -318 vmoveto
          -105 callgsubr
        </CharString>
        <CharString name="p">
          40 -368 35 248 25 70 54 139 -20 193 38 hstem
          -1 29 16 57 45 31 37 25 52 58 vstem
          349 274 rmoveto
          61 -25 79 -76 -26 -28 -26 -27 -24 vhcurveto
          -19 -21 -27 -39 -19 -40 -3 32 -2 33 1 32 rrcurveto
          15 -15 20 6 7 vhcurveto
          11 12 -19 16 -11 -12 rrcurveto
          -8 -9 -22 -24 -22 vvcurveto
          -4 -116 36 -114 -114 vvcurveto
          -85 1 -98 -22 -74 vhcurveto
          -29 -9 -19 -60 -38 hhcurveto
          -61 -12 104 38 4 hvcurveto
          25 3 25 77 34 hhcurveto
          21 -3 -36 -18 -28 -3 -29 -27 -3 hvcurveto
          -19 -3 3 -28 19 3 rrcurveto
          41 5 15 41 43 vvcurveto
          29 -12 50 -35 vhcurveto
          -43 -1 -41 -93 -3 -32 -6 -48 21 -130 79 -1 rrcurveto
          52 43 72 40 12 hvcurveto
          24 78 13 101 89 vvcurveto
          68 -12 68 -9 69 vhcurveto
          22 62 63 96 53 -2 rrcurveto
          38 5 -75 -28 hvcurveto
          -1 -63 -29 -103 -39 -28 rrcurveto
          -4 -5 -12 -12 -4 hhcurveto
          -16 -9 36 13 21 0 46 31 10 -4 -14 -9 1 hvcurveto
          -17 25 2 -1 17 vhcurveto
          19 -2 -9 25 -20 hhcurveto
          -37 -25 -60 -30 -27 22 -76 34 16 16 6 10 14 hvcurveto
          70 50 31 118 80 vvcurveto
          endchar
        </CharString>
        <CharString name="paragraph">
          50 669 28 hstem
          204 29 29 21 vstem
          233 4 rmoveto
          8 181 45 331 -66 168 -3 8 -2 2 -8 3 -136 10 -102 -191 115 -93 65 -51 93 136 -56 68 -42 48 -79 -101 71 -23 21 -5 1 26 -17 5 rrcurveto
          3 -2 -2 0 -1 hhcurveto
          5 44 37 -15 -2 -42 -2 -37 -56 -68 -36 53 rrcurveto
          78 -51 65 127 100 hhcurveto
          56 -140 -40 -358 -8 -162 rrcurveto
          -5 -31 34 26 0 vvcurveto
          43 -11 rmoveto
          15 51 -11 52 3 52 22 184 25 138 -15 143 -3 27 -16 23 -7 28 -6 16 -18 1 -5 -19 5 -28 15 -33 1 -28 15 -155 -16 -128 -18 -156 -4 -50 -4 -84 -5 -26 rrcurveto
          -5 -31 32 23 0 vvcurveto
          endchar
        </CharString>
        <CharString name="parenleft">
          -17 671 -21 hstem
          56 58 240 23 vstem
          377 612 rmoveto
          32 -1 -23 27 -33 hhcurveto
          -28 -21 -9 -14 -19 hvcurveto
          -133 -99 -56 -117 -7 -169 rrcurveto
          -1 -18 1 -11 -18 vvcurveto
          -4 vlineto
          -115 63 -173 108 -65 vhcurveto
          33 -20 30 50 -34 20 -81 50 -47 145 -14 114 rrcurveto
          111 2 179 102 78 vhcurveto
          23 32 26 38 43 hhcurveto
          19 15 -15 -20 -24 -15 -11 -15 -16 hvcurveto
          -10 -11 15 -15 10 10 rrcurveto
          22 21 17 14 32 vvcurveto
          endchar
        </CharString>
        <CharString name="parenright">
          -33 -152 33 780 24 hstem
          213 58 vstem
          271 300 rmoveto
          83 -11 84 -21 74 vhcurveto
          73 -21 -38 71 -92 hhcurveto
          -41 -15 -34 -20 -31 hvcurveto
          -2 vlineto
          -10 -7 10 -16 10 7 14 9 10 6 9 8 rrcurveto
          10 12 16 15 16 hhcurveto
          73 6 -77 -58 16 hvcurveto
          19 -69 11 -80 -78 vvcurveto
          -111 -11 -136 -54 -99 vhcurveto
          -27 -15 -20 -45 -33 hhcurveto
          -9 -12 0 6 -7 hvcurveto
          -15 11 -25 -8 17 -13 rrcurveto
          -13 16 8 -16 27 hhcurveto
          45 42 47 38 20 hvcurveto
          37 66 28 61 10 86 rrcurveto
          7 57 2 43 54 vvcurveto
          endchar
        </CharString>
        <CharString name="partialdiff">
          160 316 314 rmoveto
          -51 callgsubr
          39 89 -37 242 -65 77 -54 66 -171 32 -64 -82 rrcurveto
          -11 -16 15 -16 14 13 55 69 128 -47 47 -58 64 -77 28 -141 -33 -100 -50 callsubr
          rrcurveto
          endchar
        </CharString>
        <CharString name="percent">
          149 -91 callgsubr
          endchar
        </CharString>
        <CharString name="period">
          -18 callgsubr
          222 53 -81 callsubr
        </CharString>
        <CharString name="periodcentered">
          -82 339 21 20 15 24 16 22 29 hstem
          72 29 17 15 45 16 vstem
          194 353 -21 callsubr
          -41 -38 vvcurveto
          -39 -62 callsubr
          2 -20 21 25 vvcurveto
          22 23 29 24 14 16 -53 callsubr
          -2 -17 callsubr
          -1 22 23 25 vvcurveto
          endchar
        </CharString>
        <CharString name="perthousand">
          236 -91 callgsubr
          161 hmoveto
          -42 callsubr
          24 17 hvcurveto
          -1 vlineto
          16 11 -16 24 -16 -52 callsubr
          endchar
        </CharString>
        <CharString name="pi">
          -6 callgsubr
          486 34 30 28 hstemhm
          -50 21 67 58 -33 58 100 15 hintmask 11111010
          349 vmoveto
          4 -7 12 -4 11 -1 1 -3 2 -2 2 -3 9 -19 -45 callsubr
          5 -14 -3 -14 vhcurveto
          -4 -29 -1 -24 -5 -24 rrcurveto
          -4 -29 -4 -28 -32 vvcurveto
          -38 51 -70 29 19 vhcurveto
          13 21 -3 6 -18 hhcurveto
          hintmask 11110110
          -24 -15 44 26 28 3 26 5 27 hvcurveto
          3 26 10 22 4 29 4 21 9 49 -8 34 rrcurveto
          41 33 1 1 33 hvcurveto
          -4 3 -3 3 -4 vhcurveto
          9 -19 -45 callsubr
          4 -14 -2 -14 vhcurveto
          -5 -29 -1 -24 -4 -24 -60 callgsubr
          -54 35 3 vhcurveto
          19 1 15 18 -29 6 rrcurveto
          -19 5 -26 33 26 vvcurveto
          -68 callgsubr
          3 21 11 52 -9 35 rrcurveto
          30 hlineto
          4 15 -3 24 -14 hhcurveto
          -15 -17 0 -2 -14 hvcurveto
          -7 4 -8 2 -9 -1 rrcurveto
          -1 1 -2 -1 hhcurveto
          -7 -4 -3 -2 -5 hvcurveto
          -2 -43 -38 1 -47 hhcurveto
          -7 7 -9 2 -12 -1 rrcurveto
          -2 2 -2 -2 hhcurveto
          -6 -5 -3 -2 -3 hvcurveto
          -23 hlineto
          -20 1 1 -4 6 -14 rrcurveto
          endchar
        </CharString>
        <CharString name="plus">
          116 3 callgsubr
          354 288 -73 callgsubr
          hhcurveto
          -6 -4 -1 -1 -5 hvcurveto
          28 7 48 -14 51 vhcurveto
          -5 19 -11 -6 -21 vvcurveto
          -5 -1 -5 -6 -11 vvcurveto
          -77 0 -10 -1 -13 vhcurveto
          -2 -3 1 -2 -90 callgsubr
          10 -3 13 -1 13 -1 rrcurveto
          -31 -4 -26 -1 -31 vhcurveto
          -1 vlineto
          -1 -11 0 -10 -9 vvcurveto
          3 -28 36 -12 17 vvcurveto
          10 -2 17 -2 9 vhcurveto
          -4 26 7 33 2 47 rrcurveto
          1 5 4 1 6 -63 callgsubr
          endchar
        </CharString>
        <CharString name="plusminus">
          212 192 58 160 50 hstem
          269 56 vstem
          482 444 rmoveto
          8 1 -7 8 -13 hhcurveto
          -126 hlineto
          44 -5 45 -13 38 vhcurveto
          5 -2 6 -3 3 vhcurveto
          -3 7 -6 15 -15 -1 -8 -8 rlinecurve
          -10 2 -13 -9 3 -13 6 -24 3 -26 2 -25 -2 -19 -1 -20 -1 -20 rrcurveto
          -123 -35 callgsubr
          28 -10 46 -2 51 2 2 -31 rcurveline
          -2 -38 rlineto
          -2 -14 -2 -15 -14 vvcurveto
          -17 17 -6 10 8 vhcurveto
          10 -9 16 5 1 16 rrcurveto
          4 4 2 4 6 vvcurveto
          41 vlineto
          4 20 4 22 2 22 rrcurveto
          17 callgsubr
          4 -19 hvcurveto
          12 -233 -66 callsubr
        </CharString>
        <CharString name="product">
          326 701 -20 hstemhm
          131 34 338 40 -22 35 hintmask 11010000
          175 -49 rmoveto
          18 109 -22 121 -6 109 -7 127 12 102 4 126 123 -11 99 8 125 1 rrcurveto
          hintmask 11100000
          -9 -170 -12 -169 3 -173 2 -63 -8 -39 1 -64 rrcurveto
          3 -10 43 0 13 vvcurveto
          -1 62 2 101 -2 63 rrcurveto
          hintmask 11010000
          -3 172 7 110 9 172 1 28 rcurveline
          5 1 4 6 vvcurveto
          -1 hlineto
          5 2 -3 5 -8 hhcurveto
          -98 -27 -199 18 -109 2 -4 2 -6 -3 -1 -6 -1 -133 -16 -132 7 -133 7 -108 21 -119 -18 -109 6 -35 18 14 20 19 rrcurveto
          endchar
        </CharString>
        <CharString name="q">
          -18 -352 36 65 19 46 21 144 24 234 28 103 31 hstem
          -9 53 130 48 24 22 104 31 vstem
          403 -244 rmoveto
          10 -2 8 -2 8 vhcurveto
          -10 39 -16 17 -43 -2 rrcurveto
          -13 -25 -26 -17 hvcurveto
          -34 1 23 -10 27 hhcurveto
          1 11 0 19 -12 hhcurveto
          -21 -1 -9 6 19 vvcurveto
          8 -1 14 14 5 hhcurveto
          35 -1 7 -31 -27 vvcurveto
          -25 -21 -47 -27 -81 -13 137 71 -7 vhcurveto
          -2 21 -1 15 18 vvcurveto
          34 3 37 4 35 vhcurveto
          6 5 6 6 4 6 13 24 23 45 -1 33 rrcurveto
          27 -13 20 -21 -13 -39 -95 -19 -3 vhcurveto
          -3 -20 -2 -22 -3 -24 rrcurveto
          -17 -20 -33 -18 -28 hhcurveto
          -51 -5 68 51 hvcurveto
          1 71 22 84 45 42 6 6 15 22 7 4 rrcurveto
          6 13 33 10 14 hhcurveto
          33 1 12 -10 1 -31 rrcurveto
          -29 -21 -33 -27 vhcurveto
          -5 -1 -23 22 -1 1 1 1 rcurveline
          -5 11 -17 -9 5 -11 6 -14 1 -9 8 -6 rrcurveto
          -8 10 8 -6 12 hhcurveto
          38 1 31 49 1 41 rrcurveto
          16 -3 9 -6 11 vhcurveto
          19 -11 -27 17 -21 hhcurveto
          -78 -1 5 9 -52 -50 -59 -57 -23 -101 -1 -77 rrcurveto
          -70 38 -73 71 26 29 15 17 22 vhcurveto
          -2 -22 -1 -23 -20 vvcurveto
          -85 31 -213 118 40 39 70 38 vhcurveto
          endchar
        </CharString>
        <CharString name="question">
          149 4 45 81 31 61 23 167 32 129 27 93 57 hstem
          86 34 54 29 14 32 4 24 16 19 111 59 vstem
          482 567 rmoveto
          114 -62 71 -124 -2 vhcurveto
          -17 -5 -4 -1 -20 hvcurveto
          -102 -8 -66 -86 -104 vvcurveto
          -56 29 -79 68 49 42 49 55 2 vhcurveto
          23 -4 20 -11 17 vhcurveto
          12 -9 -11 12 -13 hhcurveto
          -32 -22 -37 -23 -23 18 0 8 -10 3 callsubr
          9 -11 16 15 -9 11 rrcurveto
          -3 3 -10 8 6 vvcurveto
          12 9 21 16 18 6 -45 -12 vhcurveto
          -39 1 -35 -33 -35 hhcurveto
          -18 -10 13 11 -8 hvcurveto
          -18 25 -9 20 32 vvcurveto
          103 89 46 87 -1 vhcurveto
          86 -1 41 -47 -78 vvcurveto
          -14 -3 -15 -6 -14 vhcurveto
          -15 -36 -9 -33 -39 -19 rrcurveto
          -59 -28 -75 -34 -78 vvcurveto
          -46 35 -30 43 1 vhcurveto
          31 14 22 25 3 hvcurveto
          2 15 -26 4 -2 -17 rrcurveto
          -12 -1 -5 -13 -15 hhcurveto
          -38 -1 -9 12 39 vvcurveto
          34 24 26 27 17 vhcurveto
          46 27 61 -5 31 63 rrcurveto
          18 35 26 34 41 vvcurveto
          -167 -549 rmoveto
          32 12 -31 32 -23 -14 rrcurveto
          -3 -5 1 3 -2 hhcurveto
          -24 -18 0 19 -12 hvcurveto
          -5 8 -2 6 9 vvcurveto
          21 24 18 21 11 11 -5 -14 vhcurveto
          -1 -4 0 -11 -4 -1 -2 2 rcurveline
          -2 1 -1 2 -1 1 rrcurveto
          -4 8 -15 -2 -11 vvcurveto
          -7 1 16 -14 7 hhcurveto
          20 1 5 18 17 vvcurveto
          32 -1 -15 18 -25 hhcurveto
          -41 -49 -29 -43 -66 43 -19 62 20 3 13 2 6 hvcurveto
          endchar
        </CharString>
        <CharString name="questiondown">
          113 -268 57 92 27 131 32 190 -21 81 32 80 45 hstem
          12 59 112 19 16 24 3 32 14 29 54 34 vstem
          408 -65 rmoveto
          56 -29 77 -68 1 vhcurveto
          -49 -42 -48 -55 -2 hvcurveto
          -23 3 -20 12 -17 vhcurveto
          -11 8 12 -13 12 hhcurveto
          33 -1 22 37 24 vvcurveto
          22 -18 0 -9 10 vhcurveto
          -9 10 -15 -14 9 -11 rrcurveto
          3 -4 10 -8 -5 vvcurveto
          -11 -9 -22 -17 vhcurveto
          -17 -1 -6 46 11 vvcurveto
          -1 41 35 34 35 -1 rrcurveto
          18 10 -14 -12 8 hvcurveto
          18 -24 9 -20 -33 vvcurveto
          -102 -90 -45 -86 -86 -41 47 79 13 3 16 6 13 vhcurveto
          15 37 9 34 39 19 rrcurveto
          59 28 75 34 78 vvcurveto
          45 -35 29 -43 -31 -15 -21 -25 -2 vhcurveto
          -2 -17 26 -3 2 17 rrcurveto
          13 1 5 12 15 hhcurveto
          38 9 -12 -38 -34 -24 -25 -27 -17 hvcurveto
          -46 -28 -60 4 -32 -62 rrcurveto
          -17 -34 -27 -35 -40 vvcurveto
          -114 62 -70 124 17 5 4 1 20 vhcurveto
          102 8 66 86 104 vvcurveto
          -96 458 rmoveto
          65 -42 18 -62 1 vhcurveto
          -20 -3 -11 -2 -6 hvcurveto
          -32 -13 31 -31 22 13 rrcurveto
          4 6 -1 -4 2 hhcurveto
          24 -1 18 0 12 -19 rrcurveto
          4 -6 3 -6 -9 vvcurveto
          -21 -24 -18 -21 vhcurveto
          -11 -1 -12 4 15 vvcurveto
          2 3 0 11 4 1 rrcurveto
          2 vlineto
          2 -3 4 -3 rlineto
          4 -9 15 1 11 vvcurveto
          7 -1 -16 15 -7 hhcurveto
          -20 -6 -18 -17 hvcurveto
          -34 2 15 -18 25 hhcurveto
          41 1 48 30 42 vvcurveto
          endchar
        </CharString>
        <CharString name="quotedbl">
          -24 callsubr
          -7 40 -55 -21 -37 -37 -17 -23 25 -34 26 16 13 11 20 19 callsubr
          -21 15 11 -30 -4 vvcurveto
          -2 -3 2 -2 -3 -16 22 4 11 15 14 11 18 15 -42 -13 -21 -34 -74 -11 -15 vhcurveto
          -8 -9 15 -12 8 10 rrcurveto
          13 17 46 77 26 vvcurveto
          -138 -5 rmoveto
          25 -4 60 -36 1 vhcurveto
          -15 -10 -7 -9 -6 hvcurveto
          -4 -5 -18 -33 -8 vvcurveto
          -8 -2 -18 6 -10 vhcurveto
          -7 4 28 -11 4 hhcurveto
          10 1 16 21 8 vvcurveto
          9 -4 2 -2 7 vhcurveto
          -4 11 -18 -5 5 -13 rrcurveto
          -4 1 -2 -5 vvcurveto
          -1 -3 1 -1 vhcurveto
          -4 1 -8 19 4 vvcurveto
          1 -4 9 0 vhcurveto
          11 3 10 22 15 hhcurveto
          19 2 3 -55 -13 vvcurveto
          1 -5 -2 -22 -1 vvcurveto
          -7 -34 -28 -24 -14 -31 -8 -18 27 -12 8 17 2 6 2 6 4 4 23 38 10 29 1 46 rrcurveto
          endchar
        </CharString>
        <CharString name="quotedblbase">
          32 -109 224 hstem
          77 94 54 94 vstem
          319 29 rmoveto
          -44 callsubr
          23 -8 vhcurveto
          9 1 18 -76 callgsubr
          -5 hlineto
          -5 -71 callsubr
          -36 -23 vvcurveto
          -8 7 -7 8 27 28 113 25 vhcurveto
          -148 hmoveto
          -73 callsubr
        </CharString>
        <CharString name="quotedblleft">
          -52 458 30 54 27 hstem
          30 25 121 30 74 19 vstem
          298 542 rmoveto
          20 -18 17 -20 -10 -7 -6 -9 -4 vhcurveto
          1 -3 -3 -4 -1 -4 rrcurveto
          -3 -1 -3 -3 -5 vvcurveto
          -6 7 -25 9 7 6 4 7 4 -9 16 -2 4 vhcurveto
          8 8 5 3 rlineto
          11 6 -10 -10 -24 -16 -27 -26 -22 -10 43 18 24 20 64 25 7 hvcurveto
          6 2 5 4 6 vvcurveto
          6 -4 7 -5 -48 -28 -82 -39 -35 19 -55 41 45 18 46 38 vhcurveto
          -145 -23 rmoveto
          20 -25 30 -20 -12 -28 -12 -14 -5 4 -6 5 vhcurveto
          8 -1 10 19 hhcurveto
          5 6 2 -6 -7 -4 -8 1 -6 hvcurveto
          -13 -6 -6 -18 -17 hhcurveto
          -20 -7 22 17 51 17 56 44 28 hvcurveto
          2 hlineto
          4 8 rlineto
          6 -6 2 -6 -1 -1 -4 callgsubr
          39 36 35 30 39 vhcurveto
          endchar
        </CharString>
        <CharString name="quotedblright">
          -24 callsubr
          -8 40 -54 -19 -39 -35 -19 -25 25 -32 26 19 10 13 18 19 callsubr
          1 -2 -3 3 -4 hhcurveto
          -3 -1 -5 -2 -6 2 -5 1 -5 hvcurveto
          -5 hlineto
          -19 26 rlineto
          11 15 14 11 18 15 -41 -14 vhcurveto
          -32 -47 -80 -5 vvcurveto
          -4 6 -3 4 15 51 104 19 vhcurveto
          -138 -5 rmoveto
          26 -4 60 -36 -34 -19 -50 -28 -28 17 -2 23 -69 callsubr
        </CharString>
        <CharString name="quoteleft">
          -124 450 36 56 27 hstem
          55 25 59 39 vstem
          178 519 rmoveto
          20 -26 30 -20 -11 -27 -12 -14 -5 2 -6 7 vhcurveto
          8 -1 10 19 hhcurveto
          4 7 2 -6 hvcurveto
          -7 -4 -8 -6 vvcurveto
          -13 -5 -7 -18 -18 hhcurveto
          -20 -6 22 17 51 16 56 45 28 hvcurveto
          1 hlineto
          5 8 rlineto
          6 -6 2 -5 -3 0 -4 callgsubr
          38 37 35 30 39 vhcurveto
          endchar
        </CharString>
        <CharString name="quoteright">
          -67 651 0 callgsubr
          590 rmoveto
          -44 callsubr
          24 -69 callsubr
        </CharString>
        <CharString name="quotesinglbase">
          -67 90 0 callgsubr
          29 rmoveto
          -73 callsubr
        </CharString>
        <CharString name="quotesingle">
          -202 479 -21 hstem
          27 19 31 22 10 27 vstem
          136 485 rmoveto
          10 -3 8 -1 9 vhcurveto
          -11 63 -73 0 -16 -61 rrcurveto
          -2 -7 -3 -5 -7 vvcurveto
          -20 13 -18 22 16 18 9 21 1 vhcurveto
          15 -6 2 -9 8 vhcurveto
          -8 7 -10 -12 8 -6 rrcurveto
          6 -7 -1 0 -7 vvcurveto
          -5 -12 -3 -3 -13 -4 5 10 6 0 4 1 4 vhcurveto
          7 22 16 17 19 -4 15 -2 0 -21 2 -13 rrcurveto
          1 -6 3 -7 -8 vvcurveto
          -46 -21 -56 -24 -32 vhcurveto
          -6 -8 13 -9 6 8 rrcurveto
          26 34 33 59 49 vvcurveto
          endchar
        </CharString>
        <CharString name="r">
          -20 -37 22 208 30 208 28 hstem
          46 59 85 27 66 43 vstem
          327 352 rmoveto
          47 -28 58 -46 1 vhcurveto
          -42 -28 -34 -40 -24 hvcurveto
          -35 -63 -12 -45 -19 -68 -2 22 -4 20 -5 22 -6 25 -22 41 -26 9 -13 5 -7 -22 14 -4 30 -10 -8 -197 2 -31 2 -19 8 -30 -7 -19 -2 -3 rcurveline
          -2 0 -3 -1 -2 vhcurveto
          -14 -46 44 -24 25 56 10 22 -1 37 -4 37 7 35 -8 33 10 36 rrcurveto
          48 14 51 187 72 hhcurveto
          34 -3 -46 -34 -32 -9 -96 -42 -12 -2 36 12 22 0 21 8 16 hvcurveto
          6 12 -17 9 -6 -12 -10 -19 -10 -22 1 -28 rrcurveto
          -21 19 -56 24 54 40 118 41 vhcurveto
          endchar
        </CharString>
        <CharString name="radical">
          238 -46 -21 hstem
          231 47 vstem
          124 160 rmoveto
          40 56 28 12 39 49 -8 -108 21 -56 34 -103 5 -17 9 -56 24 -4 4 1 3 2 1 4 25 166 36 167 54 159 26 75 29 56 30 71 6 11 -73 34 -6 -11 rrcurveto
          -23 -53 -2 -103 -26 -79 -52 -153 -12 -156 -26 -160 -21 64 -8 85 -3 67 -1 43 -4 68 -10 30 -2 7 -6 4 -6 -6 -15 -16 -39 -19 -15 -17 -30 -32 -11 -25 -34 -30 rrcurveto
          -13 -48 13 7 19 14 rrcurveto
          endchar
        </CharString>
        <CharString name="registered">
          785 -46 40 153 45 120 52 hstem
          41 54 444 51 170 -89 callsubr
          -169 18 rmoveto
          54 -19 86 -74 -25 -23 -4 -7 -18 vhcurveto
          -13 -10 0 -1 -8 hvcurveto
          -30 -4 -6 -18 6 -13 -5 -2 -3 -3 -1 -6 -1 -10 -3 -9 -3 -9 -12 -23 -10 -28 -11 -28 rrcurveto
          -1 vlineto
          -9 -4 -3 -8 5 -10 -8 -23 -6 -23 -5 -22 -14 -55 -12 -50 -23 -55 -7 -19 14 -13 18 10 30 20 8 39 5 32 4 34 3 27 7 25 4 16 5 16 6 15 rrcurveto
          4 -3 6 -2 5 -3 24 -41 18 -68 37 -37 rrcurveto
          -22 12 16 -17 23 hhcurveto
          29 19 12 25 14 hvcurveto
          3 4 3 6 1 3 2 3 rcurveline
          -1 hlineto
          6 28 -22 9 -12 -19 rrcurveto
          -12 -8 -3 -14 -17 hhcurveto
          -15 -12 6 11 -11 hvcurveto
          -14 34 -11 38 -18 33 rrcurveto
          -2 7 5 0 7 hhcurveto
          40 110 51 51 hvcurveto
          -51 38 rmoveto
          -51 -44 -37 -51 -33 -34 7 9 -14 vhcurveto
          1 -2 -3 1 -1 hhcurveto
          9 26 11 23 8 26 14 23 17 18 23 12 rrcurveto
          41 59 -3 -55 hvcurveto
          endchar
        </CharString>
        <CharString name="ring">
          -18 456 33 hstem
          120 33 83 34 vstem
          270 510 rmoveto
          63 -52 24 -46 -3 vhcurveto
          -3 -2 -2 -1 -1 hvcurveto
          -4 -3 0 -2 -3 hvcurveto
          -23 -13 -13 -19 -27 vvcurveto
          -58 70 -16 35 36 9 22 32 vhcurveto
          -34 hmoveto
          -7 0 -7 -3 -5 vhcurveto
          0 -2 -2 -6 -39 -33 16 25 13 5 8 14 9 vhcurveto
          3 hlineto
          34 1 27 -14 -37 vvcurveto
          endchar
        </CharString>
        <CharString name="s">
          -107 -28 17 callsubr
          hstem
          47 29 7 16 104 15 vstem
          217 385 rmoveto
          1 41 -38 40 -38 -11 rrcurveto
          -48 -14 -47 -69 -51 vvcurveto
          -65 52 7 42 -12 vhcurveto
          39 -12 3 -17 -38 vvcurveto
          -50 -16 -46 -25 -38 vhcurveto
          -12 -9 -15 -21 -17 hhcurveto
          -5 -2 11 3 -2 hvcurveto
          -17 22 -8 33 29 vvcurveto
          28 8 21 15 20 vhcurveto
          8 4 2 8 7 hhcurveto
          15 7 -22 -14 hvcurveto
          3 -14 rlineto
          -23 -31 -31 42 10 -15 0 -10 vvcurveto
          1 -6 -3 -7 1 -5 rrcurveto
          6 -60 57 64 26 vvcurveto
          4 14 rlineto
          26 -16 44 -29 -1 vhcurveto
          -18 -20 -3 -19 -13 hvcurveto
          -21 -27 -11 -31 -39 vvcurveto
          -34 10 -44 24 -33 vhcurveto
          -11 8 23 -20 16 hhcurveto
          19 14 11 14 14 hvcurveto
          10 10 6 13 7 11 rrcurveto
          28 44 14 53 56 vvcurveto
          48 -15 29 -48 15 vhcurveto
          -29 7 -45 -3 41 vvcurveto
          41 36 56 38 11 vhcurveto
          25 7 28 -25 -27 vvcurveto
          -24 -14 -33 -23 -6 -4 12 5 7 3 2 5 5 vhcurveto
          -2 -1 7 8 -12 9 -7 -8 rlinecurve
          -7 -8 -7 -1 -14 vvcurveto
          -10 1 15 -24 14 hhcurveto
          31 20 43 33 hvcurveto
          endchar
        </CharString>
        <CharString name="scaron">
          -107 -117 -17 115 207 endchar
        </CharString>
        <CharString name="section">
          205 -153 33 117 53 hstem
          149 34 39 68 189 34 vstem
          513 631 rmoveto
          -3 75 -74 15 -61 1 rrcurveto
          5 -5 -7 4 -12 hhcurveto
          -27 -26 -19 -25 -19 hvcurveto
          -35 -28 -23 -42 -44 vvcurveto
          -5 0 -7 1 -5 vhcurveto
          -5 -7 -4 -8 -5 -8 rrcurveto
          -23 -19 -18 -30 -40 vvcurveto
          -11 0 -9 1 -8 vhcurveto
          -1 -7 0 -8 -9 vvcurveto
          -72 82 -132 52 -48 vhcurveto
          45 -41 2 -5 29 -55 21 -40 1 -43 18 -36 3 -5 rcurveline
          -26 -26 -68 -9 -24 hhcurveto
          -50 -69 47 43 11 16 16 1 16 10 -14 -18 6 hvcurveto
          1 -5 1 -1 7 -23 31 10 -5 23 rlinecurve
          -2 2 -1 2 2 vvcurveto
          25 -6 -6 50 -32 hhcurveto
          -32 -21 -26 -27 -10 hvcurveto
          -1 -1 0 -2 vvcurveto
          -5 -9 -2 -9 -6 vvcurveto
          -72 96 -51 57 51 110 20 69 45 -21 45 -26 48 vhcurveto
          -15 44 -25 39 -21 24 -47 52 rcurveline
          -47 69 -38 71 72 vvcurveto
          18 3 20 6 18 vhcurveto
          29 -89 72 -80 48 -73 30 -46 66 -83 -36 -55 -13 -19 23 -18 16 17 rrcurveto
          22 25 14 31 31 vvcurveto
          37 -9 32 -18 25 vhcurveto
          -9 32 -21 22 -23 22 rrcurveto
          -51 52 -82 122 73 vvcurveto
          60 24 33 50 19 vhcurveto
          8 2 10 7 8 9 39 -2 48 -12 2 -47 1 -22 34 2 -1 23 rrcurveto
          endchar
        </CharString>
        <CharString name="semicolon">
          -82 119 -20 123 19 callgsubr
          75 30 9 36 5 15 51 15 vstem
          228 20 rmoveto
          26 -10 30 -14 20 vhcurveto
          9 -6 -32 14 -14 hhcurveto
          -42 -33 -44 -40 -1 hvcurveto
          -24 12 -24 35 9 5 2 2 4 vhcurveto
          18 10 11 15 22 vvcurveto
          14 -12 8 -11 vhcurveto
          0 -3 0 -2 -1 vhcurveto
          -4 -1 -6 -2 -10 -2 5 -15 10 4 rlinecurve
          10 2 rlineto
          4 4 -4 -2 hvcurveto
          1 -13 -7 -5 -8 -5 -7 -5 -3 -1 -8 2 rrcurveto
          -8 3 -9 2 21 vvcurveto
          29 -1 15 29 31 hhcurveto
          8 19 -11 -4 3 hvcurveto
          13 -15 -6 -22 -20 vvcurveto
          -52 -22 callsubr
          9 263 -77 callgsubr
          endchar
        </CharString>
        <CharString name="seven">
          173 -136 34 485 19 143 43 hstem
          15 20 95 23 12 47 vstem
          469 559 rmoveto
          1 vlineto
          19 16 27 52 -49 hhcurveto
          -19 -6 -8 -9 -15 hvcurveto
          -29 -49 -50 -9 -57 -40 -35 12 -40 hhcurveto
          -70 -70 -28 -88 1 hvcurveto
          -26 39 -63 34 43 23 44 42 23 -3 1 -19 13 vhcurveto
          -1 vlineto
          -10 8 -11 -16 10 -6 rrcurveto
          11 -8 -1 -1 -12 vvcurveto
          -32 -13 -38 -31 1 vhcurveto
          -26 -25 50 21 hvcurveto
          1 69 64 7 54 -1 rrcurveto
          39 34 -25 41 hhcurveto
          42 39 8 14 37 hvcurveto
          -84 -122 -78 -176 -40 -125 -7 -22 2 -21 -3 -20 rrcurveto
          -6 -30 -5 -29 -31 vvcurveto
          -43 1 22 -61 45 hhcurveto
          46 29 40 36 18 hvcurveto
          4 12 -17 9 -5 -11 rrcurveto
          -28 -14 -26 -24 -35 hhcurveto
          -26 6 44 24 45 13 52 14 41 hvcurveto
          59 191 60 96 111 168 rrcurveto
          endchar
        </CharString>
        <CharString name="six">
          143 -53 59 51 28 236 36 262 19 hstem
          31 59 113 30 208 19 vstem
          459 608 rmoveto
          26 -18 4 -15 -97 -65 -47 -65 -56 vhcurveto
          -53 -61 -43 -47 -28 -72 -25 -62 -30 -56 1 -67 rrcurveto
          -64 55 -150 99 131 132 192 119 28 -44 71 -30 -26 -30 -14 -13 -16 vhcurveto
          -61 -48 -38 -76 -82 vvcurveto
          -24 13 -43 24 43 52 95 41 -30 vhcurveto
          -16 20 -30 -24 15 -20 9 -11 8 -10 -4 -18 rrcurveto
          -15 -6 -24 -30 -17 hhcurveto
          -13 6 27 13 77 48 119 93 17 5 -48 -15 -97 -105 -155 -106 -43 -51 91 63 58 24 54 22 53 hvcurveto
          25 67 25 54 49 57 rrcurveto
          59 52 51 57 88 hhcurveto
          12 2 -2 -9 -41 -50 -35 -42 -16 hvcurveto
          -12 -4 7 -18 12 4 rrcurveto
          40 16 64 39 55 vvcurveto
          endchar
        </CharString>
        <CharString name="slash">
          100 -37 22 hstem
          44 30 vstem
          531 670 -93 callsubr
          endchar
        </CharString>
        <CharString name="space">
          -90 endchar
        </CharString>
        <CharString name="sterling">
          309 -39 38 336 35 368 34 hstem
          438 35 vstem
          489 650 rmoveto
          93 -118 29 -56 -29 -24 -7 -11 -19 vhcurveto
          -2 -1 -2 -3 -3 -2 -46 -31 -18 -60 -13 -47 -18 -61 -4 -60 -13 -59 -4 -21 -5 -20 -3 -21 -30 -2 rcurveline
          -23 -1 3 -33 22 1 22 2 rcurveline
          -3 -26 -3 -25 -4 -23 -11 -41 -14 -48 -19 -41 -22 -26 -27 -10 -32 -46 -6 -6 0 -7 3 -6 -15 -18 4 -24 25 10 10 4 10 6 9 7 rrcurveto
          10 hlineto
          95 84 -54 96 hhcurveto
          74 140 36 107 -47 hvcurveto
          -9 20 -32 -13 9 -20 13 -28 -8 -22 -19 -14 -5 3 -5 1 -7 -2 rrcurveto
          -18 -37 -26 -12 -41 hhcurveto
          -88 -77 48 6 -86 hvcurveto
          11 16 72 69 33 101 18 99 rlinecurve
          57 8 66 -12 52 29 rrcurveto
          10 19 -6 21 -21 hhcurveto
          -101 hlineto
          -59 -14 3 28 10 86 19 102 27 83 rlinecurve
          9 19 10 17 12 16 rrcurveto
          5 11 13 2 15 hhcurveto
          59 82 -29 -59 -66 -44 -56 -63 -18 hvcurveto
          -21 -6 9 -32 21 6 rrcurveto
          77 20 54 70 82 vvcurveto
          endchar
        </CharString>
        <CharString name="summation">
          221 0 29 491 50 -29 29 8 -20 hstemhm
          hintmask 10010000
          525 578 rmoveto
          hintmask 10100000
          -102 -103 0 -8 -103 hvcurveto
          -21 -2 -32 -11 -23 3 rrcurveto
          -8 -4 -3 -10 -2 hvcurveto
          6 -46 139 -158 70 -54 -84 -39 -82 -61 -75 -59 -88 -93 rcurveline
          -4 -6 -5 -15 0 vvcurveto
          2 -10 4 -4 8 -2 rrcurveto
          98 133 16 -16 90 hvcurveto
          59 -8 47 -35 57 -3 4 -4 7 0 7 7 rrcurveto
          2 0 3 0 hvcurveto
          13 4 -1 42 -12 hhcurveto
          -28 -26 7 7 -28 hvcurveto
          -84 53 -201 -50 -98 -3 7 3 7 5 3 3 27 20 68 37 25 22 80 66 45 41 89 43 11 8 0 5 -6 11 -43 27 -161 154 -39 57 19 2 22 6 19 2 rrcurveto
          hintmask 11000000
          8 103 111 -29 101 hhcurveto
          hintmask 10010000
          0 40 56 -51 2 vhcurveto
          endchar
        </CharString>
        <CharString name="t">
          -52 -73 23 108 19 146 25 84 19 12 30 hstem
          29 19 8 53 28 21 23 19 21 33 vstem
          254 136 rmoveto
          29 -15 84 -44 vhcurveto
          -53 -1 -3 -102 -1 -31 rrcurveto
          -20 13 -37 20 24 7 32 18 vhcurveto
          -2 12 -19 0 -12 vvcurveto
          -7 -2 -24 -8 -12 -1 26 12 25 -6 84 42 vhcurveto
          2 -1 4 -1 6 -8 rrcurveto
          22 -27 -7 -20 -31 vvcurveto
          -59 -19 -98 -58 -26 vhcurveto
          -43 -20 9 75 27 vvcurveto
          -1 29 0 18 2 30 2 46 2 57 7 41 rrcurveto
          5 27 2 33 33 vvcurveto
          7 14 14 7 18 hhcurveto
          20 16 -7 -14 5 hvcurveto
          5 -13 18 7 -5 12 rrcurveto
          23 -9 -18 22 -33 hhcurveto
          -16 -15 -7 -7 -14 hvcurveto
          50 -6 51 -9 41 vhcurveto
          -3 13 -9 9 -3 14 -4 13 -18 -4 4 -13 15 -64 1 -67 -5 -66 rrcurveto
          -3 -8 -7 -2 -6 hhcurveto
          -13 -9 6 17 hvcurveto
          -1 hlineto
          14 -19 0 -13 vvcurveto
          -28 18 -15 24 6 7 1 1 6 vhcurveto
          -4 -25 -3 -23 -3 -24 -7 -42 -15 -58 -2 -48 rrcurveto
          -1 -31 -2 -18 -30 vvcurveto
          -1 -50 38 -86 80 37 rrcurveto
          70 32 14 98 70 vvcurveto
          endchar
        </CharString>
        <CharString name="thorn">
          -15 -18 22 311 36 hstem
          31 24 14 29 5 38 -23 67 60 58 vstem
          302 -46 callgsubr
          2 20 22 vvcurveto
          14 0 14 3 12 vhcurveto
          1 12 -30 -6 -32 callgsubr
          -34 -21 12 callgsubr
          26 19 6 13 vhcurveto
          19 -163 -23 -275 -3 -13 callsubr
          12 12 13 19 rrcurveto
          41 61 -4 343 -82 callgsubr
        </CharString>
        <CharString name="three">
          104 -81 59 89 19 95 41 167 30 160 38 hstem
          58 25 64 22 15 20 110 47 10 46 vstem
          416 236 rmoveto
          73 -45 53 -61 21 vhcurveto
          30 45 20 54 41 vvcurveto
          64 -50 31 -59 -40 -31 -18 -16 -32 vhcurveto
          -29 -15 -43 -25 -10 -33 rrcurveto
          -3 -9 -6 -29 -13 vvcurveto
          -33 34 -37 32 29 16 22 30 18 -3 7 -19 5 vhcurveto
          -13 3 -4 -19 12 -4 rrcurveto
          5 1 2 -4 hvcurveto
          -8 vlineto
          -13 -1 -9 -9 -14 hhcurveto
          -19 -22 21 20 11 2 24 2 8 hvcurveto
          8 25 48 19 20 10 rrcurveto
          13 27 28 9 34 hhcurveto
          36 25 -22 -36 -35 -13 -52 -25 -42 hvcurveto
          -7 -9 1 -9 hhcurveto
          -24 -12 -3 -8 -23 hvcurveto
          -14 -4 -25 -28 -18 vvcurveto
          -23 33 -11 20 5 vhcurveto
          31 5 29 20 25 27 13 -7 15 -9 11 -7 rrcurveto
          28 -19 14 -40 -37 vvcurveto
          -82 -64 -116 -72 -43 vhcurveto
          -13 -19 -10 -4 -17 hhcurveto
          -61 -40 84 75 6 3 11 3 5 3 callsubr
          4 6 25 18 6 hhcurveto
          8 5 4 -4 6 hvcurveto
          19 -14 15 -28 -25 vvcurveto
          -10 -6 -19 -10 -10 -4 22 7 -1 vhcurveto
          -4 21 -29 -6 4 -20 rrcurveto
          -15 2 23 -28 19 hhcurveto
          19 17 31 17 25 -20 51 -17 13 hvcurveto
          8 -11 -7 10 -19 hhcurveto
          -20 -36 -5 -13 -17 hvcurveto
          -21 -16 -6 -36 -15 vvcurveto
          -73 39 -145 120 132 96 209 107 vhcurveto
          -158 128 rmoveto
          -16 -18 -19 -13 -23 -4 rrcurveto
          -6 -1 -13 -3 7 vvcurveto
          2 10 6 19 8 2 rrcurveto
          7 20 13 -5 21 hhcurveto
          5 hlineto
          endchar
        </CharString>
        <CharString name="threequarters">
          434 -58 22 -15 30 134 41 38 42 46 -21 37 15 callsubr
          hstemhm
          41 17 45 15 11 14 38 30 9 33 7 32 372 15 40 14 hintmask 000101111111011000000000
          -95 callsubr
          hintmask 011010000000000110000000
          553 -261 -93 callgsubr
          hintmask 100000000000100000000000
          -64 406 -93 callsubr
          endchar
        </CharString>
        <CharString name="threesuperior">
          4 192 42 62 15 callsubr
          hstem
          41 17 45 15 11 14 77 33 7 32 vstem
          -95 callsubr
          endchar
        </CharString>
        <CharString name="tilde">
          -5 callsubr
          371 521 rmoveto
          -4 9 -15 4 1 -11 rrcurveto
          -34 2 -25 2 -25 hhcurveto
          -53 -28 42 -8 -72 hvcurveto
          -14 -1 -35 -42 -19 vvcurveto
          -21 26 -6 4 33 vhcurveto
          5 33 67 -27 20 -8 rrcurveto
          -12 35 8 callsubr
          43 33 42 -14 hvcurveto
          endchar
        </CharString>
        <CharString name="trademark">
          785 575 38 hstem
          925 110 rmoveto
          -21 69 -30 76 -24 70 rrcurveto
          -22 68 -29 47 76 vvcurveto
          20 -19 7 -12 -18 vhcurveto
          -43 -62 -56 -71 -56 -52 -25 45 -27 47 -23 51 -7 12 -12 2 -9 -10 -56 -59 23 -90 -44 -67 -13 -18 28 -19 12 19 44 65 -16 67 32 59 23 -49 26 -46 25 -43 rrcurveto
          5 -10 11 -3 9 8 53 45 53 63 43 59 4 -22 5 -20 7 -19 35 -103 42 -100 33 -103 6 -23 32 10 -7 22 rrcurveto
          -293 447 rmoveto
          22 0 33 -22 -108 -93 23 -119 hhcurveto
          -5 hlineto
          -5 16 -24 0 -5 -16 rrcurveto
          -1 -56 -49 -4 -57 -23 0 -33 23 hhcurveto
          56 50 3 1 55 hvcurveto
          -3 -84 -19 -93 -11 -75 -5 -36 -1 -37 -10 -34 -7 -22 33 -9 5 22 6 17 3 17 2 19 13 104 24 106 4 105 rrcurveto
          6 hlineto
          119 93 -22 108 hhcurveto
          endchar
        </CharString>
        <CharString name="two">
          171 3 47 126 30 187 26 171 43 hstem
          -6 34 40 22 90 26 139 19 15 58 5 34 vstem
          476 124 rmoveto
          33 -27 48 -37 vhcurveto
          -39 1 -18 -23 -12 -28 -7 -15 8 -16 1 -14 rrcurveto
          -13 18 0 1 13 vhcurveto
          2 34 rlineto
          18 9 13 14 24 hhcurveto
          8 -1 12 -11 6 -14 rrcurveto
          3 -7 1 -13 -7 vvcurveto
          -38 -29 -48 -45 -38 -24 25 22 -27 vhcurveto
          -14 11 -13 9 -15 8 rrcurveto
          103 103 97 158 119 vvcurveto
          64 -49 52 -56 16 vhcurveto
          8 -26 -26 1 -28 hhcurveto
          -26 -18 -6 -8 -23 hvcurveto
          -70 -22 -46 -43 -1 -86 rrcurveto
          -31 31 -46 34 1 vhcurveto
          35 1 36 26 1 37 rrcurveto
          21 -18 16 -21 3 vhcurveto
          -1 -1 -13 2 -2 -19 12 -2 rlinecurve
          10 -1 8 -9 -10 vvcurveto
          -1 -19 -21 -20 -25 1 rrcurveto
          -22 -23 30 20 hvcurveto
          2 72 49 27 58 19 rrcurveto
          5 18 16 -1 21 hhcurveto
          24 20 -17 -5 21 hvcurveto
          34 -9 28 -33 -34 vvcurveto
          -96 -95 -162 -89 -98 vhcurveto
          -14 7 -14 8 -14 9 rrcurveto
          20 -29 -21 19 -38 hhcurveto
          -40 1 -31 -40 -36 vvcurveto
          -41 24 -80 49 26 18 16 11 21 vhcurveto
          25 14 24 16 25 23 rrcurveto
          -36 53 41 -53 68 hhcurveto
          65 43 73 57 hvcurveto
          -308 -16 rmoveto
          -19 -20 -19 -14 -17 -9 rrcurveto
          -9 -14 -15 -6 -17 hhcurveto
          -29 -10 49 24 11 -1 7 3 6 hvcurveto
          13 8 11 11 15 hhcurveto
          29 1 19 -26 21 -15 11 -8 12 -8 12 -7 rrcurveto
          endchar
        </CharString>
        <CharString name="twosuperior">
          171 234 33 88 21 131 18 120 30 hstem
          10 6 callsubr
          vstem
          347 319 -94 callsubr
        </CharString>
        <CharString name="u">
          -34 68 34 hstem
          45 30 vstem
          294 87 -98 callgsubr
        </CharString>
        <CharString name="uacute">
          -16 68 34 28 callgsubr
          272 424 rmoveto
          -4 2 -14 4 -12 -6 -49 -20 -56 -36 -52 -19 -19 -6 11 -18 19 7 53 19 66 0 49 21 -31 callsubr
          20 -337 -98 callgsubr
        </CharString>
        <CharString name="ucircumflex">
          -16 68 34 316 59 28 callgsubr
          299 385 rmoveto
          13 -23 -100 79 -6 hhcurveto
          -36 -81 -81 -23 -25 hvcurveto
          -19 -20 12 -10 22 15 20 15 39 11 44 29 13 9 13 -5 21 -14 30 -19 42 -8 28 -15 25 -14 5 25 -24 13 rrcurveto
          -7 -298 -98 callgsubr
        </CharString>
        <CharString name="udieresis">
          -16 68 34 242 72 28 callgsubr
          267 384 rmoveto
          20 -22 12 -19 -20 -20 -18 -22 3 vhcurveto
          -19 3 14 -13 20 hhcurveto
          19 22 21 19 hvcurveto
          -157 -4 rmoveto
          20 -15 17 -19 -20 -16 -17 -20 -2 vhcurveto
          -20 -3 21 -17 20 hhcurveto
          19 15 18 19 hvcurveto
          182 -293 -98 callgsubr
        </CharString>
        <CharString name="ugrave">
          -16 68 34 28 callgsubr
          197 354 rmoveto
          -53 19 -54 36 -50 20 -12 24 callgsubr
          -17 -6 -1 -35 26 -12 -63 callsubr
          95 -267 -98 callgsubr
        </CharString>
        <CharString name="underscore">
          498 -170 42 -26 26 hstemhm
          hintmask 01000000
          6 -154 rmoveto
          63 5 62 8 61 -13 25 -4 24 -21 28 -2 rrcurveto
          hintmask 10000000
          -2 22 20 13 22 hhcurveto
          65 4 65 4 63 2 106 6 103 -14 104 10 rrcurveto
          6 19 -3 26 -19 hhcurveto
          -104 -11 -104 15 -106 -6 -63 -3 -64 -4 -65 -4 rrcurveto
          -21 -18 -13 3 -22 hvcurveto
          -35 2 -30 25 -36 4 -54 8 -55 -8 -72 -10 rrcurveto
          hintmask 01000000
          -20 -20 13 -5 26 -1 rrcurveto
          endchar
        </CharString>
        <CharString name="uni00A0">
          -335 endchar
        </CharString>
        <CharString name="v">
          8 18 13 128 19 176 31 hstem
          6 43 64 21 101 23 vstem
          388 367 rmoveto
          11 7 -8 17 -11 -7 -28 -17 -41 -33 -32 -37 -14 -15 -12 -19 -11 -21 -3 14 rcurveline
          51 -17 -34 79 -64 hhcurveto
          -39 -30 -25 -28 -17 hvcurveto
          -18 -31 -18 -26 2 -34 3 -43 33 -62 65 34 rrcurveto
          11 6 18 32 21 vvcurveto
          -1 10 -12 10 -6 8 rrcurveto
          1 hlineto
          -7 10 -16 -12 8 -10 rrcurveto
          1 -1 10 -13 -1 vvcurveto
          1 -13 -16 -31 -6 -3 rrcurveto
          -35 -64 9 206 88 hhcurveto
          20 20 -16 -21 12 hvcurveto
          20 -36 18 -38 10 -39 -24 -56 -14 -59 1 -25 rrcurveto
          -13 1 6 -33 20 hhcurveto
          35 9 81 25 28 -3 27 -4 26 hvcurveto
          11 24 14 22 15 18 29 34 45 50 23 13 rrcurveto
          -153 -242 rmoveto
          -21 9 -73 -28 vhcurveto
          -11 1 1 25 1 8 4 27 9 36 13 36 rrcurveto
          -2 vlineto
          1 -12 1 -12 -13 vvcurveto
          endchar
        </CharString>
        <CharString name="w">
          125 -17 25 160 38 58 32 43 26 hstem
          9 25 38 19 123 31 17 30 103 41 vstem
          436 239 rmoveto
          2 98 -93 155 -52 -130 -7 -19 28 -11 6 17 3 4 3 7 6 1 58 15 3 -108 2 -34 rrcurveto
          -60 5 -46 -165 -71 hhcurveto
          -2 -1 -2 3 -2 4 -14 16 -8 24 -4 25 rrcurveto
          1 vlineto
          26 50 14 61 51 vvcurveto
          20 5 33 -31 -51 0 -102 -35 -27 2 -26 5 -23 vhcurveto
          -7 -14 -9 -13 -10 -12 -10 -13 -5 22 -3 14 -3 17 -2 18 -1 18 -1 37 1 26 -7 37 rrcurveto
          47 -11 -29 98 -62 hhcurveto
          -45 -8 -83 -43 -25 13 -46 27 28 14 32 32 hvcurveto
          -1 12 -19 0 -12 vvcurveto
          -14 -9 -12 -13 -12 -5 21 12 vhcurveto
          33 2 -9 67 39 hhcurveto
          44 12 -96 -31 7 hvcurveto
          10 -50 -9 -52 13 -53 10 -40 37 -26 29 36 5 5 4 7 5 7 3 -8 3 -8 4 -6 rrcurveto
          -18 9 11 -23 23 hhcurveto
          100 49 169 87 3 hvcurveto
          -174 24 rmoveto
          -7 -1 -7 -7 vvcurveto
          -31 -6 -36 -10 -34 vhcurveto
          16 vlineto
          17 0 82 17 8 vhcurveto
          endchar
        </CharString>
</ttFont>
